<svg width="1059" height="1155" viewBox="0 0 1059 1155" fill="none" xmlns="http://www.w3.org/2000/svg">
<path d="M304.191 221.422C320.715 221.422 329.855 235.836 329.855 256.93C329.855 282.242 312.98 315.289 302.082 327.594L301.73 327.242C302.785 315.992 297.16 307.555 288.02 307.555C275.363 307.555 257.785 321.266 255.324 357.828V358.531H254.973C254.973 361.344 254.973 364.508 254.973 368.023L255.324 405.289C256.027 447.477 265.168 461.891 285.91 463.297V464C270.793 463.648 238.098 462.242 222.629 462.242C204.348 462.242 186.77 463.648 174.816 464V463.297C188.176 459.078 194.152 444.312 193.801 405.289L193.098 279.43C192.746 259.039 190.285 247.438 178.684 247.438C177.277 247.438 175.871 247.789 174.465 247.789V246.383C189.23 243.57 237.746 230.914 247.941 224.586L251.105 225.992L253.215 345.523H253.918C257.785 281.891 274.66 221.422 304.191 221.422ZM398.762 467.516C361.145 467.516 328.449 439.391 328.449 372.594C328.449 297.359 367.121 224.938 422.668 224.938C446.926 224.938 462.746 246.031 462.746 273.102C462.746 297.359 454.309 319.508 439.191 334.273C430.051 343.062 421.965 348.336 408.254 348.336H391.027C387.512 348.336 386.809 351.148 387.512 356.422C392.082 406.695 406.848 442.555 429.699 442.555C442.707 442.555 458.176 433.062 465.207 393.688L466.613 394.391C457.473 450.289 437.434 467.516 398.762 467.516ZM388.215 346.227C415.285 346.227 420.559 340.25 420.559 327.242C420.559 293.844 412.473 232.32 398.41 232.32C388.918 232.32 385.754 279.078 385.754 315.641C385.754 326.539 386.105 336.734 386.457 344.469C386.457 345.523 387.16 346.227 388.215 346.227ZM517.59 221.422C491.223 221.422 476.809 207.008 476.809 180.992C476.809 154.625 491.223 140.211 517.59 140.211C543.605 140.211 558.371 154.625 558.371 180.992C558.371 207.008 543.605 221.422 517.59 221.422ZM470.832 464V463.297C480.676 459.078 490.52 451.695 489.465 403.18V285.055C489.113 259.391 480.676 250.25 471.184 248.492V247.789C488.41 244.977 535.168 232.32 545.363 226.344L550.988 227.75V403.18C551.691 444.664 561.535 459.078 570.676 463.297V464C553.098 463.648 541.496 462.242 523.215 462.242C499.309 462.242 483.84 463.648 470.832 464ZM572.434 464V463.297C581.926 459.078 591.418 451.695 590.715 403.18L590.363 285.055C589.66 259.391 582.98 250.25 572.434 248.492V247.789C592.121 244.977 633.254 232.32 643.449 226.344L649.074 227.75L650.129 264.664C664.191 243.57 681.418 224.586 707.434 224.586C728.527 224.586 753.488 235.484 753.488 273.805V403.18C753.488 442.906 760.871 459.078 773.176 463.297V464C760.871 463.648 742.238 462.242 720.09 462.242C697.59 462.242 686.34 463.648 674.387 464V463.297C685.285 461.188 691.965 451.695 691.965 403.18V278.375C691.965 260.797 689.152 248.492 677.199 248.492C667.707 248.492 659.621 255.172 651.535 265.719L651.887 403.18C652.238 452.398 659.27 461.188 670.168 463.297V464C654.348 463.648 636.418 462.242 618.137 462.242C594.582 462.242 585.09 463.648 572.434 464ZM850.52 467.516C812.902 467.516 780.207 439.391 780.207 372.594C780.207 297.359 818.879 224.938 874.426 224.938C898.684 224.938 914.504 246.031 914.504 273.102C914.504 297.359 906.066 319.508 890.949 334.273C881.809 343.062 873.723 348.336 860.012 348.336H842.785C839.27 348.336 838.566 351.148 839.27 356.422C843.84 406.695 858.605 442.555 881.457 442.555C894.465 442.555 909.934 433.062 916.965 393.688L918.371 394.391C909.23 450.289 889.191 467.516 850.52 467.516ZM839.973 346.227C867.043 346.227 872.316 340.25 872.316 327.242C872.316 293.844 864.23 232.32 850.168 232.32C840.676 232.32 837.512 279.078 837.512 315.641C837.512 326.539 837.863 336.734 838.215 344.469C838.215 345.523 838.918 346.227 839.973 346.227ZM431.281 666.469V950.531C431.281 988.5 436.203 1007.48 451.32 1010.65V1011.35C439.719 1011 396.477 1010.65 374.68 1010.65C373.625 1003.62 372.219 988.148 371.516 971.273C370.109 974.438 368.352 977.602 366.594 981.117C359.914 994.828 349.719 1013.81 322.648 1013.81C291.359 1013.81 263.234 988.852 263.234 915.727C263.234 836.273 294.172 772.641 336.359 772.641C345.5 772.641 358.508 774.75 370.109 778.969V726.586C370.109 693.891 362.727 678.773 344.445 679.828V679.125C366.945 677.016 417.922 671.039 428.117 665.062L431.281 666.469ZM364.836 981.469C370.461 975.141 369.758 954.047 370.109 927.68V844.711C366.242 798.305 342.688 775.453 330.383 775.453C326.164 775.453 323 778.969 320.891 785.648C317.727 794.789 316.672 810.258 316.672 829.242C316.672 927.68 336.359 984.633 356.398 984.633C359.914 984.633 362.727 983.578 364.836 981.469ZM528.664 1014.52C491.047 1014.52 458.352 986.391 458.352 919.594C458.352 844.359 497.023 771.938 552.57 771.938C576.828 771.938 592.648 793.031 592.648 820.102C592.648 844.359 584.211 866.508 569.094 881.273C559.953 890.062 551.867 895.336 538.156 895.336H520.93C517.414 895.336 516.711 898.148 517.414 903.422C521.984 953.695 536.75 989.555 559.602 989.555C572.609 989.555 588.078 980.062 595.109 940.688L596.516 941.391C587.375 997.289 567.336 1014.52 528.664 1014.52ZM518.117 893.227C545.188 893.227 550.461 887.25 550.461 874.242C550.461 840.844 542.375 779.32 528.312 779.32C518.82 779.32 515.656 826.078 515.656 862.641C515.656 873.539 516.008 883.734 516.359 891.469C516.359 892.523 517.062 893.227 518.117 893.227ZM712.18 1010.65L682.648 1011.7L682.297 1008.89L630.617 823.266C622.18 793.031 617.258 787.406 600.031 778.969V778.266C609.172 778.266 619.719 779.672 646.438 779.672C684.055 779.672 699.875 778.617 713.586 778.266V778.969C700.93 780.727 692.844 788.109 692.844 803.578C692.844 808.852 693.547 815.531 696.008 822.914L727.297 933.656L730.812 918.891C737.844 890.766 740.305 866.859 740.305 846.82C740.305 804.633 728.352 781.078 718.508 778.617V777.914C729.406 778.266 749.445 779.672 759.992 779.672C772.297 779.672 786.359 778.266 793.039 777.914V778.617C772.297 796.547 750.852 844.359 734.328 915.375L712.18 1010.65ZM799.367 1014.16C779.328 1014.16 767.727 1002.91 767.727 983.227C767.727 963.188 779.328 951.938 799.367 951.938C819.055 951.938 830.305 963.188 830.305 983.227C830.305 1002.91 819.055 1014.16 799.367 1014.16Z" fill="#DBFFF8"/>
<g filter="url(#filter0_df_1207_163)">
<path d="M304.191 221.422C320.715 221.422 329.855 235.836 329.855 256.93C329.855 282.242 312.98 315.289 302.082 327.594L301.73 327.242C302.785 315.992 297.16 307.555 288.02 307.555C275.363 307.555 257.785 321.266 255.324 357.828V358.531H254.973C254.973 361.344 254.973 364.508 254.973 368.023L255.324 405.289C256.027 447.477 265.168 461.891 285.91 463.297V464C270.793 463.648 238.098 462.242 222.629 462.242C204.348 462.242 186.77 463.648 174.816 464V463.297C188.176 459.078 194.152 444.312 193.801 405.289L193.098 279.43C192.746 259.039 190.285 247.438 178.684 247.438C177.277 247.438 175.871 247.789 174.465 247.789V246.383C189.23 243.57 237.746 230.914 247.941 224.586L251.105 225.992L253.215 345.523H253.918C257.785 281.891 274.66 221.422 304.191 221.422ZM398.762 467.516C361.145 467.516 328.449 439.391 328.449 372.594C328.449 297.359 367.121 224.938 422.668 224.938C446.926 224.938 462.746 246.031 462.746 273.102C462.746 297.359 454.309 319.508 439.191 334.273C430.051 343.062 421.965 348.336 408.254 348.336H391.027C387.512 348.336 386.809 351.148 387.512 356.422C392.082 406.695 406.848 442.555 429.699 442.555C442.707 442.555 458.176 433.062 465.207 393.688L466.613 394.391C457.473 450.289 437.434 467.516 398.762 467.516ZM388.215 346.227C415.285 346.227 420.559 340.25 420.559 327.242C420.559 293.844 412.473 232.32 398.41 232.32C388.918 232.32 385.754 279.078 385.754 315.641C385.754 326.539 386.105 336.734 386.457 344.469C386.457 345.523 387.16 346.227 388.215 346.227ZM517.59 221.422C491.223 221.422 476.809 207.008 476.809 180.992C476.809 154.625 491.223 140.211 517.59 140.211C543.605 140.211 558.371 154.625 558.371 180.992C558.371 207.008 543.605 221.422 517.59 221.422ZM470.832 464V463.297C480.676 459.078 490.52 451.695 489.465 403.18V285.055C489.113 259.391 480.676 250.25 471.184 248.492V247.789C488.41 244.977 535.168 232.32 545.363 226.344L550.988 227.75V403.18C551.691 444.664 561.535 459.078 570.676 463.297V464C553.098 463.648 541.496 462.242 523.215 462.242C499.309 462.242 483.84 463.648 470.832 464ZM572.434 464V463.297C581.926 459.078 591.418 451.695 590.715 403.18L590.363 285.055C589.66 259.391 582.98 250.25 572.434 248.492V247.789C592.121 244.977 633.254 232.32 643.449 226.344L649.074 227.75L650.129 264.664C664.191 243.57 681.418 224.586 707.434 224.586C728.527 224.586 753.488 235.484 753.488 273.805V403.18C753.488 442.906 760.871 459.078 773.176 463.297V464C760.871 463.648 742.238 462.242 720.09 462.242C697.59 462.242 686.34 463.648 674.387 464V463.297C685.285 461.188 691.965 451.695 691.965 403.18V278.375C691.965 260.797 689.152 248.492 677.199 248.492C667.707 248.492 659.621 255.172 651.535 265.719L651.887 403.18C652.238 452.398 659.27 461.188 670.168 463.297V464C654.348 463.648 636.418 462.242 618.137 462.242C594.582 462.242 585.09 463.648 572.434 464ZM850.52 467.516C812.902 467.516 780.207 439.391 780.207 372.594C780.207 297.359 818.879 224.938 874.426 224.938C898.684 224.938 914.504 246.031 914.504 273.102C914.504 297.359 906.066 319.508 890.949 334.273C881.809 343.062 873.723 348.336 860.012 348.336H842.785C839.27 348.336 838.566 351.148 839.27 356.422C843.84 406.695 858.605 442.555 881.457 442.555C894.465 442.555 909.934 433.062 916.965 393.688L918.371 394.391C909.23 450.289 889.191 467.516 850.52 467.516ZM839.973 346.227C867.043 346.227 872.316 340.25 872.316 327.242C872.316 293.844 864.23 232.32 850.168 232.32C840.676 232.32 837.512 279.078 837.512 315.641C837.512 326.539 837.863 336.734 838.215 344.469C838.215 345.523 838.918 346.227 839.973 346.227ZM431.281 666.469V950.531C431.281 988.5 436.203 1007.48 451.32 1010.65V1011.35C439.719 1011 396.477 1010.65 374.68 1010.65C373.625 1003.62 372.219 988.148 371.516 971.273C370.109 974.438 368.352 977.602 366.594 981.117C359.914 994.828 349.719 1013.81 322.648 1013.81C291.359 1013.81 263.234 988.852 263.234 915.727C263.234 836.273 294.172 772.641 336.359 772.641C345.5 772.641 358.508 774.75 370.109 778.969V726.586C370.109 693.891 362.727 678.773 344.445 679.828V679.125C366.945 677.016 417.922 671.039 428.117 665.062L431.281 666.469ZM364.836 981.469C370.461 975.141 369.758 954.047 370.109 927.68V844.711C366.242 798.305 342.688 775.453 330.383 775.453C326.164 775.453 323 778.969 320.891 785.648C317.727 794.789 316.672 810.258 316.672 829.242C316.672 927.68 336.359 984.633 356.398 984.633C359.914 984.633 362.727 983.578 364.836 981.469ZM528.664 1014.52C491.047 1014.52 458.352 986.391 458.352 919.594C458.352 844.359 497.023 771.938 552.57 771.938C576.828 771.938 592.648 793.031 592.648 820.102C592.648 844.359 584.211 866.508 569.094 881.273C559.953 890.062 551.867 895.336 538.156 895.336H520.93C517.414 895.336 516.711 898.148 517.414 903.422C521.984 953.695 536.75 989.555 559.602 989.555C572.609 989.555 588.078 980.062 595.109 940.688L596.516 941.391C587.375 997.289 567.336 1014.52 528.664 1014.52ZM518.117 893.227C545.188 893.227 550.461 887.25 550.461 874.242C550.461 840.844 542.375 779.32 528.312 779.32C518.82 779.32 515.656 826.078 515.656 862.641C515.656 873.539 516.008 883.734 516.359 891.469C516.359 892.523 517.062 893.227 518.117 893.227ZM712.18 1010.65L682.648 1011.7L682.297 1008.89L630.617 823.266C622.18 793.031 617.258 787.406 600.031 778.969V778.266C609.172 778.266 619.719 779.672 646.438 779.672C684.055 779.672 699.875 778.617 713.586 778.266V778.969C700.93 780.727 692.844 788.109 692.844 803.578C692.844 808.852 693.547 815.531 696.008 822.914L727.297 933.656L730.812 918.891C737.844 890.766 740.305 866.859 740.305 846.82C740.305 804.633 728.352 781.078 718.508 778.617V777.914C729.406 778.266 749.445 779.672 759.992 779.672C772.297 779.672 786.359 778.266 793.039 777.914V778.617C772.297 796.547 750.852 844.359 734.328 915.375L712.18 1010.65ZM799.367 1014.16C779.328 1014.16 767.727 1002.91 767.727 983.227C767.727 963.188 779.328 951.938 799.367 951.938C819.055 951.938 830.305 963.188 830.305 983.227C830.305 1002.91 819.055 1014.16 799.367 1014.16Z" fill="#DBFFF8"/>
</g>
<g filter="url(#filter1_df_1207_163)">
<path d="M82 364L89.3086 396.355L117.355 378.645L99.6445 406.691L132 414L99.6445 421.309L117.355 449.355L89.3086 431.645L82 464L74.6914 431.645L46.6447 449.355L64.3555 421.309L32 414L64.3555 406.691L46.6447 378.645L74.6914 396.355L82 364Z" fill="#DBFFF8"/>
</g>
<g filter="url(#filter2_f_1207_163)">
<path d="M82 364L89.3086 396.355L117.355 378.645L99.6445 406.691L132 414L99.6445 421.309L117.355 449.355L89.3086 431.645L82 464L74.6914 431.645L46.6447 449.355L64.3555 421.309L32 414L64.3555 406.691L46.6447 378.645L74.6914 396.355L82 364Z" fill="#DBFFF8"/>
</g>
<g filter="url(#filter3_df_1207_163)">
<path d="M304.191 221.422C320.715 221.422 329.855 235.836 329.855 256.93C329.855 282.242 312.98 315.289 302.082 327.594L301.73 327.242C302.785 315.992 297.16 307.555 288.02 307.555C275.363 307.555 257.785 321.266 255.324 357.828V358.531H254.973C254.973 361.344 254.973 364.508 254.973 368.023L255.324 405.289C256.027 447.477 265.168 461.891 285.91 463.297V464C270.793 463.648 238.098 462.242 222.629 462.242C204.348 462.242 186.77 463.648 174.816 464V463.297C188.176 459.078 194.152 444.312 193.801 405.289L193.098 279.43C192.746 259.039 190.285 247.438 178.684 247.438C177.277 247.438 175.871 247.789 174.465 247.789V246.383C189.23 243.57 237.746 230.914 247.941 224.586L251.105 225.992L253.215 345.523H253.918C257.785 281.891 274.66 221.422 304.191 221.422ZM398.762 467.516C361.145 467.516 328.449 439.391 328.449 372.594C328.449 297.359 367.121 224.938 422.668 224.938C446.926 224.938 462.746 246.031 462.746 273.102C462.746 297.359 454.309 319.508 439.191 334.273C430.051 343.062 421.965 348.336 408.254 348.336H391.027C387.512 348.336 386.809 351.148 387.512 356.422C392.082 406.695 406.848 442.555 429.699 442.555C442.707 442.555 458.176 433.062 465.207 393.688L466.613 394.391C457.473 450.289 437.434 467.516 398.762 467.516ZM388.215 346.227C415.285 346.227 420.559 340.25 420.559 327.242C420.559 293.844 412.473 232.32 398.41 232.32C388.918 232.32 385.754 279.078 385.754 315.641C385.754 326.539 386.105 336.734 386.457 344.469C386.457 345.523 387.16 346.227 388.215 346.227ZM517.59 221.422C491.223 221.422 476.809 207.008 476.809 180.992C476.809 154.625 491.223 140.211 517.59 140.211C543.605 140.211 558.371 154.625 558.371 180.992C558.371 207.008 543.605 221.422 517.59 221.422ZM470.832 464V463.297C480.676 459.078 490.52 451.695 489.465 403.18V285.055C489.113 259.391 480.676 250.25 471.184 248.492V247.789C488.41 244.977 535.168 232.32 545.363 226.344L550.988 227.75V403.18C551.691 444.664 561.535 459.078 570.676 463.297V464C553.098 463.648 541.496 462.242 523.215 462.242C499.309 462.242 483.84 463.648 470.832 464ZM572.434 464V463.297C581.926 459.078 591.418 451.695 590.715 403.18L590.363 285.055C589.66 259.391 582.98 250.25 572.434 248.492V247.789C592.121 244.977 633.254 232.32 643.449 226.344L649.074 227.75L650.129 264.664C664.191 243.57 681.418 224.586 707.434 224.586C728.527 224.586 753.488 235.484 753.488 273.805V403.18C753.488 442.906 760.871 459.078 773.176 463.297V464C760.871 463.648 742.238 462.242 720.09 462.242C697.59 462.242 686.34 463.648 674.387 464V463.297C685.285 461.188 691.965 451.695 691.965 403.18V278.375C691.965 260.797 689.152 248.492 677.199 248.492C667.707 248.492 659.621 255.172 651.535 265.719L651.887 403.18C652.238 452.398 659.27 461.188 670.168 463.297V464C654.348 463.648 636.418 462.242 618.137 462.242C594.582 462.242 585.09 463.648 572.434 464ZM850.52 467.516C812.902 467.516 780.207 439.391 780.207 372.594C780.207 297.359 818.879 224.938 874.426 224.938C898.684 224.938 914.504 246.031 914.504 273.102C914.504 297.359 906.066 319.508 890.949 334.273C881.809 343.062 873.723 348.336 860.012 348.336H842.785C839.27 348.336 838.566 351.148 839.27 356.422C843.84 406.695 858.605 442.555 881.457 442.555C894.465 442.555 909.934 433.062 916.965 393.688L918.371 394.391C909.23 450.289 889.191 467.516 850.52 467.516ZM839.973 346.227C867.043 346.227 872.316 340.25 872.316 327.242C872.316 293.844 864.23 232.32 850.168 232.32C840.676 232.32 837.512 279.078 837.512 315.641C837.512 326.539 837.863 336.734 838.215 344.469C838.215 345.523 838.918 346.227 839.973 346.227ZM431.281 666.469V950.531C431.281 988.5 436.203 1007.48 451.32 1010.65V1011.35C439.719 1011 396.477 1010.65 374.68 1010.65C373.625 1003.62 372.219 988.148 371.516 971.273C370.109 974.438 368.352 977.602 366.594 981.117C359.914 994.828 349.719 1013.81 322.648 1013.81C291.359 1013.81 263.234 988.852 263.234 915.727C263.234 836.273 294.172 772.641 336.359 772.641C345.5 772.641 358.508 774.75 370.109 778.969V726.586C370.109 693.891 362.727 678.773 344.445 679.828V679.125C366.945 677.016 417.922 671.039 428.117 665.062L431.281 666.469ZM364.836 981.469C370.461 975.141 369.758 954.047 370.109 927.68V844.711C366.242 798.305 342.688 775.453 330.383 775.453C326.164 775.453 323 778.969 320.891 785.648C317.727 794.789 316.672 810.258 316.672 829.242C316.672 927.68 336.359 984.633 356.398 984.633C359.914 984.633 362.727 983.578 364.836 981.469ZM528.664 1014.52C491.047 1014.52 458.352 986.391 458.352 919.594C458.352 844.359 497.023 771.938 552.57 771.938C576.828 771.938 592.648 793.031 592.648 820.102C592.648 844.359 584.211 866.508 569.094 881.273C559.953 890.062 551.867 895.336 538.156 895.336H520.93C517.414 895.336 516.711 898.148 517.414 903.422C521.984 953.695 536.75 989.555 559.602 989.555C572.609 989.555 588.078 980.062 595.109 940.688L596.516 941.391C587.375 997.289 567.336 1014.52 528.664 1014.52ZM518.117 893.227C545.188 893.227 550.461 887.25 550.461 874.242C550.461 840.844 542.375 779.32 528.312 779.32C518.82 779.32 515.656 826.078 515.656 862.641C515.656 873.539 516.008 883.734 516.359 891.469C516.359 892.523 517.062 893.227 518.117 893.227ZM712.18 1010.65L682.648 1011.7L682.297 1008.89L630.617 823.266C622.18 793.031 617.258 787.406 600.031 778.969V778.266C609.172 778.266 619.719 779.672 646.438 779.672C684.055 779.672 699.875 778.617 713.586 778.266V778.969C700.93 780.727 692.844 788.109 692.844 803.578C692.844 808.852 693.547 815.531 696.008 822.914L727.297 933.656L730.812 918.891C737.844 890.766 740.305 866.859 740.305 846.82C740.305 804.633 728.352 781.078 718.508 778.617V777.914C729.406 778.266 749.445 779.672 759.992 779.672C772.297 779.672 786.359 778.266 793.039 777.914V778.617C772.297 796.547 750.852 844.359 734.328 915.375L712.18 1010.65ZM799.367 1014.16C779.328 1014.16 767.727 1002.91 767.727 983.227C767.727 963.188 779.328 951.938 799.367 951.938C819.055 951.938 830.305 963.188 830.305 983.227C830.305 1002.91 819.055 1014.16 799.367 1014.16Z" fill="#DBFFF8"/>
</g>
<g filter="url(#filter4_df_1207_163)">
<path d="M178.543 114.853C177.578 118.005 177.094 121.766 177.288 124.797C177.336 125.567 177.574 126.695 177.974 128.032C178.719 130.577 179.115 131.291 181.154 133.673C181.211 133.752 180.338 133.549 179.213 133.229C176.678 132.516 173.851 132.05 171.957 132.04C170.794 132.036 170.224 132.127 169.067 132.473C166.143 133.347 164.672 134.972 164.732 137.226C164.768 138.287 164.902 138.679 165.573 139.87C167.623 143.449 171.524 144.843 172.801 142.46C173.111 141.887 173.111 141.887 172.699 141.451C171.696 140.375 171.854 139.127 173.09 137.99C175.033 136.224 178.396 135.986 180.203 137.478C181.35 138.43 181.268 139.319 179.727 143.428C178.819 145.828 178.696 146.249 178.702 146.935C178.702 147.543 178.983 147.651 179.836 147.396C182.013 146.745 183.88 144.89 184.219 143.028L184.384 142.195L185.734 143.823L187.084 145.451L187.269 147.236C187.518 149.786 187.698 153.38 187.703 156.003C187.729 168.956 184.881 177.456 179.165 181.471C178.189 182.147 177.852 182.296 176.162 182.801C174.502 183.298 174.074 183.362 172.841 183.347C170.943 183.323 168.467 182.864 166.431 182.16C163.492 181.152 158.835 178.673 155.829 176.5L154.662 175.649L154.206 173.625C153.973 172.511 153.787 171.559 153.809 171.52C153.83 171.482 154.022 171.568 154.251 171.724C154.476 171.865 155.138 172.082 155.735 172.192C156.595 172.351 157.057 172.34 158.003 172.121C159.354 171.813 160.715 171.15 161.077 170.642C161.296 170.32 161.29 170.242 161.017 169.94C160.696 169.588 159.192 168.997 156.721 168.281C155.013 167.784 153.44 167.07 152.964 166.589C151.992 165.615 152.586 163.053 154.13 161.615C155.413 160.415 157.016 159.728 158.194 159.839C159.237 159.943 159.721 160.343 160.142 161.417C160.491 162.304 160.548 162.383 161.016 162.451C163.337 162.781 164.621 160.029 163.782 156.504C163.156 153.97 161.774 152.4 159.849 152.064C157.954 151.719 155.28 152.983 153.509 155.049C152.402 156.34 150.704 159.424 149.751 161.838C149.335 162.89 148.977 163.797 148.948 163.87C148.92 163.942 148.598 163.031 148.242 161.841C147.451 159.197 146.869 158.251 144.767 156.048C142.457 153.651 139.282 151.577 135.527 150.06C134.152 149.512 133.72 149.401 133.677 149.59C133.578 150.035 133.772 153.065 134.027 154.861C134.404 157.453 135.64 161.083 136.77 162.921C138.154 165.163 140.424 167.316 142.203 168.048C142.852 168.334 142.604 168.392 140.839 168.424C137.238 168.477 133.363 169.221 131.476 170.233C129.45 171.335 127.966 173.028 127.674 174.603C127.578 175.112 127.633 175.575 127.901 176.471C128.218 177.529 128.345 177.731 129.15 178.594C130.932 180.445 133.799 181.491 135.642 180.94C136.403 180.712 136.583 180.594 136.911 180.08C137.13 179.759 137.326 179.252 137.358 178.97C137.422 178.519 137.381 178.435 137.137 178.396C136.621 178.279 135.939 177.555 135.746 176.908C135.254 175.263 136.785 173.173 139.134 172.263C140.484 171.73 141.708 171.716 142.819 172.216C143.656 172.574 143.661 172.588 143.922 173.518C144.164 174.438 144.201 175.227 144.116 179.044C144.076 181.073 144.197 181.756 144.651 181.941C145.045 182.095 145.701 181.626 146.771 180.378C147.993 178.973 148.522 177.47 148.322 175.914L148.229 175.27L149.929 176.297L151.63 177.324L152.008 178.587C152.496 180.217 153.524 185.094 153.817 187.183C154.915 194.903 153.895 200.584 150.991 203.133C149.071 204.812 144.651 206.838 142.268 207.135C138.973 207.545 134.502 206.738 129.113 204.751C127.415 204.122 127.289 204.032 126.836 203.352C126.563 202.937 126.275 202.528 126.194 202.424C126.061 202.256 126.137 202.233 126.833 202.232C127.876 202.224 128.587 201.996 129.598 201.325C130.597 200.674 131.459 199.728 132.04 198.675C132.756 197.356 132.138 197.173 128.941 197.745C124.74 198.507 123.405 198.538 122.559 197.927C121.898 197.437 121.421 195.675 121.611 194.37C121.904 192.411 123.398 190.363 124.86 189.926C125.971 189.593 126.682 189.861 127.508 190.958C127.779 191.309 127.829 191.31 128.411 191.04C130.253 190.153 130.468 188.264 128.972 185.816C127.214 182.933 124.345 181.552 122.055 182.493C120.388 183.184 118.659 185.557 118.167 187.848C117.722 189.966 117.742 194.136 118.215 196.826C118.323 197.354 118.355 197.793 118.294 197.811C118.248 197.825 117.965 197.541 117.689 197.176C115.773 194.597 112.013 192.73 107.607 192.144C104.776 191.775 100.712 191.887 98.0838 192.417L97.0678 192.625L98.5217 193.326C100.787 194.408 104.093 195.867 107.502 197.28C114.166 200.038 118.009 201.848 122.812 204.54C125.579 206.08 126.696 206.818 129.078 208.681C136.803 214.707 139.652 217.519 142.003 221.439C143.619 224.124 145.262 228.177 145.669 230.423L145.862 231.566L145.312 231.058C144.993 230.769 144.696 230.554 144.651 230.568C144.605 230.581 144.617 231.122 144.691 231.756C144.807 232.809 144.788 232.911 144.481 232.939C144.305 232.959 143.724 233.069 143.219 233.156L142.279 233.342L142.669 233.593C142.894 233.734 143.378 234.021 143.755 234.228L144.455 234.627L143.783 235.708L143.131 236.799L144.366 236.381L145.617 235.959L145.891 236.597C146.046 236.951 146.283 237.408 146.418 237.639L146.667 238.029L146.974 237.169L147.296 236.305L147.619 237.216C147.788 237.726 148.005 238.285 148.107 238.462L148.28 238.762L211.24 219.925L274.185 201.093L273.844 199.786L273.508 198.495L274.313 199.358C274.778 199.859 275.147 200.149 275.201 200.052C275.256 199.956 275.296 199.48 275.316 198.994C275.336 198.508 275.366 198.051 275.409 197.974C275.437 197.902 275.938 197.8 276.51 197.773C277.093 197.726 277.602 197.654 277.674 197.617C277.742 197.564 277.41 197.232 276.939 196.877C276.452 196.526 276.055 196.197 276.042 196.153C276.033 196.123 276.354 195.643 276.768 195.087L277.501 194.1L276.261 194.391L275.021 194.682L274.694 193.532L274.377 192.363L273.744 193.464L273.112 194.565L272.637 194.419L272.142 194.263L271.192 190.867C270.311 187.755 270.238 187.345 270.199 185.884C270.083 179.951 271.93 171.541 275.471 161.809C277.182 157.105 279.869 152.333 285.328 144.299C288.01 140.345 290.965 135.748 291.5 134.708L291.762 134.198L290.955 134.551C289.383 135.23 286.69 136.707 285.432 137.548C280.669 140.813 278.018 144.262 277.213 148.279C277.049 149.064 276.943 149.816 276.978 149.934C277.013 150.051 276.998 150.168 276.937 150.186C276.861 150.209 276.386 149.343 275.846 148.256C273.827 144.172 271.706 141.574 269.382 140.35C266.176 138.669 263.532 139.316 262.14 142.148C261.259 143.916 261.107 146.57 261.767 148.276C262.337 149.738 263.327 150.386 264.646 150.135L265.353 150.004L265.469 149.281C265.629 148.097 266.015 147.613 267.035 147.308C268.025 147.012 268.793 147.086 269.975 147.597C271.664 148.308 273.184 150.061 273.392 151.535C273.648 153.33 273.122 153.792 268.667 155.701C265.349 157.141 264.816 157.525 265.256 158.161C265.52 158.546 267.178 159.154 268.474 159.326C269.84 159.51 271.356 159.2 272.234 158.586C272.647 158.302 272.825 158.233 272.81 158.349C272.811 158.461 272.791 159.171 272.769 159.93L272.751 161.311L271.517 163.12C267.033 169.646 264.071 172.277 259.762 173.566C255.164 174.942 250.6 173.939 247.2 170.78C243.837 167.69 241.391 163.285 238.25 154.672L237.212 151.815L238.108 149.93L239.005 148.046L239.316 148.753C239.999 150.261 241.936 151.522 244.107 151.848C245.655 152.089 245.82 151.975 245.476 150.878C245.282 150.232 244.806 149.415 243.68 147.816C242.563 146.245 242.021 145.32 241.729 144.511L241.299 143.407L241.713 142.74C242.894 140.754 245.988 139.893 248.428 140.842C250.202 141.56 250.828 142.765 250.151 144.215L249.805 144.943L250.276 145.41C251.641 146.81 254.004 145.895 255.617 143.3C257.633 140.057 257.122 136.577 254.444 135.331C253.362 134.822 251.324 134.552 249.949 134.723C247.823 134.991 244.163 136.566 240.955 138.598L239.812 139.324L240.31 138.327C242.655 133.689 242.121 127.689 238.804 121.593C237.85 119.846 237.026 118.588 236.869 118.619C236.565 118.71 234.254 122.298 233.474 123.907C230.866 129.216 230.291 133.948 231.782 137.822L232.269 139.117L230.556 137.885C229.608 137.209 227.769 136.111 226.459 135.447C223.019 133.708 221.333 133.396 218.721 134.034C217.581 134.327 217.229 134.48 216.735 134.884C215.043 136.27 214.703 139.012 215.911 141.611C217.392 144.784 219.765 145.898 221.505 144.226C221.735 143.997 221.73 143.87 221.513 143.423C220.951 142.263 221.446 140.979 222.704 140.362C225.381 139.05 229.462 140.325 230.189 142.699C230.356 143.258 230.313 143.446 229.832 144.39C229.522 144.963 228.564 146.306 227.683 147.353C226.821 148.411 225.914 149.595 225.693 149.965C224.788 151.484 225.681 151.809 228.441 150.999C230.364 150.439 230.999 150.01 231.809 148.727C232.052 148.318 232.289 148.055 232.306 148.114C232.328 148.188 232.646 148.973 232.999 149.875L233.641 151.523L233.157 152.788C231.446 157.38 228.836 162.465 226.96 164.899C223.461 169.45 220.634 170.76 216.032 169.96C208.823 168.709 201.572 162.382 194.403 151.118C193.043 149.013 190.696 144.883 190.542 144.369C190.463 144.104 190.549 142.895 190.783 141.016L190.86 140.385L191.36 140.892C192.037 141.601 193.739 142.356 194.815 142.402C196.03 142.471 197.62 142.299 198.057 142.04C198.355 141.871 198.385 141.75 198.258 141.324C198.1 140.796 197.491 140.258 194.83 138.35C193.248 137.223 191.799 135.816 191.636 135.273C191.478 134.744 191.661 134.081 192.231 133.159C193.114 131.727 194.687 130.776 196.526 130.546C198.913 130.263 200.558 131.435 200.195 133.16C200.143 133.432 200.183 133.788 200.273 133.921C200.509 134.266 201.86 134.566 202.408 134.402C203.595 134.047 204.811 132.179 205.163 130.138C205.87 126.182 204.034 123.371 200.721 123.386C199.293 123.381 197.359 123.96 195.97 124.808C194.54 125.683 191.83 128.158 190.103 130.147C189.328 131.051 188.671 131.792 188.655 131.796C188.625 131.806 188.657 131.636 188.722 131.409C188.959 130.649 188.972 128.086 188.731 126.67C188.18 123.442 186.185 119.879 183.071 116.57C181.565 114.973 179.448 113.11 179.204 113.183C179.113 113.21 178.826 113.968 178.543 114.853Z" fill="#D8FEF6"/>
</g>
<path d="M178.543 114.853C177.578 118.005 177.094 121.766 177.288 124.797C177.336 125.567 177.574 126.695 177.974 128.032C178.719 130.577 179.115 131.291 181.154 133.673C181.211 133.752 180.338 133.549 179.213 133.229C176.678 132.516 173.851 132.05 171.957 132.04C170.794 132.036 170.224 132.127 169.067 132.473C166.143 133.347 164.672 134.972 164.732 137.226C164.768 138.287 164.902 138.679 165.573 139.87C167.623 143.449 171.524 144.843 172.801 142.46C173.111 141.887 173.111 141.887 172.699 141.451C171.696 140.375 171.854 139.127 173.09 137.99C175.033 136.224 178.396 135.986 180.203 137.478C181.35 138.43 181.268 139.319 179.727 143.428C178.819 145.828 178.696 146.249 178.702 146.935C178.702 147.543 178.983 147.651 179.836 147.396C182.013 146.745 183.88 144.89 184.219 143.028L184.384 142.195L185.734 143.823L187.084 145.451L187.269 147.236C187.518 149.786 187.698 153.38 187.703 156.003C187.729 168.956 184.881 177.456 179.165 181.471C178.189 182.147 177.852 182.296 176.162 182.801C174.502 183.298 174.074 183.362 172.841 183.347C170.943 183.323 168.467 182.864 166.431 182.16C163.492 181.152 158.835 178.673 155.829 176.5L154.662 175.649L154.206 173.625C153.973 172.511 153.787 171.559 153.809 171.52C153.83 171.482 154.022 171.568 154.251 171.724C154.476 171.865 155.138 172.082 155.735 172.192C156.595 172.351 157.057 172.34 158.003 172.121C159.354 171.813 160.715 171.15 161.077 170.642C161.296 170.32 161.29 170.242 161.017 169.94C160.696 169.588 159.192 168.997 156.721 168.281C155.013 167.784 153.44 167.07 152.964 166.589C151.992 165.615 152.586 163.053 154.13 161.615C155.413 160.415 157.016 159.728 158.194 159.839C159.237 159.943 159.721 160.343 160.142 161.417C160.491 162.304 160.548 162.383 161.016 162.451C163.337 162.781 164.621 160.029 163.782 156.504C163.156 153.97 161.774 152.4 159.849 152.064C157.954 151.719 155.28 152.983 153.509 155.049C152.402 156.34 150.704 159.424 149.751 161.838C149.335 162.89 148.977 163.797 148.948 163.87C148.92 163.942 148.598 163.031 148.242 161.841C147.451 159.197 146.869 158.251 144.767 156.048C142.457 153.651 139.282 151.577 135.527 150.06C134.152 149.512 133.72 149.401 133.677 149.59C133.578 150.035 133.772 153.065 134.027 154.861C134.404 157.453 135.64 161.083 136.77 162.921C138.154 165.163 140.424 167.316 142.203 168.048C142.852 168.334 142.604 168.392 140.839 168.424C137.238 168.477 133.363 169.221 131.476 170.233C129.45 171.335 127.966 173.028 127.674 174.603C127.578 175.112 127.633 175.575 127.901 176.471C128.218 177.529 128.345 177.731 129.15 178.594C130.932 180.445 133.799 181.491 135.642 180.94C136.403 180.712 136.583 180.594 136.911 180.08C137.13 179.759 137.326 179.252 137.358 178.97C137.422 178.519 137.381 178.435 137.137 178.396C136.621 178.279 135.939 177.555 135.746 176.908C135.254 175.263 136.785 173.173 139.134 172.263C140.484 171.73 141.708 171.716 142.819 172.216C143.656 172.574 143.661 172.588 143.922 173.518C144.164 174.438 144.201 175.227 144.116 179.044C144.076 181.073 144.197 181.756 144.651 181.941C145.045 182.095 145.701 181.626 146.771 180.378C147.993 178.973 148.522 177.47 148.322 175.914L148.229 175.27L149.929 176.297L151.63 177.324L152.008 178.587C152.496 180.217 153.524 185.094 153.817 187.183C154.915 194.903 153.895 200.584 150.991 203.133C149.071 204.812 144.651 206.838 142.268 207.135C138.973 207.545 134.502 206.738 129.113 204.751C127.415 204.122 127.289 204.032 126.836 203.352C126.563 202.937 126.275 202.528 126.194 202.424C126.061 202.256 126.137 202.233 126.833 202.232C127.876 202.224 128.587 201.996 129.598 201.325C130.597 200.674 131.459 199.728 132.04 198.675C132.756 197.356 132.138 197.173 128.941 197.745C124.74 198.507 123.405 198.538 122.559 197.927C121.898 197.437 121.421 195.675 121.611 194.37C121.904 192.411 123.398 190.363 124.86 189.926C125.971 189.593 126.682 189.861 127.508 190.958C127.779 191.309 127.829 191.31 128.411 191.04C130.253 190.153 130.468 188.264 128.972 185.816C127.214 182.933 124.345 181.552 122.055 182.493C120.388 183.184 118.659 185.557 118.167 187.848C117.722 189.966 117.742 194.136 118.215 196.826C118.323 197.354 118.355 197.793 118.294 197.811C118.248 197.825 117.965 197.541 117.689 197.176C115.773 194.597 112.013 192.73 107.607 192.144C104.776 191.775 100.712 191.887 98.0838 192.417L97.0678 192.625L98.5217 193.326C100.787 194.408 104.093 195.867 107.502 197.28C114.166 200.038 118.009 201.848 122.812 204.54C125.579 206.08 126.696 206.818 129.078 208.681C136.803 214.707 139.652 217.519 142.003 221.439C143.619 224.124 145.262 228.177 145.669 230.423L145.862 231.566L145.312 231.058C144.993 230.769 144.696 230.554 144.651 230.568C144.605 230.581 144.617 231.122 144.691 231.756C144.807 232.809 144.788 232.911 144.481 232.939C144.305 232.959 143.724 233.069 143.219 233.156L142.279 233.342L142.669 233.593C142.894 233.734 143.378 234.021 143.755 234.228L144.455 234.627L143.783 235.708L143.131 236.799L144.366 236.381L145.617 235.959L145.891 236.597C146.046 236.951 146.283 237.408 146.418 237.639L146.667 238.029L146.974 237.169L147.296 236.305L147.619 237.216C147.788 237.726 148.005 238.285 148.107 238.462L148.28 238.762L211.24 219.925L274.185 201.093L273.844 199.786L273.508 198.495L274.313 199.358C274.778 199.859 275.147 200.149 275.201 200.052C275.256 199.956 275.296 199.48 275.316 198.994C275.336 198.508 275.366 198.051 275.409 197.974C275.437 197.902 275.938 197.8 276.51 197.773C277.093 197.726 277.602 197.654 277.674 197.617C277.742 197.564 277.41 197.232 276.939 196.877C276.452 196.526 276.055 196.197 276.042 196.153C276.033 196.123 276.354 195.643 276.768 195.087L277.501 194.1L276.261 194.391L275.021 194.682L274.694 193.532L274.377 192.363L273.744 193.464L273.112 194.565L272.637 194.419L272.142 194.263L271.192 190.867C270.311 187.755 270.238 187.345 270.199 185.884C270.083 179.951 271.93 171.541 275.471 161.809C277.182 157.105 279.869 152.333 285.328 144.299C288.01 140.345 290.965 135.748 291.5 134.708L291.762 134.198L290.955 134.551C289.383 135.23 286.69 136.707 285.432 137.548C280.669 140.813 278.018 144.262 277.213 148.279C277.049 149.064 276.943 149.816 276.978 149.934C277.013 150.051 276.998 150.168 276.937 150.186C276.861 150.209 276.386 149.343 275.846 148.256C273.827 144.172 271.706 141.574 269.382 140.35C266.176 138.669 263.532 139.316 262.14 142.148C261.259 143.916 261.107 146.57 261.767 148.276C262.337 149.738 263.327 150.386 264.646 150.135L265.353 150.004L265.469 149.281C265.629 148.097 266.015 147.613 267.035 147.308C268.025 147.012 268.793 147.086 269.975 147.597C271.664 148.308 273.184 150.061 273.392 151.535C273.648 153.33 273.122 153.792 268.667 155.701C265.349 157.141 264.816 157.525 265.256 158.161C265.52 158.546 267.178 159.154 268.474 159.326C269.84 159.51 271.356 159.2 272.234 158.586C272.647 158.302 272.825 158.233 272.81 158.349C272.811 158.461 272.791 159.171 272.769 159.93L272.751 161.311L271.517 163.12C267.033 169.646 264.071 172.277 259.762 173.566C255.164 174.942 250.6 173.939 247.2 170.78C243.837 167.69 241.391 163.285 238.25 154.672L237.212 151.815L238.108 149.93L239.005 148.046L239.316 148.753C239.999 150.261 241.936 151.522 244.107 151.848C245.655 152.089 245.82 151.975 245.476 150.878C245.282 150.232 244.806 149.415 243.68 147.816C242.563 146.245 242.021 145.32 241.729 144.511L241.299 143.407L241.713 142.74C242.894 140.754 245.988 139.893 248.428 140.842C250.202 141.56 250.828 142.765 250.151 144.215L249.805 144.943L250.276 145.41C251.641 146.81 254.004 145.895 255.617 143.3C257.633 140.057 257.122 136.577 254.444 135.331C253.362 134.822 251.324 134.552 249.949 134.723C247.823 134.991 244.163 136.566 240.955 138.598L239.812 139.324L240.31 138.327C242.655 133.689 242.121 127.689 238.804 121.593C237.85 119.846 237.026 118.588 236.869 118.619C236.565 118.71 234.254 122.298 233.474 123.907C230.866 129.216 230.291 133.948 231.782 137.822L232.269 139.117L230.556 137.885C229.608 137.209 227.769 136.111 226.459 135.447C223.019 133.708 221.333 133.396 218.721 134.034C217.581 134.327 217.229 134.48 216.735 134.884C215.043 136.27 214.703 139.012 215.911 141.611C217.392 144.784 219.765 145.898 221.505 144.226C221.735 143.997 221.73 143.87 221.513 143.423C220.951 142.263 221.446 140.979 222.704 140.362C225.381 139.05 229.462 140.325 230.189 142.699C230.356 143.258 230.313 143.446 229.832 144.39C229.522 144.963 228.564 146.306 227.683 147.353C226.821 148.411 225.914 149.595 225.693 149.965C224.788 151.484 225.681 151.809 228.441 150.999C230.364 150.439 230.999 150.01 231.809 148.727C232.052 148.318 232.289 148.055 232.306 148.114C232.328 148.188 232.646 148.973 232.999 149.875L233.641 151.523L233.157 152.788C231.446 157.38 228.836 162.465 226.96 164.899C223.461 169.45 220.634 170.76 216.032 169.96C208.823 168.709 201.572 162.382 194.403 151.118C193.043 149.013 190.696 144.883 190.542 144.369C190.463 144.104 190.549 142.895 190.783 141.016L190.86 140.385L191.36 140.892C192.037 141.601 193.739 142.356 194.815 142.402C196.03 142.471 197.62 142.299 198.057 142.04C198.355 141.871 198.385 141.75 198.258 141.324C198.1 140.796 197.491 140.258 194.83 138.35C193.248 137.223 191.799 135.816 191.636 135.273C191.478 134.744 191.661 134.081 192.231 133.159C193.114 131.727 194.687 130.776 196.526 130.546C198.913 130.263 200.558 131.435 200.195 133.16C200.143 133.432 200.183 133.788 200.273 133.921C200.509 134.266 201.86 134.566 202.408 134.402C203.595 134.047 204.811 132.179 205.163 130.138C205.87 126.182 204.034 123.371 200.721 123.386C199.293 123.381 197.359 123.96 195.97 124.808C194.54 125.683 191.83 128.158 190.103 130.147C189.328 131.051 188.671 131.792 188.655 131.796C188.625 131.806 188.657 131.636 188.722 131.409C188.959 130.649 188.972 128.086 188.731 126.67C188.18 123.442 186.185 119.879 183.071 116.57C181.565 114.973 179.448 113.11 179.204 113.183C179.113 113.21 178.826 113.968 178.543 114.853Z" fill="#D8FEF6"/>
<g filter="url(#filter5_df_1207_163)">
<path d="M700 640L707.309 672.355L735.355 654.645L717.645 682.691L750 690L717.645 697.309L735.355 725.355L707.309 707.645L700 740L692.691 707.645L664.645 725.355L682.355 697.309L650 690L682.355 682.691L664.645 654.645L692.691 672.355L700 640Z" fill="#DBFFF8"/>
</g>
<g filter="url(#filter6_f_1207_163)">
<path d="M700 640L707.309 672.355L735.355 654.645L717.645 682.691L750 690L717.645 697.309L735.355 725.355L707.309 707.645L700 740L692.691 707.645L664.645 725.355L682.355 697.309L650 690L682.355 682.691L664.645 654.645L692.691 672.355L700 640Z" fill="#DBFFF8"/>
</g>
<g filter="url(#filter7_df_1207_163)">
<path d="M700 640L707.309 672.355L735.355 654.645L717.645 682.691L750 690L717.645 697.309L735.355 725.355L707.309 707.645L700 740L692.691 707.645L664.645 725.355L682.355 697.309L650 690L682.355 682.691L664.645 654.645L692.691 672.355L700 640Z" fill="#DBFFF8"/>
</g>
<g filter="url(#filter8_f_1207_163)">
<path d="M700 640L707.309 672.355L735.355 654.645L717.645 682.691L750 690L717.645 697.309L735.355 725.355L707.309 707.645L700 740L692.691 707.645L664.645 725.355L682.355 697.309L650 690L682.355 682.691L664.645 654.645L692.691 672.355L700 640Z" fill="#DBFFF8"/>
</g>
<defs>
<filter id="filter0_df_1207_163" x="34.4648" y="0.210938" width="1023.91" height="1154.3" filterUnits="userSpaceOnUse" color-interpolation-filters="sRGB">
<feFlood flood-opacity="0" result="BackgroundImageFix"/>
<feColorMatrix in="SourceAlpha" type="matrix" values="0 0 0 0 0 0 0 0 0 0 0 0 0 0 0 0 0 0 127 0" result="hardAlpha"/>
<feOffset/>
<feGaussianBlur stdDeviation="70"/>
<feComposite in2="hardAlpha" operator="out"/>
<feColorMatrix type="matrix" values="0 0 0 0 0.388235 0 0 0 0 0.811765 0 0 0 0 0.760784 0 0 0 1 0"/>
<feBlend mode="normal" in2="BackgroundImageFix" result="effect1_dropShadow_1207_163"/>
<feBlend mode="normal" in="SourceGraphic" in2="effect1_dropShadow_1207_163" result="shape"/>
<feGaussianBlur stdDeviation="20" result="effect2_foregroundBlur_1207_163"/>
</filter>
<filter id="filter1_df_1207_163" x="0" y="332" width="164" height="164" filterUnits="userSpaceOnUse" color-interpolation-filters="sRGB">
<feFlood flood-opacity="0" result="BackgroundImageFix"/>
<feColorMatrix in="SourceAlpha" type="matrix" values="0 0 0 0 0 0 0 0 0 0 0 0 0 0 0 0 0 0 127 0" result="hardAlpha"/>
<feOffset/>
<feGaussianBlur stdDeviation="16"/>
<feComposite in2="hardAlpha" operator="out"/>
<feColorMatrix type="matrix" values="0 0 0 0 0.388235 0 0 0 0 0.811765 0 0 0 0 0.760784 0 0 0 1 0"/>
<feBlend mode="normal" in2="BackgroundImageFix" result="effect1_dropShadow_1207_163"/>
<feBlend mode="normal" in="SourceGraphic" in2="effect1_dropShadow_1207_163" result="shape"/>
<feGaussianBlur stdDeviation="5" result="effect2_foregroundBlur_1207_163"/>
</filter>
<filter id="filter2_f_1207_163" x="30" y="362" width="104" height="104" filterUnits="userSpaceOnUse" color-interpolation-filters="sRGB">
<feFlood flood-opacity="0" result="BackgroundImageFix"/>
<feBlend mode="normal" in="SourceGraphic" in2="BackgroundImageFix" result="shape"/>
<feGaussianBlur stdDeviation="1" result="effect1_foregroundBlur_1207_163"/>
</filter>
<filter id="filter3_df_1207_163" x="34.4648" y="0.210938" width="1023.91" height="1154.3" filterUnits="userSpaceOnUse" color-interpolation-filters="sRGB">
<feFlood flood-opacity="0" result="BackgroundImageFix"/>
<feColorMatrix in="SourceAlpha" type="matrix" values="0 0 0 0 0 0 0 0 0 0 0 0 0 0 0 0 0 0 127 0" result="hardAlpha"/>
<feOffset/>
<feGaussianBlur stdDeviation="70"/>
<feComposite in2="hardAlpha" operator="out"/>
<feColorMatrix type="matrix" values="0 0 0 0 0.388235 0 0 0 0 0.811765 0 0 0 0 0.760784 0 0 0 1 0"/>
<feBlend mode="normal" in2="BackgroundImageFix" result="effect1_dropShadow_1207_163"/>
<feBlend mode="normal" in="SourceGraphic" in2="effect1_dropShadow_1207_163" result="shape"/>
<feGaussianBlur stdDeviation="20" result="effect2_foregroundBlur_1207_163"/>
</filter>
<filter id="filter4_df_1207_163" x="65.0679" y="81.1807" width="258.694" height="189.582" filterUnits="userSpaceOnUse" color-interpolation-filters="sRGB">
<feFlood flood-opacity="0" result="BackgroundImageFix"/>
<feColorMatrix in="SourceAlpha" type="matrix" values="0 0 0 0 0 0 0 0 0 0 0 0 0 0 0 0 0 0 127 0" result="hardAlpha"/>
<feOffset/>
<feGaussianBlur stdDeviation="16"/>
<feComposite in2="hardAlpha" operator="out"/>
<feColorMatrix type="matrix" values="0 0 0 0 0.388235 0 0 0 0 0.811765 0 0 0 0 0.760784 0 0 0 1 0"/>
<feBlend mode="normal" in2="BackgroundImageFix" result="effect1_dropShadow_1207_163"/>
<feBlend mode="normal" in="SourceGraphic" in2="effect1_dropShadow_1207_163" result="shape"/>
<feGaussianBlur stdDeviation="10" result="effect2_foregroundBlur_1207_163"/>
</filter>
<filter id="filter5_df_1207_163" x="618" y="608" width="164" height="164" filterUnits="userSpaceOnUse" color-interpolation-filters="sRGB">
<feFlood flood-opacity="0" result="BackgroundImageFix"/>
<feColorMatrix in="SourceAlpha" type="matrix" values="0 0 0 0 0 0 0 0 0 0 0 0 0 0 0 0 0 0 127 0" result="hardAlpha"/>
<feOffset/>
<feGaussianBlur stdDeviation="16"/>
<feComposite in2="hardAlpha" operator="out"/>
<feColorMatrix type="matrix" values="0 0 0 0 0.388235 0 0 0 0 0.811765 0 0 0 0 0.760784 0 0 0 1 0"/>
<feBlend mode="normal" in2="BackgroundImageFix" result="effect1_dropShadow_1207_163"/>
<feBlend mode="normal" in="SourceGraphic" in2="effect1_dropShadow_1207_163" result="shape"/>
<feGaussianBlur stdDeviation="5" result="effect2_foregroundBlur_1207_163"/>
</filter>
<filter id="filter6_f_1207_163" x="648" y="638" width="104" height="104" filterUnits="userSpaceOnUse" color-interpolation-filters="sRGB">
<feFlood flood-opacity="0" result="BackgroundImageFix"/>
<feBlend mode="normal" in="SourceGraphic" in2="BackgroundImageFix" result="shape"/>
<feGaussianBlur stdDeviation="1" result="effect1_foregroundBlur_1207_163"/>
</filter>
<filter id="filter7_df_1207_163" x="618" y="608" width="164" height="164" filterUnits="userSpaceOnUse" color-interpolation-filters="sRGB">
<feFlood flood-opacity="0" result="BackgroundImageFix"/>
<feColorMatrix in="SourceAlpha" type="matrix" values="0 0 0 0 0 0 0 0 0 0 0 0 0 0 0 0 0 0 127 0" result="hardAlpha"/>
<feOffset/>
<feGaussianBlur stdDeviation="16"/>
<feComposite in2="hardAlpha" operator="out"/>
<feColorMatrix type="matrix" values="0 0 0 0 0.388235 0 0 0 0 0.811765 0 0 0 0 0.760784 0 0 0 1 0"/>
<feBlend mode="normal" in2="BackgroundImageFix" result="effect1_dropShadow_1207_163"/>
<feBlend mode="normal" in="SourceGraphic" in2="effect1_dropShadow_1207_163" result="shape"/>
<feGaussianBlur stdDeviation="5" result="effect2_foregroundBlur_1207_163"/>
</filter>
<filter id="filter8_f_1207_163" x="648" y="638" width="104" height="104" filterUnits="userSpaceOnUse" color-interpolation-filters="sRGB">
<feFlood flood-opacity="0" result="BackgroundImageFix"/>
<feBlend mode="normal" in="SourceGraphic" in2="BackgroundImageFix" result="shape"/>
<feGaussianBlur stdDeviation="1" result="effect1_foregroundBlur_1207_163"/>
</filter>
</defs>
</svg>
