<svg width="1729" height="630" viewBox="0 0 1729 630" fill="none" xmlns="http://www.w3.org/2000/svg">
<path d="M323.078 243.422C339.602 243.422 348.742 257.836 348.742 278.93C348.742 304.242 331.867 337.289 320.969 349.594L320.617 349.242C321.672 337.992 316.047 329.555 306.906 329.555C294.25 329.555 276.672 343.266 274.211 379.828V380.531H273.859C273.859 383.344 273.859 386.508 273.859 390.023L274.211 427.289C274.914 469.477 284.055 483.891 304.797 485.297V486C289.68 485.648 256.984 484.242 241.516 484.242C223.234 484.242 205.656 485.648 193.703 486V485.297C207.062 481.078 213.039 466.312 212.688 427.289L211.984 301.43C211.633 281.039 209.172 269.438 197.57 269.438C196.164 269.438 194.758 269.789 193.352 269.789V268.383C208.117 265.57 256.633 252.914 266.828 246.586L269.992 247.992L272.102 367.523H272.805C276.672 303.891 293.547 243.422 323.078 243.422ZM417.648 489.516C380.031 489.516 347.336 461.391 347.336 394.594C347.336 319.359 386.008 246.938 441.555 246.938C465.812 246.938 481.633 268.031 481.633 295.102C481.633 319.359 473.195 341.508 458.078 356.273C448.938 365.062 440.852 370.336 427.141 370.336H409.914C406.398 370.336 405.695 373.148 406.398 378.422C410.969 428.695 425.734 464.555 448.586 464.555C461.594 464.555 477.062 455.062 484.094 415.688L485.5 416.391C476.359 472.289 456.32 489.516 417.648 489.516ZM407.102 368.227C434.172 368.227 439.445 362.25 439.445 349.242C439.445 315.844 431.359 254.32 417.297 254.32C407.805 254.32 404.641 301.078 404.641 337.641C404.641 348.539 404.992 358.734 405.344 366.469C405.344 367.523 406.047 368.227 407.102 368.227ZM536.477 243.422C510.109 243.422 495.695 229.008 495.695 202.992C495.695 176.625 510.109 162.211 536.477 162.211C562.492 162.211 577.258 176.625 577.258 202.992C577.258 229.008 562.492 243.422 536.477 243.422ZM489.719 486V485.297C499.562 481.078 509.406 473.695 508.352 425.18V307.055C508 281.391 499.562 272.25 490.07 270.492V269.789C507.297 266.977 554.055 254.32 564.25 248.344L569.875 249.75V425.18C570.578 466.664 580.422 481.078 589.562 485.297V486C571.984 485.648 560.383 484.242 542.102 484.242C518.195 484.242 502.727 485.648 489.719 486ZM591.32 486V485.297C600.812 481.078 610.305 473.695 609.602 425.18L609.25 307.055C608.547 281.391 601.867 272.25 591.32 270.492V269.789C611.008 266.977 652.141 254.32 662.336 248.344L667.961 249.75L669.016 286.664C683.078 265.57 700.305 246.586 726.32 246.586C747.414 246.586 772.375 257.484 772.375 295.805V425.18C772.375 464.906 779.758 481.078 792.062 485.297V486C779.758 485.648 761.125 484.242 738.977 484.242C716.477 484.242 705.227 485.648 693.273 486V485.297C704.172 483.188 710.852 473.695 710.852 425.18V300.375C710.852 282.797 708.039 270.492 696.086 270.492C686.594 270.492 678.508 277.172 670.422 287.719L670.773 425.18C671.125 474.398 678.156 483.188 689.055 485.297V486C673.234 485.648 655.305 484.242 637.023 484.242C613.469 484.242 603.977 485.648 591.32 486ZM869.406 489.516C831.789 489.516 799.094 461.391 799.094 394.594C799.094 319.359 837.766 246.938 893.312 246.938C917.57 246.938 933.391 268.031 933.391 295.102C933.391 319.359 924.953 341.508 909.836 356.273C900.695 365.062 892.609 370.336 878.898 370.336H861.672C858.156 370.336 857.453 373.148 858.156 378.422C862.727 428.695 877.492 464.555 900.344 464.555C913.352 464.555 928.82 455.062 935.852 415.688L937.258 416.391C928.117 472.289 908.078 489.516 869.406 489.516ZM858.859 368.227C885.93 368.227 891.203 362.25 891.203 349.242C891.203 315.844 883.117 254.32 869.055 254.32C859.562 254.32 856.398 301.078 856.398 337.641C856.398 348.539 856.75 358.734 857.102 366.469C857.102 367.523 857.805 368.227 858.859 368.227ZM1189.33 141.469V425.531C1189.33 463.5 1194.25 482.484 1209.37 485.648V486.352C1197.77 486 1154.52 485.648 1132.73 485.648C1131.67 478.617 1130.27 463.148 1129.56 446.273C1128.16 449.438 1126.4 452.602 1124.64 456.117C1117.96 469.828 1107.77 488.812 1080.7 488.812C1049.41 488.812 1021.28 463.852 1021.28 390.727C1021.28 311.273 1052.22 247.641 1094.41 247.641C1103.55 247.641 1116.55 249.75 1128.16 253.969V201.586C1128.16 168.891 1120.77 153.773 1102.49 154.828V154.125C1124.99 152.016 1175.97 146.039 1186.16 140.062L1189.33 141.469ZM1122.88 456.469C1128.51 450.141 1127.8 429.047 1128.16 402.68V319.711C1124.29 273.305 1100.73 250.453 1088.43 250.453C1084.21 250.453 1081.05 253.969 1078.94 260.648C1075.77 269.789 1074.72 285.258 1074.72 304.242C1074.72 402.68 1094.41 459.633 1114.45 459.633C1117.96 459.633 1120.77 458.578 1122.88 456.469ZM1286.71 489.516C1249.09 489.516 1216.4 461.391 1216.4 394.594C1216.4 319.359 1255.07 246.938 1310.62 246.938C1334.88 246.938 1350.7 268.031 1350.7 295.102C1350.7 319.359 1342.26 341.508 1327.14 356.273C1318 365.062 1309.91 370.336 1296.2 370.336H1278.98C1275.46 370.336 1274.76 373.148 1275.46 378.422C1280.03 428.695 1294.8 464.555 1317.65 464.555C1330.66 464.555 1346.12 455.062 1353.16 415.688L1354.56 416.391C1345.42 472.289 1325.38 489.516 1286.71 489.516ZM1276.16 368.227C1303.23 368.227 1308.51 362.25 1308.51 349.242C1308.51 315.844 1300.42 254.32 1286.36 254.32C1276.87 254.32 1273.7 301.078 1273.7 337.641C1273.7 348.539 1274.05 358.734 1274.41 366.469C1274.41 367.523 1275.11 368.227 1276.16 368.227ZM1470.23 485.648L1440.7 486.703L1440.34 483.891L1388.66 298.266C1380.23 268.031 1375.3 262.406 1358.08 253.969V253.266C1367.22 253.266 1377.77 254.672 1404.48 254.672C1442.1 254.672 1457.92 253.617 1471.63 253.266V253.969C1458.98 255.727 1450.89 263.109 1450.89 278.578C1450.89 283.852 1451.59 290.531 1454.05 297.914L1485.34 408.656L1488.86 393.891C1495.89 365.766 1498.35 341.859 1498.35 321.82C1498.35 279.633 1486.4 256.078 1476.55 253.617V252.914C1487.45 253.266 1507.49 254.672 1518.04 254.672C1530.34 254.672 1544.41 253.266 1551.09 252.914V253.617C1530.34 271.547 1508.9 319.359 1492.38 390.375L1470.23 485.648ZM1557.41 489.164C1537.38 489.164 1525.77 477.914 1525.77 458.227C1525.77 438.188 1537.38 426.938 1557.41 426.938C1577.1 426.938 1588.35 438.188 1588.35 458.227C1588.35 477.914 1577.1 489.164 1557.41 489.164Z" fill="#DBFFF8"/>
<g filter="url(#filter0_df_1207_179)">
<path d="M323.078 243.422C339.602 243.422 348.742 257.836 348.742 278.93C348.742 304.242 331.867 337.289 320.969 349.594L320.617 349.242C321.672 337.992 316.047 329.555 306.906 329.555C294.25 329.555 276.672 343.266 274.211 379.828V380.531H273.859C273.859 383.344 273.859 386.508 273.859 390.023L274.211 427.289C274.914 469.477 284.055 483.891 304.797 485.297V486C289.68 485.648 256.984 484.242 241.516 484.242C223.234 484.242 205.656 485.648 193.703 486V485.297C207.062 481.078 213.039 466.312 212.688 427.289L211.984 301.43C211.633 281.039 209.172 269.438 197.57 269.438C196.164 269.438 194.758 269.789 193.352 269.789V268.383C208.117 265.57 256.633 252.914 266.828 246.586L269.992 247.992L272.102 367.523H272.805C276.672 303.891 293.547 243.422 323.078 243.422ZM417.648 489.516C380.031 489.516 347.336 461.391 347.336 394.594C347.336 319.359 386.008 246.938 441.555 246.938C465.812 246.938 481.633 268.031 481.633 295.102C481.633 319.359 473.195 341.508 458.078 356.273C448.938 365.062 440.852 370.336 427.141 370.336H409.914C406.398 370.336 405.695 373.148 406.398 378.422C410.969 428.695 425.734 464.555 448.586 464.555C461.594 464.555 477.062 455.062 484.094 415.688L485.5 416.391C476.359 472.289 456.32 489.516 417.648 489.516ZM407.102 368.227C434.172 368.227 439.445 362.25 439.445 349.242C439.445 315.844 431.359 254.32 417.297 254.32C407.805 254.32 404.641 301.078 404.641 337.641C404.641 348.539 404.992 358.734 405.344 366.469C405.344 367.523 406.047 368.227 407.102 368.227ZM536.477 243.422C510.109 243.422 495.695 229.008 495.695 202.992C495.695 176.625 510.109 162.211 536.477 162.211C562.492 162.211 577.258 176.625 577.258 202.992C577.258 229.008 562.492 243.422 536.477 243.422ZM489.719 486V485.297C499.562 481.078 509.406 473.695 508.352 425.18V307.055C508 281.391 499.562 272.25 490.07 270.492V269.789C507.297 266.977 554.055 254.32 564.25 248.344L569.875 249.75V425.18C570.578 466.664 580.422 481.078 589.562 485.297V486C571.984 485.648 560.383 484.242 542.102 484.242C518.195 484.242 502.727 485.648 489.719 486ZM591.32 486V485.297C600.812 481.078 610.305 473.695 609.602 425.18L609.25 307.055C608.547 281.391 601.867 272.25 591.32 270.492V269.789C611.008 266.977 652.141 254.32 662.336 248.344L667.961 249.75L669.016 286.664C683.078 265.57 700.305 246.586 726.32 246.586C747.414 246.586 772.375 257.484 772.375 295.805V425.18C772.375 464.906 779.758 481.078 792.062 485.297V486C779.758 485.648 761.125 484.242 738.977 484.242C716.477 484.242 705.227 485.648 693.273 486V485.297C704.172 483.188 710.852 473.695 710.852 425.18V300.375C710.852 282.797 708.039 270.492 696.086 270.492C686.594 270.492 678.508 277.172 670.422 287.719L670.773 425.18C671.125 474.398 678.156 483.188 689.055 485.297V486C673.234 485.648 655.305 484.242 637.023 484.242C613.469 484.242 603.977 485.648 591.32 486ZM869.406 489.516C831.789 489.516 799.094 461.391 799.094 394.594C799.094 319.359 837.766 246.938 893.312 246.938C917.57 246.938 933.391 268.031 933.391 295.102C933.391 319.359 924.953 341.508 909.836 356.273C900.695 365.062 892.609 370.336 878.898 370.336H861.672C858.156 370.336 857.453 373.148 858.156 378.422C862.727 428.695 877.492 464.555 900.344 464.555C913.352 464.555 928.82 455.062 935.852 415.688L937.258 416.391C928.117 472.289 908.078 489.516 869.406 489.516ZM858.859 368.227C885.93 368.227 891.203 362.25 891.203 349.242C891.203 315.844 883.117 254.32 869.055 254.32C859.562 254.32 856.398 301.078 856.398 337.641C856.398 348.539 856.75 358.734 857.102 366.469C857.102 367.523 857.805 368.227 858.859 368.227ZM1189.33 141.469V425.531C1189.33 463.5 1194.25 482.484 1209.37 485.648V486.352C1197.77 486 1154.52 485.648 1132.73 485.648C1131.67 478.617 1130.27 463.148 1129.56 446.273C1128.16 449.438 1126.4 452.602 1124.64 456.117C1117.96 469.828 1107.77 488.812 1080.7 488.812C1049.41 488.812 1021.28 463.852 1021.28 390.727C1021.28 311.273 1052.22 247.641 1094.41 247.641C1103.55 247.641 1116.55 249.75 1128.16 253.969V201.586C1128.16 168.891 1120.77 153.773 1102.49 154.828V154.125C1124.99 152.016 1175.97 146.039 1186.16 140.062L1189.33 141.469ZM1122.88 456.469C1128.51 450.141 1127.8 429.047 1128.16 402.68V319.711C1124.29 273.305 1100.73 250.453 1088.43 250.453C1084.21 250.453 1081.05 253.969 1078.94 260.648C1075.77 269.789 1074.72 285.258 1074.72 304.242C1074.72 402.68 1094.41 459.633 1114.45 459.633C1117.96 459.633 1120.77 458.578 1122.88 456.469ZM1286.71 489.516C1249.09 489.516 1216.4 461.391 1216.4 394.594C1216.4 319.359 1255.07 246.938 1310.62 246.938C1334.88 246.938 1350.7 268.031 1350.7 295.102C1350.7 319.359 1342.26 341.508 1327.14 356.273C1318 365.062 1309.91 370.336 1296.2 370.336H1278.98C1275.46 370.336 1274.76 373.148 1275.46 378.422C1280.03 428.695 1294.8 464.555 1317.65 464.555C1330.66 464.555 1346.12 455.062 1353.16 415.688L1354.56 416.391C1345.42 472.289 1325.38 489.516 1286.71 489.516ZM1276.16 368.227C1303.23 368.227 1308.51 362.25 1308.51 349.242C1308.51 315.844 1300.42 254.32 1286.36 254.32C1276.87 254.32 1273.7 301.078 1273.7 337.641C1273.7 348.539 1274.05 358.734 1274.41 366.469C1274.41 367.523 1275.11 368.227 1276.16 368.227ZM1470.23 485.648L1440.7 486.703L1440.34 483.891L1388.66 298.266C1380.23 268.031 1375.3 262.406 1358.08 253.969V253.266C1367.22 253.266 1377.77 254.672 1404.48 254.672C1442.1 254.672 1457.92 253.617 1471.63 253.266V253.969C1458.98 255.727 1450.89 263.109 1450.89 278.578C1450.89 283.852 1451.59 290.531 1454.05 297.914L1485.34 408.656L1488.86 393.891C1495.89 365.766 1498.35 341.859 1498.35 321.82C1498.35 279.633 1486.4 256.078 1476.55 253.617V252.914C1487.45 253.266 1507.49 254.672 1518.04 254.672C1530.34 254.672 1544.41 253.266 1551.09 252.914V253.617C1530.34 271.547 1508.9 319.359 1492.38 390.375L1470.23 485.648ZM1557.41 489.164C1537.38 489.164 1525.77 477.914 1525.77 458.227C1525.77 438.188 1537.38 426.938 1557.41 426.938C1577.1 426.938 1588.35 438.188 1588.35 458.227C1588.35 477.914 1577.1 489.164 1557.41 489.164Z" fill="#DBFFF8"/>
</g>
<g filter="url(#filter1_df_1207_179)">
<path d="M1443 114L1450.31 146.355L1478.36 128.645L1460.64 156.691L1493 164L1460.64 171.309L1478.36 199.355L1450.31 181.645L1443 214L1435.69 181.645L1407.64 199.355L1425.36 171.309L1393 164L1425.36 156.691L1407.64 128.645L1435.69 146.355L1443 114Z" fill="#DBFFF8"/>
</g>
<g filter="url(#filter2_f_1207_179)">
<path d="M1443 114L1450.31 146.355L1478.36 128.645L1460.64 156.691L1493 164L1460.64 171.309L1478.36 199.355L1450.31 181.645L1443 214L1435.69 181.645L1407.64 199.355L1425.36 171.309L1393 164L1425.36 156.691L1407.64 128.645L1435.69 146.355L1443 114Z" fill="#DBFFF8"/>
</g>
<g filter="url(#filter3_df_1207_179)">
<path d="M82 367L89.3086 399.355L117.355 381.645L99.6445 409.691L132 417L99.6445 424.309L117.355 452.355L89.3086 434.645L82 467L74.6914 434.645L46.6447 452.355L64.3555 424.309L32 417L64.3555 409.691L46.6447 381.645L74.6914 399.355L82 367Z" fill="#DBFFF8"/>
</g>
<g filter="url(#filter4_f_1207_179)">
<path d="M82 367L89.3086 399.355L117.355 381.645L99.6445 409.691L132 417L99.6445 424.309L117.355 452.355L89.3086 434.645L82 467L74.6914 434.645L46.6447 452.355L64.3555 424.309L32 417L64.3555 409.691L46.6447 381.645L74.6914 399.355L82 367Z" fill="#DBFFF8"/>
</g>
<g filter="url(#filter5_df_1207_179)">
<path d="M323.078 243.422C339.602 243.422 348.742 257.836 348.742 278.93C348.742 304.242 331.867 337.289 320.969 349.594L320.617 349.242C321.672 337.992 316.047 329.555 306.906 329.555C294.25 329.555 276.672 343.266 274.211 379.828V380.531H273.859C273.859 383.344 273.859 386.508 273.859 390.023L274.211 427.289C274.914 469.477 284.055 483.891 304.797 485.297V486C289.68 485.648 256.984 484.242 241.516 484.242C223.234 484.242 205.656 485.648 193.703 486V485.297C207.062 481.078 213.039 466.312 212.688 427.289L211.984 301.43C211.633 281.039 209.172 269.438 197.57 269.438C196.164 269.438 194.758 269.789 193.352 269.789V268.383C208.117 265.57 256.633 252.914 266.828 246.586L269.992 247.992L272.102 367.523H272.805C276.672 303.891 293.547 243.422 323.078 243.422ZM417.648 489.516C380.031 489.516 347.336 461.391 347.336 394.594C347.336 319.359 386.008 246.938 441.555 246.938C465.812 246.938 481.633 268.031 481.633 295.102C481.633 319.359 473.195 341.508 458.078 356.273C448.938 365.062 440.852 370.336 427.141 370.336H409.914C406.398 370.336 405.695 373.148 406.398 378.422C410.969 428.695 425.734 464.555 448.586 464.555C461.594 464.555 477.062 455.062 484.094 415.688L485.5 416.391C476.359 472.289 456.32 489.516 417.648 489.516ZM407.102 368.227C434.172 368.227 439.445 362.25 439.445 349.242C439.445 315.844 431.359 254.32 417.297 254.32C407.805 254.32 404.641 301.078 404.641 337.641C404.641 348.539 404.992 358.734 405.344 366.469C405.344 367.523 406.047 368.227 407.102 368.227ZM536.477 243.422C510.109 243.422 495.695 229.008 495.695 202.992C495.695 176.625 510.109 162.211 536.477 162.211C562.492 162.211 577.258 176.625 577.258 202.992C577.258 229.008 562.492 243.422 536.477 243.422ZM489.719 486V485.297C499.562 481.078 509.406 473.695 508.352 425.18V307.055C508 281.391 499.562 272.25 490.07 270.492V269.789C507.297 266.977 554.055 254.32 564.25 248.344L569.875 249.75V425.18C570.578 466.664 580.422 481.078 589.562 485.297V486C571.984 485.648 560.383 484.242 542.102 484.242C518.195 484.242 502.727 485.648 489.719 486ZM591.32 486V485.297C600.812 481.078 610.305 473.695 609.602 425.18L609.25 307.055C608.547 281.391 601.867 272.25 591.32 270.492V269.789C611.008 266.977 652.141 254.32 662.336 248.344L667.961 249.75L669.016 286.664C683.078 265.57 700.305 246.586 726.32 246.586C747.414 246.586 772.375 257.484 772.375 295.805V425.18C772.375 464.906 779.758 481.078 792.062 485.297V486C779.758 485.648 761.125 484.242 738.977 484.242C716.477 484.242 705.227 485.648 693.273 486V485.297C704.172 483.188 710.852 473.695 710.852 425.18V300.375C710.852 282.797 708.039 270.492 696.086 270.492C686.594 270.492 678.508 277.172 670.422 287.719L670.773 425.18C671.125 474.398 678.156 483.188 689.055 485.297V486C673.234 485.648 655.305 484.242 637.023 484.242C613.469 484.242 603.977 485.648 591.32 486ZM869.406 489.516C831.789 489.516 799.094 461.391 799.094 394.594C799.094 319.359 837.766 246.938 893.312 246.938C917.57 246.938 933.391 268.031 933.391 295.102C933.391 319.359 924.953 341.508 909.836 356.273C900.695 365.062 892.609 370.336 878.898 370.336H861.672C858.156 370.336 857.453 373.148 858.156 378.422C862.727 428.695 877.492 464.555 900.344 464.555C913.352 464.555 928.82 455.062 935.852 415.688L937.258 416.391C928.117 472.289 908.078 489.516 869.406 489.516ZM858.859 368.227C885.93 368.227 891.203 362.25 891.203 349.242C891.203 315.844 883.117 254.32 869.055 254.32C859.562 254.32 856.398 301.078 856.398 337.641C856.398 348.539 856.75 358.734 857.102 366.469C857.102 367.523 857.805 368.227 858.859 368.227ZM1189.33 141.469V425.531C1189.33 463.5 1194.25 482.484 1209.37 485.648V486.352C1197.77 486 1154.52 485.648 1132.73 485.648C1131.67 478.617 1130.27 463.148 1129.56 446.273C1128.16 449.438 1126.4 452.602 1124.64 456.117C1117.96 469.828 1107.77 488.812 1080.7 488.812C1049.41 488.812 1021.28 463.852 1021.28 390.727C1021.28 311.273 1052.22 247.641 1094.41 247.641C1103.55 247.641 1116.55 249.75 1128.16 253.969V201.586C1128.16 168.891 1120.77 153.773 1102.49 154.828V154.125C1124.99 152.016 1175.97 146.039 1186.16 140.062L1189.33 141.469ZM1122.88 456.469C1128.51 450.141 1127.8 429.047 1128.16 402.68V319.711C1124.29 273.305 1100.73 250.453 1088.43 250.453C1084.21 250.453 1081.05 253.969 1078.94 260.648C1075.77 269.789 1074.72 285.258 1074.72 304.242C1074.72 402.68 1094.41 459.633 1114.45 459.633C1117.96 459.633 1120.77 458.578 1122.88 456.469ZM1286.71 489.516C1249.09 489.516 1216.4 461.391 1216.4 394.594C1216.4 319.359 1255.07 246.938 1310.62 246.938C1334.88 246.938 1350.7 268.031 1350.7 295.102C1350.7 319.359 1342.26 341.508 1327.14 356.273C1318 365.062 1309.91 370.336 1296.2 370.336H1278.98C1275.46 370.336 1274.76 373.148 1275.46 378.422C1280.03 428.695 1294.8 464.555 1317.65 464.555C1330.66 464.555 1346.12 455.062 1353.16 415.688L1354.56 416.391C1345.42 472.289 1325.38 489.516 1286.71 489.516ZM1276.16 368.227C1303.23 368.227 1308.51 362.25 1308.51 349.242C1308.51 315.844 1300.42 254.32 1286.36 254.32C1276.87 254.32 1273.7 301.078 1273.7 337.641C1273.7 348.539 1274.05 358.734 1274.41 366.469C1274.41 367.523 1275.11 368.227 1276.16 368.227ZM1470.23 485.648L1440.7 486.703L1440.34 483.891L1388.66 298.266C1380.23 268.031 1375.3 262.406 1358.08 253.969V253.266C1367.22 253.266 1377.77 254.672 1404.48 254.672C1442.1 254.672 1457.92 253.617 1471.63 253.266V253.969C1458.98 255.727 1450.89 263.109 1450.89 278.578C1450.89 283.852 1451.59 290.531 1454.05 297.914L1485.34 408.656L1488.86 393.891C1495.89 365.766 1498.35 341.859 1498.35 321.82C1498.35 279.633 1486.4 256.078 1476.55 253.617V252.914C1487.45 253.266 1507.49 254.672 1518.04 254.672C1530.34 254.672 1544.41 253.266 1551.09 252.914V253.617C1530.34 271.547 1508.9 319.359 1492.38 390.375L1470.23 485.648ZM1557.41 489.164C1537.38 489.164 1525.77 477.914 1525.77 458.227C1525.77 438.188 1537.38 426.938 1557.41 426.938C1577.1 426.938 1588.35 438.188 1588.35 458.227C1588.35 477.914 1577.1 489.164 1557.41 489.164Z" fill="#DBFFF8"/>
</g>
<g filter="url(#filter6_df_1207_179)">
<path d="M82 367L89.3086 399.355L117.355 381.645L99.6445 409.691L132 417L99.6445 424.309L117.355 452.355L89.3086 434.645L82 467L74.6914 434.645L46.6447 452.355L64.3555 424.309L32 417L64.3555 409.691L46.6447 381.645L74.6914 399.355L82 367Z" fill="#DBFFF8"/>
</g>
<g filter="url(#filter7_f_1207_179)">
<path d="M82 367L89.3086 399.355L117.355 381.645L99.6445 409.691L132 417L99.6445 424.309L117.355 452.355L89.3086 434.645L82 467L74.6914 434.645L46.6447 452.355L64.3555 424.309L32 417L64.3555 409.691L46.6447 381.645L74.6914 399.355L82 367Z" fill="#DBFFF8"/>
</g>
<g filter="url(#filter8_df_1207_179)">
<path d="M197.543 136.853C196.578 140.005 196.094 143.766 196.288 146.797C196.336 147.567 196.574 148.695 196.974 150.032C197.719 152.577 198.115 153.291 200.154 155.673C200.211 155.752 199.338 155.549 198.213 155.229C195.678 154.516 192.851 154.05 190.957 154.04C189.794 154.036 189.224 154.127 188.067 154.473C185.143 155.347 183.672 156.972 183.732 159.226C183.768 160.287 183.902 160.679 184.573 161.87C186.623 165.449 190.524 166.843 191.801 164.46C192.111 163.887 192.111 163.887 191.699 163.451C190.696 162.375 190.854 161.127 192.09 159.99C194.033 158.224 197.396 157.986 199.203 159.478C200.35 160.43 200.268 161.319 198.727 165.428C197.819 167.828 197.696 168.249 197.702 168.935C197.702 169.543 197.983 169.651 198.836 169.396C201.013 168.745 202.88 166.89 203.219 165.028L203.384 164.195L204.734 165.823L206.084 167.451L206.269 169.236C206.518 171.786 206.698 175.38 206.703 178.003C206.729 190.956 203.881 199.456 198.165 203.471C197.189 204.147 196.852 204.296 195.162 204.801C193.502 205.298 193.074 205.362 191.841 205.347C189.943 205.323 187.467 204.864 185.431 204.16C182.492 203.152 177.835 200.673 174.829 198.5L173.662 197.649L173.206 195.625C172.973 194.511 172.787 193.559 172.809 193.52C172.83 193.482 173.022 193.568 173.251 193.724C173.476 193.865 174.138 194.082 174.735 194.192C175.595 194.351 176.057 194.34 177.003 194.121C178.354 193.813 179.715 193.15 180.077 192.642C180.296 192.32 180.29 192.242 180.017 191.94C179.696 191.588 178.192 190.997 175.721 190.281C174.013 189.784 172.44 189.07 171.964 188.589C170.992 187.615 171.586 185.053 173.13 183.615C174.413 182.415 176.016 181.728 177.194 181.839C178.237 181.943 178.721 182.343 179.142 183.417C179.491 184.304 179.548 184.383 180.016 184.451C182.337 184.781 183.621 182.029 182.782 178.504C182.156 175.97 180.774 174.4 178.849 174.064C176.954 173.719 174.28 174.983 172.509 177.049C171.402 178.34 169.704 181.424 168.751 183.838C168.335 184.89 167.977 185.797 167.948 185.87C167.92 185.942 167.598 185.031 167.242 183.841C166.451 181.197 165.869 180.251 163.767 178.048C161.457 175.651 158.282 173.577 154.527 172.06C153.152 171.512 152.72 171.401 152.677 171.59C152.578 172.035 152.772 175.065 153.027 176.861C153.404 179.453 154.64 183.083 155.77 184.921C157.154 187.163 159.424 189.316 161.203 190.048C161.852 190.334 161.604 190.392 159.839 190.424C156.238 190.477 152.363 191.221 150.476 192.233C148.45 193.335 146.966 195.028 146.674 196.603C146.578 197.112 146.633 197.575 146.901 198.471C147.218 199.529 147.345 199.731 148.15 200.594C149.932 202.445 152.799 203.491 154.642 202.94C155.403 202.712 155.583 202.594 155.911 202.08C156.13 201.759 156.326 201.252 156.358 200.97C156.422 200.519 156.381 200.435 156.137 200.396C155.621 200.279 154.939 199.555 154.746 198.908C154.254 197.263 155.785 195.173 158.134 194.263C159.484 193.73 160.708 193.716 161.819 194.216C162.656 194.574 162.661 194.588 162.922 195.518C163.164 196.438 163.201 197.227 163.116 201.044C163.076 203.073 163.197 203.756 163.651 203.941C164.045 204.095 164.701 203.626 165.771 202.378C166.993 200.973 167.522 199.47 167.322 197.914L167.229 197.27L168.929 198.297L170.63 199.324L171.008 200.587C171.496 202.217 172.524 207.094 172.817 209.183C173.915 216.903 172.895 222.584 169.991 225.133C168.071 226.812 163.651 228.838 161.268 229.135C157.973 229.545 153.502 228.738 148.113 226.751C146.415 226.122 146.289 226.032 145.836 225.352C145.563 224.937 145.275 224.528 145.194 224.424C145.061 224.256 145.137 224.233 145.833 224.232C146.876 224.224 147.587 223.996 148.598 223.325C149.597 222.674 150.459 221.728 151.04 220.675C151.756 219.356 151.138 219.173 147.941 219.745C143.74 220.507 142.405 220.538 141.559 219.927C140.898 219.437 140.421 217.675 140.611 216.37C140.904 214.411 142.398 212.363 143.86 211.926C144.971 211.593 145.682 211.861 146.508 212.958C146.779 213.309 146.829 213.31 147.411 213.04C149.253 212.153 149.468 210.264 147.972 207.816C146.214 204.933 143.345 203.552 141.055 204.493C139.388 205.184 137.659 207.557 137.167 209.848C136.722 211.966 136.742 216.136 137.215 218.826C137.323 219.354 137.355 219.793 137.294 219.811C137.248 219.825 136.965 219.541 136.689 219.176C134.773 216.597 131.013 214.73 126.607 214.144C123.776 213.775 119.712 213.887 117.084 214.417L116.068 214.625L117.522 215.326C119.787 216.408 123.093 217.867 126.502 219.28C133.166 222.038 137.009 223.848 141.812 226.54C144.579 228.08 145.696 228.818 148.078 230.681C155.803 236.707 158.652 239.519 161.003 243.439C162.619 246.124 164.262 250.177 164.669 252.423L164.862 253.566L164.312 253.058C163.993 252.769 163.696 252.554 163.651 252.568C163.605 252.581 163.617 253.122 163.691 253.756C163.807 254.809 163.788 254.911 163.481 254.939C163.305 254.959 162.724 255.069 162.219 255.156L161.279 255.342L161.669 255.593C161.894 255.734 162.378 256.021 162.755 256.228L163.455 256.627L162.783 257.708L162.131 258.799L163.366 258.381L164.617 257.959L164.891 258.597C165.046 258.951 165.283 259.408 165.418 259.639L165.667 260.029L165.974 259.169L166.296 258.305L166.619 259.216C166.788 259.726 167.005 260.285 167.107 260.462L167.28 260.762L230.24 241.925L293.185 223.093L292.844 221.786L292.508 220.495L293.313 221.358C293.778 221.859 294.147 222.149 294.201 222.052C294.256 221.956 294.296 221.48 294.316 220.994C294.336 220.508 294.366 220.051 294.409 219.974C294.437 219.902 294.938 219.8 295.51 219.773C296.093 219.726 296.602 219.654 296.674 219.617C296.742 219.564 296.41 219.232 295.939 218.877C295.452 218.526 295.055 218.197 295.042 218.153C295.033 218.123 295.354 217.643 295.768 217.087L296.501 216.1L295.261 216.391L294.021 216.682L293.694 215.532L293.377 214.363L292.744 215.464L292.112 216.565L291.637 216.419L291.142 216.263L290.192 212.867C289.311 209.755 289.238 209.345 289.199 207.884C289.083 201.951 290.93 193.541 294.471 183.809C296.182 179.105 298.869 174.333 304.328 166.299C307.01 162.345 309.965 157.748 310.5 156.708L310.762 156.198L309.955 156.551C308.383 157.23 305.69 158.707 304.432 159.548C299.669 162.813 297.018 166.262 296.213 170.279C296.049 171.064 295.943 171.816 295.978 171.934C296.013 172.051 295.998 172.168 295.937 172.186C295.861 172.209 295.386 171.343 294.846 170.256C292.827 166.172 290.706 163.574 288.382 162.35C285.176 160.669 282.532 161.316 281.14 164.148C280.259 165.916 280.107 168.57 280.767 170.276C281.337 171.738 282.327 172.386 283.646 172.135L284.353 172.004L284.469 171.281C284.629 170.097 285.015 169.613 286.035 169.308C287.025 169.012 287.793 169.086 288.975 169.597C290.664 170.308 292.184 172.061 292.392 173.535C292.648 175.33 292.122 175.792 287.667 177.701C284.349 179.141 283.816 179.525 284.256 180.161C284.52 180.546 286.178 181.154 287.474 181.326C288.84 181.51 290.356 181.2 291.234 180.586C291.647 180.302 291.825 180.233 291.81 180.349C291.811 180.461 291.791 181.171 291.769 181.93L291.751 183.311L290.517 185.12C286.033 191.646 283.071 194.277 278.762 195.566C274.164 196.942 269.6 195.939 266.2 192.78C262.837 189.69 260.391 185.285 257.25 176.672L256.212 173.815L257.108 171.93L258.005 170.046L258.316 170.753C258.999 172.261 260.936 173.522 263.107 173.848C264.655 174.089 264.82 173.975 264.476 172.878C264.282 172.232 263.806 171.415 262.68 169.816C261.563 168.245 261.021 167.32 260.729 166.511L260.299 165.407L260.713 164.74C261.894 162.754 264.988 161.893 267.428 162.842C269.202 163.56 269.828 164.765 269.151 166.215L268.805 166.943L269.276 167.41C270.641 168.81 273.004 167.895 274.617 165.3C276.633 162.057 276.122 158.577 273.444 157.331C272.362 156.822 270.324 156.552 268.949 156.723C266.823 156.991 263.163 158.566 259.955 160.598L258.812 161.324L259.31 160.327C261.655 155.689 261.121 149.689 257.804 143.593C256.85 141.846 256.026 140.588 255.869 140.619C255.565 140.71 253.254 144.298 252.474 145.907C249.866 151.216 249.291 155.948 250.782 159.822L251.269 161.117L249.556 159.885C248.608 159.209 246.769 158.111 245.459 157.447C242.019 155.708 240.333 155.396 237.721 156.034C236.581 156.327 236.229 156.48 235.735 156.884C234.043 158.27 233.703 161.012 234.911 163.611C236.392 166.784 238.765 167.898 240.505 166.226C240.735 165.997 240.73 165.87 240.513 165.423C239.951 164.263 240.446 162.979 241.704 162.362C244.381 161.05 248.462 162.325 249.189 164.699C249.356 165.258 249.313 165.446 248.832 166.39C248.522 166.963 247.564 168.306 246.683 169.353C245.821 170.411 244.914 171.595 244.693 171.965C243.788 173.484 244.681 173.809 247.441 172.999C249.364 172.439 249.999 172.01 250.809 170.727C251.052 170.318 251.289 170.055 251.306 170.114C251.328 170.188 251.646 170.973 251.999 171.875L252.641 173.523L252.157 174.788C250.446 179.38 247.836 184.465 245.96 186.899C242.461 191.45 239.634 192.76 235.032 191.96C227.823 190.709 220.572 184.382 213.403 173.118C212.043 171.013 209.696 166.883 209.542 166.369C209.463 166.104 209.549 164.895 209.783 163.016L209.86 162.385L210.36 162.892C211.037 163.601 212.739 164.356 213.815 164.402C215.03 164.471 216.62 164.299 217.057 164.04C217.355 163.871 217.385 163.75 217.258 163.324C217.1 162.796 216.491 162.258 213.83 160.35C212.248 159.223 210.799 157.816 210.636 157.273C210.478 156.744 210.661 156.081 211.231 155.159C212.114 153.727 213.687 152.776 215.526 152.546C217.913 152.263 219.558 153.435 219.195 155.16C219.143 155.432 219.183 155.788 219.273 155.921C219.509 156.266 220.86 156.566 221.408 156.402C222.595 156.047 223.811 154.179 224.163 152.138C224.87 148.182 223.034 145.371 219.721 145.386C218.293 145.381 216.359 145.96 214.97 146.808C213.54 147.683 210.83 150.158 209.103 152.147C208.328 153.051 207.671 153.792 207.655 153.796C207.625 153.806 207.657 153.636 207.722 153.409C207.959 152.649 207.972 150.086 207.731 148.67C207.18 145.442 205.185 141.879 202.071 138.57C200.565 136.973 198.448 135.11 198.204 135.183C198.113 135.21 197.826 135.968 197.543 136.853Z" fill="#D8FEF6"/>
</g>
<path d="M197.543 136.853C196.578 140.005 196.094 143.766 196.288 146.797C196.336 147.567 196.574 148.695 196.974 150.032C197.719 152.577 198.115 153.291 200.154 155.673C200.211 155.752 199.338 155.549 198.213 155.229C195.678 154.516 192.851 154.05 190.957 154.04C189.794 154.036 189.224 154.127 188.067 154.473C185.143 155.347 183.672 156.972 183.732 159.226C183.768 160.287 183.902 160.679 184.573 161.87C186.623 165.449 190.524 166.843 191.801 164.46C192.111 163.887 192.111 163.887 191.699 163.451C190.696 162.375 190.854 161.127 192.09 159.99C194.033 158.224 197.396 157.986 199.203 159.478C200.35 160.43 200.268 161.319 198.727 165.428C197.819 167.828 197.696 168.249 197.702 168.935C197.702 169.543 197.983 169.651 198.836 169.396C201.013 168.745 202.88 166.89 203.219 165.028L203.384 164.195L204.734 165.823L206.084 167.451L206.269 169.236C206.518 171.786 206.698 175.38 206.703 178.003C206.729 190.956 203.881 199.456 198.165 203.471C197.189 204.147 196.852 204.296 195.162 204.801C193.502 205.298 193.074 205.362 191.841 205.347C189.943 205.323 187.467 204.864 185.431 204.16C182.492 203.152 177.835 200.673 174.829 198.5L173.662 197.649L173.206 195.625C172.973 194.511 172.787 193.559 172.809 193.52C172.83 193.482 173.022 193.568 173.251 193.724C173.476 193.865 174.138 194.082 174.735 194.192C175.595 194.351 176.057 194.34 177.003 194.121C178.354 193.813 179.715 193.15 180.077 192.642C180.296 192.32 180.29 192.242 180.017 191.94C179.696 191.588 178.192 190.997 175.721 190.281C174.013 189.784 172.44 189.07 171.964 188.589C170.992 187.615 171.586 185.053 173.13 183.615C174.413 182.415 176.016 181.728 177.194 181.839C178.237 181.943 178.721 182.343 179.142 183.417C179.491 184.304 179.548 184.383 180.016 184.451C182.337 184.781 183.621 182.029 182.782 178.504C182.156 175.97 180.774 174.4 178.849 174.064C176.954 173.719 174.28 174.983 172.509 177.049C171.402 178.34 169.704 181.424 168.751 183.838C168.335 184.89 167.977 185.797 167.948 185.87C167.92 185.942 167.598 185.031 167.242 183.841C166.451 181.197 165.869 180.251 163.767 178.048C161.457 175.651 158.282 173.577 154.527 172.06C153.152 171.512 152.72 171.401 152.677 171.59C152.578 172.035 152.772 175.065 153.027 176.861C153.404 179.453 154.64 183.083 155.77 184.921C157.154 187.163 159.424 189.316 161.203 190.048C161.852 190.334 161.604 190.392 159.839 190.424C156.238 190.477 152.363 191.221 150.476 192.233C148.45 193.335 146.966 195.028 146.674 196.603C146.578 197.112 146.633 197.575 146.901 198.471C147.218 199.529 147.345 199.731 148.15 200.594C149.932 202.445 152.799 203.491 154.642 202.94C155.403 202.712 155.583 202.594 155.911 202.08C156.13 201.759 156.326 201.252 156.358 200.97C156.422 200.519 156.381 200.435 156.137 200.396C155.621 200.279 154.939 199.555 154.746 198.908C154.254 197.263 155.785 195.173 158.134 194.263C159.484 193.73 160.708 193.716 161.819 194.216C162.656 194.574 162.661 194.588 162.922 195.518C163.164 196.438 163.201 197.227 163.116 201.044C163.076 203.073 163.197 203.756 163.651 203.941C164.045 204.095 164.701 203.626 165.771 202.378C166.993 200.973 167.522 199.47 167.322 197.914L167.229 197.27L168.929 198.297L170.63 199.324L171.008 200.587C171.496 202.217 172.524 207.094 172.817 209.183C173.915 216.903 172.895 222.584 169.991 225.133C168.071 226.812 163.651 228.838 161.268 229.135C157.973 229.545 153.502 228.738 148.113 226.751C146.415 226.122 146.289 226.032 145.836 225.352C145.563 224.937 145.275 224.528 145.194 224.424C145.061 224.256 145.137 224.233 145.833 224.232C146.876 224.224 147.587 223.996 148.598 223.325C149.597 222.674 150.459 221.728 151.04 220.675C151.756 219.356 151.138 219.173 147.941 219.745C143.74 220.507 142.405 220.538 141.559 219.927C140.898 219.437 140.421 217.675 140.611 216.37C140.904 214.411 142.398 212.363 143.86 211.926C144.971 211.593 145.682 211.861 146.508 212.958C146.779 213.309 146.829 213.31 147.411 213.04C149.253 212.153 149.468 210.264 147.972 207.816C146.214 204.933 143.345 203.552 141.055 204.493C139.388 205.184 137.659 207.557 137.167 209.848C136.722 211.966 136.742 216.136 137.215 218.826C137.323 219.354 137.355 219.793 137.294 219.811C137.248 219.825 136.965 219.541 136.689 219.176C134.773 216.597 131.013 214.73 126.607 214.144C123.776 213.775 119.712 213.887 117.084 214.417L116.068 214.625L117.522 215.326C119.787 216.408 123.093 217.867 126.502 219.28C133.166 222.038 137.009 223.848 141.812 226.54C144.579 228.08 145.696 228.818 148.078 230.681C155.803 236.707 158.652 239.519 161.003 243.439C162.619 246.124 164.262 250.177 164.669 252.423L164.862 253.566L164.312 253.058C163.993 252.769 163.696 252.554 163.651 252.568C163.605 252.581 163.617 253.122 163.691 253.756C163.807 254.809 163.788 254.911 163.481 254.939C163.305 254.959 162.724 255.069 162.219 255.156L161.279 255.342L161.669 255.593C161.894 255.734 162.378 256.021 162.755 256.228L163.455 256.627L162.783 257.708L162.131 258.799L163.366 258.381L164.617 257.959L164.891 258.597C165.046 258.951 165.283 259.408 165.418 259.639L165.667 260.029L165.974 259.169L166.296 258.305L166.619 259.216C166.788 259.726 167.005 260.285 167.107 260.462L167.28 260.762L230.24 241.925L293.185 223.093L292.844 221.786L292.508 220.495L293.313 221.358C293.778 221.859 294.147 222.149 294.201 222.052C294.256 221.956 294.296 221.48 294.316 220.994C294.336 220.508 294.366 220.051 294.409 219.974C294.437 219.902 294.938 219.8 295.51 219.773C296.093 219.726 296.602 219.654 296.674 219.617C296.742 219.564 296.41 219.232 295.939 218.877C295.452 218.526 295.055 218.197 295.042 218.153C295.033 218.123 295.354 217.643 295.768 217.087L296.501 216.1L295.261 216.391L294.021 216.682L293.694 215.532L293.377 214.363L292.744 215.464L292.112 216.565L291.637 216.419L291.142 216.263L290.192 212.867C289.311 209.755 289.238 209.345 289.199 207.884C289.083 201.951 290.93 193.541 294.471 183.809C296.182 179.105 298.869 174.333 304.328 166.299C307.01 162.345 309.965 157.748 310.5 156.708L310.762 156.198L309.955 156.551C308.383 157.23 305.69 158.707 304.432 159.548C299.669 162.813 297.018 166.262 296.213 170.279C296.049 171.064 295.943 171.816 295.978 171.934C296.013 172.051 295.998 172.168 295.937 172.186C295.861 172.209 295.386 171.343 294.846 170.256C292.827 166.172 290.706 163.574 288.382 162.35C285.176 160.669 282.532 161.316 281.14 164.148C280.259 165.916 280.107 168.57 280.767 170.276C281.337 171.738 282.327 172.386 283.646 172.135L284.353 172.004L284.469 171.281C284.629 170.097 285.015 169.613 286.035 169.308C287.025 169.012 287.793 169.086 288.975 169.597C290.664 170.308 292.184 172.061 292.392 173.535C292.648 175.33 292.122 175.792 287.667 177.701C284.349 179.141 283.816 179.525 284.256 180.161C284.52 180.546 286.178 181.154 287.474 181.326C288.84 181.51 290.356 181.2 291.234 180.586C291.647 180.302 291.825 180.233 291.81 180.349C291.811 180.461 291.791 181.171 291.769 181.93L291.751 183.311L290.517 185.12C286.033 191.646 283.071 194.277 278.762 195.566C274.164 196.942 269.6 195.939 266.2 192.78C262.837 189.69 260.391 185.285 257.25 176.672L256.212 173.815L257.108 171.93L258.005 170.046L258.316 170.753C258.999 172.261 260.936 173.522 263.107 173.848C264.655 174.089 264.82 173.975 264.476 172.878C264.282 172.232 263.806 171.415 262.68 169.816C261.563 168.245 261.021 167.32 260.729 166.511L260.299 165.407L260.713 164.74C261.894 162.754 264.988 161.893 267.428 162.842C269.202 163.56 269.828 164.765 269.151 166.215L268.805 166.943L269.276 167.41C270.641 168.81 273.004 167.895 274.617 165.3C276.633 162.057 276.122 158.577 273.444 157.331C272.362 156.822 270.324 156.552 268.949 156.723C266.823 156.991 263.163 158.566 259.955 160.598L258.812 161.324L259.31 160.327C261.655 155.689 261.121 149.689 257.804 143.593C256.85 141.846 256.026 140.588 255.869 140.619C255.565 140.71 253.254 144.298 252.474 145.907C249.866 151.216 249.291 155.948 250.782 159.822L251.269 161.117L249.556 159.885C248.608 159.209 246.769 158.111 245.459 157.447C242.019 155.708 240.333 155.396 237.721 156.034C236.581 156.327 236.229 156.48 235.735 156.884C234.043 158.27 233.703 161.012 234.911 163.611C236.392 166.784 238.765 167.898 240.505 166.226C240.735 165.997 240.73 165.87 240.513 165.423C239.951 164.263 240.446 162.979 241.704 162.362C244.381 161.05 248.462 162.325 249.189 164.699C249.356 165.258 249.313 165.446 248.832 166.39C248.522 166.963 247.564 168.306 246.683 169.353C245.821 170.411 244.914 171.595 244.693 171.965C243.788 173.484 244.681 173.809 247.441 172.999C249.364 172.439 249.999 172.01 250.809 170.727C251.052 170.318 251.289 170.055 251.306 170.114C251.328 170.188 251.646 170.973 251.999 171.875L252.641 173.523L252.157 174.788C250.446 179.38 247.836 184.465 245.96 186.899C242.461 191.45 239.634 192.76 235.032 191.96C227.823 190.709 220.572 184.382 213.403 173.118C212.043 171.013 209.696 166.883 209.542 166.369C209.463 166.104 209.549 164.895 209.783 163.016L209.86 162.385L210.36 162.892C211.037 163.601 212.739 164.356 213.815 164.402C215.03 164.471 216.62 164.299 217.057 164.04C217.355 163.871 217.385 163.75 217.258 163.324C217.1 162.796 216.491 162.258 213.83 160.35C212.248 159.223 210.799 157.816 210.636 157.273C210.478 156.744 210.661 156.081 211.231 155.159C212.114 153.727 213.687 152.776 215.526 152.546C217.913 152.263 219.558 153.435 219.195 155.16C219.143 155.432 219.183 155.788 219.273 155.921C219.509 156.266 220.86 156.566 221.408 156.402C222.595 156.047 223.811 154.179 224.163 152.138C224.87 148.182 223.034 145.371 219.721 145.386C218.293 145.381 216.359 145.96 214.97 146.808C213.54 147.683 210.83 150.158 209.103 152.147C208.328 153.051 207.671 153.792 207.655 153.796C207.625 153.806 207.657 153.636 207.722 153.409C207.959 152.649 207.972 150.086 207.731 148.67C207.18 145.442 205.185 141.879 202.071 138.57C200.565 136.973 198.448 135.11 198.204 135.183C198.113 135.21 197.826 135.968 197.543 136.853Z" fill="#D8FEF6"/>
<defs>
<filter id="filter0_df_1207_179" x="53.3516" y="0.0625" width="1675" height="629.453" filterUnits="userSpaceOnUse" color-interpolation-filters="sRGB">
<feFlood flood-opacity="0" result="BackgroundImageFix"/>
<feColorMatrix in="SourceAlpha" type="matrix" values="0 0 0 0 0 0 0 0 0 0 0 0 0 0 0 0 0 0 127 0" result="hardAlpha"/>
<feOffset/>
<feGaussianBlur stdDeviation="70"/>
<feComposite in2="hardAlpha" operator="out"/>
<feColorMatrix type="matrix" values="0 0 0 0 0.388235 0 0 0 0 0.811765 0 0 0 0 0.760784 0 0 0 1 0"/>
<feBlend mode="normal" in2="BackgroundImageFix" result="effect1_dropShadow_1207_179"/>
<feBlend mode="normal" in="SourceGraphic" in2="effect1_dropShadow_1207_179" result="shape"/>
<feGaussianBlur stdDeviation="20" result="effect2_foregroundBlur_1207_179"/>
</filter>
<filter id="filter1_df_1207_179" x="1361" y="82" width="164" height="164" filterUnits="userSpaceOnUse" color-interpolation-filters="sRGB">
<feFlood flood-opacity="0" result="BackgroundImageFix"/>
<feColorMatrix in="SourceAlpha" type="matrix" values="0 0 0 0 0 0 0 0 0 0 0 0 0 0 0 0 0 0 127 0" result="hardAlpha"/>
<feOffset/>
<feGaussianBlur stdDeviation="16"/>
<feComposite in2="hardAlpha" operator="out"/>
<feColorMatrix type="matrix" values="0 0 0 0 0.388235 0 0 0 0 0.811765 0 0 0 0 0.760784 0 0 0 1 0"/>
<feBlend mode="normal" in2="BackgroundImageFix" result="effect1_dropShadow_1207_179"/>
<feBlend mode="normal" in="SourceGraphic" in2="effect1_dropShadow_1207_179" result="shape"/>
<feGaussianBlur stdDeviation="5" result="effect2_foregroundBlur_1207_179"/>
</filter>
<filter id="filter2_f_1207_179" x="1391" y="112" width="104" height="104" filterUnits="userSpaceOnUse" color-interpolation-filters="sRGB">
<feFlood flood-opacity="0" result="BackgroundImageFix"/>
<feBlend mode="normal" in="SourceGraphic" in2="BackgroundImageFix" result="shape"/>
<feGaussianBlur stdDeviation="1" result="effect1_foregroundBlur_1207_179"/>
</filter>
<filter id="filter3_df_1207_179" x="0" y="335" width="164" height="164" filterUnits="userSpaceOnUse" color-interpolation-filters="sRGB">
<feFlood flood-opacity="0" result="BackgroundImageFix"/>
<feColorMatrix in="SourceAlpha" type="matrix" values="0 0 0 0 0 0 0 0 0 0 0 0 0 0 0 0 0 0 127 0" result="hardAlpha"/>
<feOffset/>
<feGaussianBlur stdDeviation="16"/>
<feComposite in2="hardAlpha" operator="out"/>
<feColorMatrix type="matrix" values="0 0 0 0 0.388235 0 0 0 0 0.811765 0 0 0 0 0.760784 0 0 0 1 0"/>
<feBlend mode="normal" in2="BackgroundImageFix" result="effect1_dropShadow_1207_179"/>
<feBlend mode="normal" in="SourceGraphic" in2="effect1_dropShadow_1207_179" result="shape"/>
<feGaussianBlur stdDeviation="5" result="effect2_foregroundBlur_1207_179"/>
</filter>
<filter id="filter4_f_1207_179" x="30" y="365" width="104" height="104" filterUnits="userSpaceOnUse" color-interpolation-filters="sRGB">
<feFlood flood-opacity="0" result="BackgroundImageFix"/>
<feBlend mode="normal" in="SourceGraphic" in2="BackgroundImageFix" result="shape"/>
<feGaussianBlur stdDeviation="1" result="effect1_foregroundBlur_1207_179"/>
</filter>
<filter id="filter5_df_1207_179" x="53.3516" y="0.0625" width="1675" height="629.453" filterUnits="userSpaceOnUse" color-interpolation-filters="sRGB">
<feFlood flood-opacity="0" result="BackgroundImageFix"/>
<feColorMatrix in="SourceAlpha" type="matrix" values="0 0 0 0 0 0 0 0 0 0 0 0 0 0 0 0 0 0 127 0" result="hardAlpha"/>
<feOffset/>
<feGaussianBlur stdDeviation="70"/>
<feComposite in2="hardAlpha" operator="out"/>
<feColorMatrix type="matrix" values="0 0 0 0 0.388235 0 0 0 0 0.811765 0 0 0 0 0.760784 0 0 0 1 0"/>
<feBlend mode="normal" in2="BackgroundImageFix" result="effect1_dropShadow_1207_179"/>
<feBlend mode="normal" in="SourceGraphic" in2="effect1_dropShadow_1207_179" result="shape"/>
<feGaussianBlur stdDeviation="20" result="effect2_foregroundBlur_1207_179"/>
</filter>
<filter id="filter6_df_1207_179" x="0" y="335" width="164" height="164" filterUnits="userSpaceOnUse" color-interpolation-filters="sRGB">
<feFlood flood-opacity="0" result="BackgroundImageFix"/>
<feColorMatrix in="SourceAlpha" type="matrix" values="0 0 0 0 0 0 0 0 0 0 0 0 0 0 0 0 0 0 127 0" result="hardAlpha"/>
<feOffset/>
<feGaussianBlur stdDeviation="16"/>
<feComposite in2="hardAlpha" operator="out"/>
<feColorMatrix type="matrix" values="0 0 0 0 0.388235 0 0 0 0 0.811765 0 0 0 0 0.760784 0 0 0 1 0"/>
<feBlend mode="normal" in2="BackgroundImageFix" result="effect1_dropShadow_1207_179"/>
<feBlend mode="normal" in="SourceGraphic" in2="effect1_dropShadow_1207_179" result="shape"/>
<feGaussianBlur stdDeviation="5" result="effect2_foregroundBlur_1207_179"/>
</filter>
<filter id="filter7_f_1207_179" x="30" y="365" width="104" height="104" filterUnits="userSpaceOnUse" color-interpolation-filters="sRGB">
<feFlood flood-opacity="0" result="BackgroundImageFix"/>
<feBlend mode="normal" in="SourceGraphic" in2="BackgroundImageFix" result="shape"/>
<feGaussianBlur stdDeviation="1" result="effect1_foregroundBlur_1207_179"/>
</filter>
<filter id="filter8_df_1207_179" x="84.0679" y="103.181" width="258.694" height="189.582" filterUnits="userSpaceOnUse" color-interpolation-filters="sRGB">
<feFlood flood-opacity="0" result="BackgroundImageFix"/>
<feColorMatrix in="SourceAlpha" type="matrix" values="0 0 0 0 0 0 0 0 0 0 0 0 0 0 0 0 0 0 127 0" result="hardAlpha"/>
<feOffset/>
<feGaussianBlur stdDeviation="16"/>
<feComposite in2="hardAlpha" operator="out"/>
<feColorMatrix type="matrix" values="0 0 0 0 0.388235 0 0 0 0 0.811765 0 0 0 0 0.760784 0 0 0 1 0"/>
<feBlend mode="normal" in2="BackgroundImageFix" result="effect1_dropShadow_1207_179"/>
<feBlend mode="normal" in="SourceGraphic" in2="effect1_dropShadow_1207_179" result="shape"/>
<feGaussianBlur stdDeviation="10" result="effect2_foregroundBlur_1207_179"/>
</filter>
</defs>
</svg>
