<svg width="1123" height="1021" viewBox="0 0 1123 1021" fill="none" xmlns="http://www.w3.org/2000/svg">
<g filter="url(#filter0_df_1553_60)">
<path d="M431.25 383.75C460.625 383.75 476.875 409.375 476.875 446.875C476.875 491.875 446.875 550.625 427.5 572.5L426.875 571.875C428.75 551.875 418.75 536.875 402.5 536.875C380 536.875 348.75 561.25 344.375 626.25V627.5H343.75C343.75 632.5 343.75 638.125 343.75 644.375L344.375 710.625C345.625 785.625 361.875 811.25 398.75 813.75V815C371.875 814.375 313.75 811.875 286.25 811.875C253.75 811.875 222.5 814.375 201.25 815V813.75C225 806.25 235.625 780 235 710.625L233.75 486.875C233.125 450.625 228.75 430 208.125 430C205.625 430 203.125 430.625 200.625 430.625V428.125C226.875 423.125 313.125 400.625 331.25 389.375L336.875 391.875L340.625 604.375H341.875C348.75 491.25 378.75 383.75 431.25 383.75ZM766.25 202.5V707.5C766.25 775 775 808.75 801.875 814.375V815.625C781.25 815 704.375 814.375 665.625 814.375C663.75 801.875 661.25 774.375 660 744.375C657.5 750 654.375 755.625 651.25 761.875C639.375 786.25 621.25 820 573.125 820C517.5 820 467.5 775.625 467.5 645.625C467.5 504.375 522.5 391.25 597.5 391.25C613.75 391.25 636.875 395 657.5 402.5V309.375C657.5 251.25 644.375 224.375 611.875 226.25V225C651.875 221.25 742.5 210.625 760.625 200L766.25 202.5ZM648.125 762.5C658.125 751.25 656.875 713.75 657.5 666.875V519.375C650.625 436.875 608.75 396.25 586.875 396.25C579.375 396.25 573.75 402.5 570 414.375C564.375 430.625 562.5 458.125 562.5 491.875C562.5 666.875 597.5 768.125 633.125 768.125C639.375 768.125 644.375 766.25 648.125 762.5ZM867.5 820.625C831.875 820.625 811.25 800.625 811.25 765.625C811.25 730 831.875 710 867.5 710C902.5 710 922.5 730 922.5 765.625C922.5 800.625 902.5 820.625 867.5 820.625Z" fill="#DBFFF8"/>
</g>
<mask id="path-2-outside-1_1553_60" maskUnits="userSpaceOnUse" x="198" y="198" width="725" height="624" fill="black">
<rect fill="white" x="198" y="198" width="725" height="624"/>
<path d="M430.25 383.75C459.625 383.75 475.875 409.375 475.875 446.875C475.875 491.875 445.875 550.625 426.5 572.5L425.875 571.875C427.75 551.875 417.75 536.875 401.5 536.875C379 536.875 347.75 561.25 343.375 626.25V627.5H342.75C342.75 632.5 342.75 638.125 342.75 644.375L343.375 710.625C344.625 785.625 360.875 811.25 397.75 813.75V815C370.875 814.375 312.75 811.875 285.25 811.875C252.75 811.875 221.5 814.375 200.25 815V813.75C224 806.25 234.625 780 234 710.625L232.75 486.875C232.125 450.625 227.75 430 207.125 430C204.625 430 202.125 430.625 199.625 430.625V428.125C225.875 423.125 312.125 400.625 330.25 389.375L335.875 391.875L339.625 604.375H340.875C347.75 491.25 377.75 383.75 430.25 383.75ZM765.25 202.5V707.5C765.25 775 774 808.75 800.875 814.375V815.625C780.25 815 703.375 814.375 664.625 814.375C662.75 801.875 660.25 774.375 659 744.375C656.5 750 653.375 755.625 650.25 761.875C638.375 786.25 620.25 820 572.125 820C516.5 820 466.5 775.625 466.5 645.625C466.5 504.375 521.5 391.25 596.5 391.25C612.75 391.25 635.875 395 656.5 402.5V309.375C656.5 251.25 643.375 224.375 610.875 226.25V225C650.875 221.25 741.5 210.625 759.625 200L765.25 202.5ZM647.125 762.5C657.125 751.25 655.875 713.75 656.5 666.875V519.375C649.625 436.875 607.75 396.25 585.875 396.25C578.375 396.25 572.75 402.5 569 414.375C563.375 430.625 561.5 458.125 561.5 491.875C561.5 666.875 596.5 768.125 632.125 768.125C638.375 768.125 643.375 766.25 647.125 762.5ZM866.5 820.625C830.875 820.625 810.25 800.625 810.25 765.625C810.25 730 830.875 710 866.5 710C901.5 710 921.5 730 921.5 765.625C921.5 800.625 901.5 820.625 866.5 820.625Z"/>
</mask>
<path d="M430.25 383.75C459.625 383.75 475.875 409.375 475.875 446.875C475.875 491.875 445.875 550.625 426.5 572.5L425.875 571.875C427.75 551.875 417.75 536.875 401.5 536.875C379 536.875 347.75 561.25 343.375 626.25V627.5H342.75C342.75 632.5 342.75 638.125 342.75 644.375L343.375 710.625C344.625 785.625 360.875 811.25 397.75 813.75V815C370.875 814.375 312.75 811.875 285.25 811.875C252.75 811.875 221.5 814.375 200.25 815V813.75C224 806.25 234.625 780 234 710.625L232.75 486.875C232.125 450.625 227.75 430 207.125 430C204.625 430 202.125 430.625 199.625 430.625V428.125C225.875 423.125 312.125 400.625 330.25 389.375L335.875 391.875L339.625 604.375H340.875C347.75 491.25 377.75 383.75 430.25 383.75ZM765.25 202.5V707.5C765.25 775 774 808.75 800.875 814.375V815.625C780.25 815 703.375 814.375 664.625 814.375C662.75 801.875 660.25 774.375 659 744.375C656.5 750 653.375 755.625 650.25 761.875C638.375 786.25 620.25 820 572.125 820C516.5 820 466.5 775.625 466.5 645.625C466.5 504.375 521.5 391.25 596.5 391.25C612.75 391.25 635.875 395 656.5 402.5V309.375C656.5 251.25 643.375 224.375 610.875 226.25V225C650.875 221.25 741.5 210.625 759.625 200L765.25 202.5ZM647.125 762.5C657.125 751.25 655.875 713.75 656.5 666.875V519.375C649.625 436.875 607.75 396.25 585.875 396.25C578.375 396.25 572.75 402.5 569 414.375C563.375 430.625 561.5 458.125 561.5 491.875C561.5 666.875 596.5 768.125 632.125 768.125C638.375 768.125 643.375 766.25 647.125 762.5ZM866.5 820.625C830.875 820.625 810.25 800.625 810.25 765.625C810.25 730 830.875 710 866.5 710C901.5 710 921.5 730 921.5 765.625C921.5 800.625 901.5 820.625 866.5 820.625Z" fill="#DBFFF8"/>
<path d="M426.5 572.5L425.793 573.207L426.544 573.958L427.249 573.163L426.5 572.5ZM425.875 571.875L424.879 571.782L424.835 572.25L425.168 572.582L425.875 571.875ZM343.375 626.25L342.377 626.183L342.375 626.216V626.25H343.375ZM343.375 627.5V628.5H344.375V627.5H343.375ZM342.75 627.5V626.5H341.75V627.5H342.75ZM342.75 644.375H341.75L341.75 644.384L342.75 644.375ZM343.375 710.625L342.375 710.634L342.375 710.642L343.375 710.625ZM397.75 813.75H398.75V812.816L397.818 812.752L397.75 813.75ZM397.75 815L397.727 816L398.75 816.024V815H397.75ZM200.25 815H199.25V816.03L200.279 816L200.25 815ZM200.25 813.75L199.949 812.796L199.25 813.017V813.75H200.25ZM234 710.625L233 710.631L233 710.634L234 710.625ZM232.75 486.875L233.75 486.869L233.75 486.858L232.75 486.875ZM199.625 430.625H198.625V431.625H199.625V430.625ZM199.625 428.125L199.438 427.143L198.625 427.297V428.125H199.625ZM330.25 389.375L330.656 388.461L330.172 388.246L329.723 388.525L330.25 389.375ZM335.875 391.875L336.875 391.857L336.864 391.22L336.281 390.961L335.875 391.875ZM339.625 604.375L338.625 604.393L338.642 605.375H339.625V604.375ZM340.875 604.375V605.375H341.816L341.873 604.436L340.875 604.375ZM430.25 384.75C444.603 384.75 455.706 390.99 463.258 401.822C470.837 412.694 474.875 428.251 474.875 446.875H476.875C476.875 427.999 472.788 411.994 464.898 400.678C456.982 389.323 445.272 382.75 430.25 382.75V384.75ZM474.875 446.875C474.875 469.182 467.431 494.976 457.535 517.964C447.639 540.951 435.345 561.005 425.751 571.837L427.249 573.163C437.03 562.12 449.424 541.861 459.372 518.755C469.319 495.649 476.875 469.568 476.875 446.875H474.875ZM427.207 571.793L426.582 571.168L425.168 572.582L425.793 573.207L427.207 571.793ZM426.871 571.968C427.825 561.791 425.767 552.794 421.308 546.308C416.833 539.799 409.968 535.875 401.5 535.875V537.875C409.282 537.875 415.542 541.451 419.66 547.442C423.796 553.456 425.8 561.959 424.879 571.782L426.871 571.968ZM401.5 535.875C378.218 535.875 346.767 560.958 342.377 626.183L344.373 626.317C348.733 561.542 379.782 537.875 401.5 537.875V535.875ZM342.375 626.25V627.5H344.375V626.25H342.375ZM343.375 626.5H342.75V628.5H343.375V626.5ZM341.75 627.5C341.75 627.51 341.75 627.52 341.75 627.529C341.75 627.539 341.75 627.549 341.75 627.559C341.75 627.568 341.75 627.578 341.75 627.588C341.75 627.598 341.75 627.608 341.75 627.617C341.75 627.627 341.75 627.637 341.75 627.647C341.75 627.656 341.75 627.666 341.75 627.676C341.75 627.686 341.75 627.696 341.75 627.705C341.75 627.715 341.75 627.725 341.75 627.735C341.75 627.745 341.75 627.754 341.75 627.764C341.75 627.774 341.75 627.784 341.75 627.794C341.75 627.803 341.75 627.813 341.75 627.823C341.75 627.833 341.75 627.843 341.75 627.853C341.75 627.862 341.75 627.872 341.75 627.882C341.75 627.892 341.75 627.902 341.75 627.912C341.75 627.921 341.75 627.931 341.75 627.941C341.75 627.951 341.75 627.961 341.75 627.971C341.75 627.98 341.75 627.99 341.75 628C341.75 628.01 341.75 628.02 341.75 628.03C341.75 628.04 341.75 628.049 341.75 628.059C341.75 628.069 341.75 628.079 341.75 628.089C341.75 628.099 341.75 628.109 341.75 628.118C341.75 628.128 341.75 628.138 341.75 628.148C341.75 628.158 341.75 628.168 341.75 628.178C341.75 628.187 341.75 628.197 341.75 628.207C341.75 628.217 341.75 628.227 341.75 628.237C341.75 628.247 341.75 628.257 341.75 628.267C341.75 628.276 341.75 628.286 341.75 628.296C341.75 628.306 341.75 628.316 341.75 628.326C341.75 628.336 341.75 628.346 341.75 628.356C341.75 628.366 341.75 628.375 341.75 628.385C341.75 628.395 341.75 628.405 341.75 628.415C341.75 628.425 341.75 628.435 341.75 628.445C341.75 628.455 341.75 628.465 341.75 628.475C341.75 628.485 341.75 628.494 341.75 628.504C341.75 628.514 341.75 628.524 341.75 628.534C341.75 628.544 341.75 628.554 341.75 628.564C341.75 628.574 341.75 628.584 341.75 628.594C341.75 628.604 341.75 628.614 341.75 628.624C341.75 628.634 341.75 628.644 341.75 628.653C341.75 628.663 341.75 628.673 341.75 628.683C341.75 628.693 341.75 628.703 341.75 628.713C341.75 628.723 341.75 628.733 341.75 628.743C341.75 628.753 341.75 628.763 341.75 628.773C341.75 628.783 341.75 628.793 341.75 628.803C341.75 628.813 341.75 628.823 341.75 628.833C341.75 628.843 341.75 628.853 341.75 628.863C341.75 628.873 341.75 628.883 341.75 628.893C341.75 628.903 341.75 628.913 341.75 628.923C341.75 628.933 341.75 628.943 341.75 628.953C341.75 628.963 341.75 628.973 341.75 628.983C341.75 628.993 341.75 629.003 341.75 629.013C341.75 629.023 341.75 629.033 341.75 629.043C341.75 629.053 341.75 629.063 341.75 629.073C341.75 629.083 341.75 629.093 341.75 629.103C341.75 629.113 341.75 629.123 341.75 629.133C341.75 629.143 341.75 629.153 341.75 629.163C341.75 629.173 341.75 629.183 341.75 629.193C341.75 629.203 341.75 629.213 341.75 629.223C341.75 629.233 341.75 629.243 341.75 629.253C341.75 629.263 341.75 629.274 341.75 629.284C341.75 629.294 341.75 629.304 341.75 629.314C341.75 629.324 341.75 629.334 341.75 629.344C341.75 629.354 341.75 629.364 341.75 629.374C341.75 629.384 341.75 629.394 341.75 629.404C341.75 629.414 341.75 629.424 341.75 629.435C341.75 629.445 341.75 629.455 341.75 629.465C341.75 629.475 341.75 629.485 341.75 629.495C341.75 629.505 341.75 629.515 341.75 629.525C341.75 629.535 341.75 629.545 341.75 629.556C341.75 629.566 341.75 629.576 341.75 629.586C341.75 629.596 341.75 629.606 341.75 629.616C341.75 629.626 341.75 629.636 341.75 629.646C341.75 629.657 341.75 629.667 341.75 629.677C341.75 629.687 341.75 629.697 341.75 629.707C341.75 629.717 341.75 629.727 341.75 629.737C341.75 629.748 341.75 629.758 341.75 629.768C341.75 629.778 341.75 629.788 341.75 629.798C341.75 629.808 341.75 629.819 341.75 629.829C341.75 629.839 341.75 629.849 341.75 629.859C341.75 629.869 341.75 629.879 341.75 629.89C341.75 629.9 341.75 629.91 341.75 629.92C341.75 629.93 341.75 629.94 341.75 629.95C341.75 629.961 341.75 629.971 341.75 629.981C341.75 629.991 341.75 630.001 341.75 630.011C341.75 630.022 341.75 630.032 341.75 630.042C341.75 630.052 341.75 630.062 341.75 630.072C341.75 630.083 341.75 630.093 341.75 630.103C341.75 630.113 341.75 630.123 341.75 630.134C341.75 630.144 341.75 630.154 341.75 630.164C341.75 630.174 341.75 630.184 341.75 630.195C341.75 630.205 341.75 630.215 341.75 630.225C341.75 630.235 341.75 630.246 341.75 630.256C341.75 630.266 341.75 630.276 341.75 630.286C341.75 630.297 341.75 630.307 341.75 630.317C341.75 630.327 341.75 630.338 341.75 630.348C341.75 630.358 341.75 630.368 341.75 630.378C341.75 630.389 341.75 630.399 341.75 630.409C341.75 630.419 341.75 630.43 341.75 630.44C341.75 630.45 341.75 630.46 341.75 630.47C341.75 630.481 341.75 630.491 341.75 630.501C341.75 630.511 341.75 630.522 341.75 630.532C341.75 630.542 341.75 630.552 341.75 630.563C341.75 630.573 341.75 630.583 341.75 630.593C341.75 630.604 341.75 630.614 341.75 630.624C341.75 630.634 341.75 630.645 341.75 630.655C341.75 630.665 341.75 630.676 341.75 630.686C341.75 630.696 341.75 630.706 341.75 630.717C341.75 630.727 341.75 630.737 341.75 630.747C341.75 630.758 341.75 630.768 341.75 630.778C341.75 630.789 341.75 630.799 341.75 630.809C341.75 630.819 341.75 630.83 341.75 630.84C341.75 630.85 341.75 630.861 341.75 630.871C341.75 630.881 341.75 630.892 341.75 630.902C341.75 630.912 341.75 630.922 341.75 630.933C341.75 630.943 341.75 630.953 341.75 630.964C341.75 630.974 341.75 630.984 341.75 630.995C341.75 631.005 341.75 631.015 341.75 631.026C341.75 631.036 341.75 631.046 341.75 631.057C341.75 631.067 341.75 631.077 341.75 631.088C341.75 631.098 341.75 631.108 341.75 631.119C341.75 631.129 341.75 631.139 341.75 631.15C341.75 631.16 341.75 631.17 341.75 631.181C341.75 631.191 341.75 631.201 341.75 631.212C341.75 631.222 341.75 631.232 341.75 631.243C341.75 631.253 341.75 631.264 341.75 631.274C341.75 631.284 341.75 631.295 341.75 631.305C341.75 631.315 341.75 631.326 341.75 631.336C341.75 631.346 341.75 631.357 341.75 631.367C341.75 631.378 341.75 631.388 341.75 631.398C341.75 631.409 341.75 631.419 341.75 631.429C341.75 631.44 341.75 631.45 341.75 631.461C341.75 631.471 341.75 631.481 341.75 631.492C341.75 631.502 341.75 631.513 341.75 631.523C341.75 631.533 341.75 631.544 341.75 631.554C341.75 631.565 341.75 631.575 341.75 631.585C341.75 631.596 341.75 631.606 341.75 631.617C341.75 631.627 341.75 631.637 341.75 631.648C341.75 631.658 341.75 631.669 341.75 631.679C341.75 631.69 341.75 631.7 341.75 631.71C341.75 631.721 341.75 631.731 341.75 631.742C341.75 631.752 341.75 631.763 341.75 631.773C341.75 631.783 341.75 631.794 341.75 631.804C341.75 631.815 341.75 631.825 341.75 631.836C341.75 631.846 341.75 631.857 341.75 631.867C341.75 631.878 341.75 631.888 341.75 631.898C341.75 631.909 341.75 631.919 341.75 631.93C341.75 631.94 341.75 631.951 341.75 631.961C341.75 631.972 341.75 631.982 341.75 631.993C341.75 632.003 341.75 632.014 341.75 632.024C341.75 632.035 341.75 632.045 341.75 632.055C341.75 632.066 341.75 632.076 341.75 632.087C341.75 632.097 341.75 632.108 341.75 632.118C341.75 632.129 341.75 632.139 341.75 632.15C341.75 632.16 341.75 632.171 341.75 632.181C341.75 632.192 341.75 632.202 341.75 632.213C341.75 632.223 341.75 632.234 341.75 632.244C341.75 632.255 341.75 632.265 341.75 632.276C341.75 632.286 341.75 632.297 341.75 632.307C341.75 632.318 341.75 632.329 341.75 632.339C341.75 632.35 341.75 632.36 341.75 632.371C341.75 632.381 341.75 632.392 341.75 632.402C341.75 632.413 341.75 632.423 341.75 632.434C341.75 632.444 341.75 632.455 341.75 632.465C341.75 632.476 341.75 632.487 341.75 632.497C341.75 632.508 341.75 632.518 341.75 632.529C341.75 632.539 341.75 632.55 341.75 632.56C341.75 632.571 341.75 632.581 341.75 632.592C341.75 632.603 341.75 632.613 341.75 632.624C341.75 632.634 341.75 632.645 341.75 632.655C341.75 632.666 341.75 632.677 341.75 632.687C341.75 632.698 341.75 632.708 341.75 632.719C341.75 632.729 341.75 632.74 341.75 632.751C341.75 632.761 341.75 632.772 341.75 632.782C341.75 632.793 341.75 632.804 341.75 632.814C341.75 632.825 341.75 632.835 341.75 632.846C341.75 632.857 341.75 632.867 341.75 632.878C341.75 632.888 341.75 632.899 341.75 632.91C341.75 632.92 341.75 632.931 341.75 632.941C341.75 632.952 341.75 632.963 341.75 632.973C341.75 632.984 341.75 632.995 341.75 633.005C341.75 633.016 341.75 633.026 341.75 633.037C341.75 633.048 341.75 633.058 341.75 633.069C341.75 633.08 341.75 633.09 341.75 633.101C341.75 633.111 341.75 633.122 341.75 633.133C341.75 633.143 341.75 633.154 341.75 633.165C341.75 633.175 341.75 633.186 341.75 633.197C341.75 633.207 341.75 633.218 341.75 633.229C341.75 633.239 341.75 633.25 341.75 633.261C341.75 633.271 341.75 633.282 341.75 633.293C341.75 633.303 341.75 633.314 341.75 633.325C341.75 633.335 341.75 633.346 341.75 633.357C341.75 633.367 341.75 633.378 341.75 633.389C341.75 633.399 341.75 633.41 341.75 633.421C341.75 633.431 341.75 633.442 341.75 633.453C341.75 633.463 341.75 633.474 341.75 633.485C341.75 633.496 341.75 633.506 341.75 633.517C341.75 633.528 341.75 633.538 341.75 633.549C341.75 633.56 341.75 633.57 341.75 633.581C341.75 633.592 341.75 633.603 341.75 633.613C341.75 633.624 341.75 633.635 341.75 633.645C341.75 633.656 341.75 633.667 341.75 633.678C341.75 633.688 341.75 633.699 341.75 633.71C341.75 633.721 341.75 633.731 341.75 633.742C341.75 633.753 341.75 633.763 341.75 633.774C341.75 633.785 341.75 633.796 341.75 633.806C341.75 633.817 341.75 633.828 341.75 633.839C341.75 633.849 341.75 633.86 341.75 633.871C341.75 633.882 341.75 633.892 341.75 633.903C341.75 633.914 341.75 633.925 341.75 633.935C341.75 633.946 341.75 633.957 341.75 633.968C341.75 633.979 341.75 633.989 341.75 634C341.75 634.011 341.75 634.022 341.75 634.032C341.75 634.043 341.75 634.054 341.75 634.065C341.75 634.076 341.75 634.086 341.75 634.097C341.75 634.108 341.75 634.119 341.75 634.129C341.75 634.14 341.75 634.151 341.75 634.162C341.75 634.173 341.75 634.183 341.75 634.194C341.75 634.205 341.75 634.216 341.75 634.227C341.75 634.237 341.75 634.248 341.75 634.259C341.75 634.27 341.75 634.281 341.75 634.291C341.75 634.302 341.75 634.313 341.75 634.324C341.75 634.335 341.75 634.346 341.75 634.356C341.75 634.367 341.75 634.378 341.75 634.389C341.75 634.4 341.75 634.411 341.75 634.421C341.75 634.432 341.75 634.443 341.75 634.454C341.75 634.465 341.75 634.476 341.75 634.486C341.75 634.497 341.75 634.508 341.75 634.519C341.75 634.53 341.75 634.541 341.75 634.552C341.75 634.562 341.75 634.573 341.75 634.584C341.75 634.595 341.75 634.606 341.75 634.617C341.75 634.628 341.75 634.638 341.75 634.649C341.75 634.66 341.75 634.671 341.75 634.682C341.75 634.693 341.75 634.704 341.75 634.714C341.75 634.725 341.75 634.736 341.75 634.747C341.75 634.758 341.75 634.769 341.75 634.78C341.75 634.791 341.75 634.802 341.75 634.812C341.75 634.823 341.75 634.834 341.75 634.845C341.75 634.856 341.75 634.867 341.75 634.878C341.75 634.889 341.75 634.9 341.75 634.911C341.75 634.921 341.75 634.932 341.75 634.943C341.75 634.954 341.75 634.965 341.75 634.976C341.75 634.987 341.75 634.998 341.75 635.009C341.75 635.02 341.75 635.031 341.75 635.041C341.75 635.052 341.75 635.063 341.75 635.074C341.75 635.085 341.75 635.096 341.75 635.107C341.75 635.118 341.75 635.129 341.75 635.14C341.75 635.151 341.75 635.162 341.75 635.173C341.75 635.184 341.75 635.195 341.75 635.206C341.75 635.216 341.75 635.227 341.75 635.238C341.75 635.249 341.75 635.26 341.75 635.271C341.75 635.282 341.75 635.293 341.75 635.304C341.75 635.315 341.75 635.326 341.75 635.337C341.75 635.348 341.75 635.359 341.75 635.37C341.75 635.381 341.75 635.392 341.75 635.403C341.75 635.414 341.75 635.425 341.75 635.436C341.75 635.447 341.75 635.458 341.75 635.469C341.75 635.48 341.75 635.491 341.75 635.502C341.75 635.513 341.75 635.524 341.75 635.535C341.75 635.546 341.75 635.557 341.75 635.568C341.75 635.579 341.75 635.59 341.75 635.601C341.75 635.612 341.75 635.623 341.75 635.634C341.75 635.645 341.75 635.656 341.75 635.667C341.75 635.678 341.75 635.689 341.75 635.7C341.75 635.711 341.75 635.722 341.75 635.733C341.75 635.744 341.75 635.755 341.75 635.766C341.75 635.777 341.75 635.788 341.75 635.799C341.75 635.81 341.75 635.821 341.75 635.832C341.75 635.843 341.75 635.854 341.75 635.865C341.75 635.876 341.75 635.887 341.75 635.898C341.75 635.909 341.75 635.921 341.75 635.932C341.75 635.943 341.75 635.954 341.75 635.965C341.75 635.976 341.75 635.987 341.75 635.998C341.75 636.009 341.75 636.02 341.75 636.031C341.75 636.042 341.75 636.053 341.75 636.064C341.75 636.075 341.75 636.086 341.75 636.098C341.75 636.109 341.75 636.12 341.75 636.131C341.75 636.142 341.75 636.153 341.75 636.164C341.75 636.175 341.75 636.186 341.75 636.197C341.75 636.208 341.75 636.219 341.75 636.231C341.75 636.242 341.75 636.253 341.75 636.264C341.75 636.275 341.75 636.286 341.75 636.297C341.75 636.308 341.75 636.319 341.75 636.331C341.75 636.342 341.75 636.353 341.75 636.364C341.75 636.375 341.75 636.386 341.75 636.397C341.75 636.408 341.75 636.419 341.75 636.431C341.75 636.442 341.75 636.453 341.75 636.464C341.75 636.475 341.75 636.486 341.75 636.497C341.75 636.508 341.75 636.52 341.75 636.531C341.75 636.542 341.75 636.553 341.75 636.564C341.75 636.575 341.75 636.586 341.75 636.598C341.75 636.609 341.75 636.62 341.75 636.631C341.75 636.642 341.75 636.653 341.75 636.665C341.75 636.676 341.75 636.687 341.75 636.698C341.75 636.709 341.75 636.72 341.75 636.732C341.75 636.743 341.75 636.754 341.75 636.765C341.75 636.776 341.75 636.787 341.75 636.799C341.75 636.81 341.75 636.821 341.75 636.832C341.75 636.843 341.75 636.854 341.75 636.866C341.75 636.877 341.75 636.888 341.75 636.899C341.75 636.91 341.75 636.922 341.75 636.933C341.75 636.944 341.75 636.955 341.75 636.966C341.75 636.978 341.75 636.989 341.75 637C341.75 637.011 341.75 637.022 341.75 637.034C341.75 637.045 341.75 637.056 341.75 637.067C341.75 637.078 341.75 637.09 341.75 637.101C341.75 637.112 341.75 637.123 341.75 637.135C341.75 637.146 341.75 637.157 341.75 637.168C341.75 637.179 341.75 637.191 341.75 637.202C341.75 637.213 341.75 637.224 341.75 637.236C341.75 637.247 341.75 637.258 341.75 637.269C341.75 637.281 341.75 637.292 341.75 637.303C341.75 637.314 341.75 637.326 341.75 637.337C341.75 637.348 341.75 637.359 341.75 637.371C341.75 637.382 341.75 637.393 341.75 637.404C341.75 637.416 341.75 637.427 341.75 637.438C341.75 637.449 341.75 637.461 341.75 637.472C341.75 637.483 341.75 637.495 341.75 637.506C341.75 637.517 341.75 637.528 341.75 637.54C341.75 637.551 341.75 637.562 341.75 637.574C341.75 637.585 341.75 637.596 341.75 637.607C341.75 637.619 341.75 637.63 341.75 637.641C341.75 637.653 341.75 637.664 341.75 637.675C341.75 637.687 341.75 637.698 341.75 637.709C341.75 637.72 341.75 637.732 341.75 637.743C341.75 637.754 341.75 637.766 341.75 637.777C341.75 637.788 341.75 637.8 341.75 637.811C341.75 637.822 341.75 637.834 341.75 637.845C341.75 637.856 341.75 637.868 341.75 637.879C341.75 637.89 341.75 637.902 341.75 637.913C341.75 637.924 341.75 637.936 341.75 637.947C341.75 637.958 341.75 637.97 341.75 637.981C341.75 637.992 341.75 638.004 341.75 638.015C341.75 638.026 341.75 638.038 341.75 638.049C341.75 638.06 341.75 638.072 341.75 638.083C341.75 638.094 341.75 638.106 341.75 638.117C341.75 638.129 341.75 638.14 341.75 638.151C341.75 638.163 341.75 638.174 341.75 638.185C341.75 638.197 341.75 638.208 341.75 638.219C341.75 638.231 341.75 638.242 341.75 638.254C341.75 638.265 341.75 638.276 341.75 638.288C341.75 638.299 341.75 638.311 341.75 638.322C341.75 638.333 341.75 638.345 341.75 638.356C341.75 638.368 341.75 638.379 341.75 638.39C341.75 638.402 341.75 638.413 341.75 638.425C341.75 638.436 341.75 638.447 341.75 638.459C341.75 638.47 341.75 638.482 341.75 638.493C341.75 638.504 341.75 638.516 341.75 638.527C341.75 638.539 341.75 638.55 341.75 638.562C341.75 638.573 341.75 638.584 341.75 638.596C341.75 638.607 341.75 638.619 341.75 638.63C341.75 638.642 341.75 638.653 341.75 638.664C341.75 638.676 341.75 638.687 341.75 638.699C341.75 638.71 341.75 638.722 341.75 638.733C341.75 638.745 341.75 638.756 341.75 638.767C341.75 638.779 341.75 638.79 341.75 638.802C341.75 638.813 341.75 638.825 341.75 638.836C341.75 638.848 341.75 638.859 341.75 638.871C341.75 638.882 341.75 638.894 341.75 638.905C341.75 638.916 341.75 638.928 341.75 638.939C341.75 638.951 341.75 638.962 341.75 638.974C341.75 638.985 341.75 638.997 341.75 639.008C341.75 639.02 341.75 639.031 341.75 639.043C341.75 639.054 341.75 639.066 341.75 639.077C341.75 639.089 341.75 639.1 341.75 639.112C341.75 639.123 341.75 639.135 341.75 639.146C341.75 639.158 341.75 639.169 341.75 639.181C341.75 639.192 341.75 639.204 341.75 639.215C341.75 639.227 341.75 639.238 341.75 639.25C341.75 639.261 341.75 639.273 341.75 639.284C341.75 639.296 341.75 639.307 341.75 639.319C341.75 639.331 341.75 639.342 341.75 639.354C341.75 639.365 341.75 639.377 341.75 639.388C341.75 639.4 341.75 639.411 341.75 639.423C341.75 639.434 341.75 639.446 341.75 639.458C341.75 639.469 341.75 639.481 341.75 639.492C341.75 639.504 341.75 639.515 341.75 639.527C341.75 639.538 341.75 639.55 341.75 639.562C341.75 639.573 341.75 639.585 341.75 639.596C341.75 639.608 341.75 639.619 341.75 639.631C341.75 639.642 341.75 639.654 341.75 639.666C341.75 639.677 341.75 639.689 341.75 639.7C341.75 639.712 341.75 639.724 341.75 639.735C341.75 639.747 341.75 639.758 341.75 639.77C341.75 639.781 341.75 639.793 341.75 639.805C341.75 639.816 341.75 639.828 341.75 639.839C341.75 639.851 341.75 639.863 341.75 639.874C341.75 639.886 341.75 639.898 341.75 639.909C341.75 639.921 341.75 639.932 341.75 639.944C341.75 639.956 341.75 639.967 341.75 639.979C341.75 639.99 341.75 640.002 341.75 640.014C341.75 640.025 341.75 640.037 341.75 640.049C341.75 640.06 341.75 640.072 341.75 640.083C341.75 640.095 341.75 640.107 341.75 640.118C341.75 640.13 341.75 640.142 341.75 640.153C341.75 640.165 341.75 640.177 341.75 640.188C341.75 640.2 341.75 640.212 341.75 640.223C341.75 640.235 341.75 640.247 341.75 640.258C341.75 640.27 341.75 640.281 341.75 640.293C341.75 640.305 341.75 640.316 341.75 640.328C341.75 640.34 341.75 640.351 341.75 640.363C341.75 640.375 341.75 640.387 341.75 640.398C341.75 640.41 341.75 640.422 341.75 640.433C341.75 640.445 341.75 640.457 341.75 640.468C341.75 640.48 341.75 640.492 341.75 640.503C341.75 640.515 341.75 640.527 341.75 640.538C341.75 640.55 341.75 640.562 341.75 640.574C341.75 640.585 341.75 640.597 341.75 640.609C341.75 640.62 341.75 640.632 341.75 640.644C341.75 640.655 341.75 640.667 341.75 640.679C341.75 640.691 341.75 640.702 341.75 640.714C341.75 640.726 341.75 640.738 341.75 640.749C341.75 640.761 341.75 640.773 341.75 640.784C341.75 640.796 341.75 640.808 341.75 640.82C341.75 640.831 341.75 640.843 341.75 640.855C341.75 640.867 341.75 640.878 341.75 640.89C341.75 640.902 341.75 640.914 341.75 640.925C341.75 640.937 341.75 640.949 341.75 640.961C341.75 640.972 341.75 640.984 341.75 640.996C341.75 641.008 341.75 641.019 341.75 641.031C341.75 641.043 341.75 641.055 341.75 641.066C341.75 641.078 341.75 641.09 341.75 641.102C341.75 641.113 341.75 641.125 341.75 641.137C341.75 641.149 341.75 641.161 341.75 641.172C341.75 641.184 341.75 641.196 341.75 641.208C341.75 641.22 341.75 641.231 341.75 641.243C341.75 641.255 341.75 641.267 341.75 641.278C341.75 641.29 341.75 641.302 341.75 641.314C341.75 641.326 341.75 641.337 341.75 641.349C341.75 641.361 341.75 641.373 341.75 641.385C341.75 641.397 341.75 641.408 341.75 641.42C341.75 641.432 341.75 641.444 341.75 641.456C341.75 641.467 341.75 641.479 341.75 641.491C341.75 641.503 341.75 641.515 341.75 641.527C341.75 641.538 341.75 641.55 341.75 641.562C341.75 641.574 341.75 641.586 341.75 641.598C341.75 641.609 341.75 641.621 341.75 641.633C341.75 641.645 341.75 641.657 341.75 641.669C341.75 641.681 341.75 641.692 341.75 641.704C341.75 641.716 341.75 641.728 341.75 641.74C341.75 641.752 341.75 641.763 341.75 641.775C341.75 641.787 341.75 641.799 341.75 641.811C341.75 641.823 341.75 641.835 341.75 641.847C341.75 641.858 341.75 641.87 341.75 641.882C341.75 641.894 341.75 641.906 341.75 641.918C341.75 641.93 341.75 641.942 341.75 641.953C341.75 641.965 341.75 641.977 341.75 641.989C341.75 642.001 341.75 642.013 341.75 642.025C341.75 642.037 341.75 642.049 341.75 642.061C341.75 642.072 341.75 642.084 341.75 642.096C341.75 642.108 341.75 642.12 341.75 642.132C341.75 642.144 341.75 642.156 341.75 642.168C341.75 642.18 341.75 642.192 341.75 642.203C341.75 642.215 341.75 642.227 341.75 642.239C341.75 642.251 341.75 642.263 341.75 642.275C341.75 642.287 341.75 642.299 341.75 642.311C341.75 642.323 341.75 642.335 341.75 642.347C341.75 642.359 341.75 642.371 341.75 642.382C341.75 642.394 341.75 642.406 341.75 642.418C341.75 642.43 341.75 642.442 341.75 642.454C341.75 642.466 341.75 642.478 341.75 642.49C341.75 642.502 341.75 642.514 341.75 642.526C341.75 642.538 341.75 642.55 341.75 642.562C341.75 642.574 341.75 642.586 341.75 642.598C341.75 642.61 341.75 642.622 341.75 642.634C341.75 642.646 341.75 642.658 341.75 642.67C341.75 642.682 341.75 642.694 341.75 642.706C341.75 642.718 341.75 642.73 341.75 642.742C341.75 642.754 341.75 642.766 341.75 642.778C341.75 642.79 341.75 642.802 341.75 642.814C341.75 642.826 341.75 642.838 341.75 642.85C341.75 642.862 341.75 642.874 341.75 642.886C341.75 642.898 341.75 642.91 341.75 642.922C341.75 642.934 341.75 642.946 341.75 642.958C341.75 642.97 341.75 642.982 341.75 642.994C341.75 643.006 341.75 643.018 341.75 643.03C341.75 643.042 341.75 643.054 341.75 643.066C341.75 643.078 341.75 643.09 341.75 643.102C341.75 643.114 341.75 643.126 341.75 643.138C341.75 643.15 341.75 643.162 341.75 643.174C341.75 643.186 341.75 643.198 341.75 643.21C341.75 643.223 341.75 643.235 341.75 643.247C341.75 643.259 341.75 643.271 341.75 643.283C341.75 643.295 341.75 643.307 341.75 643.319C341.75 643.331 341.75 643.343 341.75 643.355C341.75 643.367 341.75 643.379 341.75 643.391C341.75 643.404 341.75 643.416 341.75 643.428C341.75 643.44 341.75 643.452 341.75 643.464C341.75 643.476 341.75 643.488 341.75 643.5C341.75 643.512 341.75 643.524 341.75 643.536C341.75 643.549 341.75 643.561 341.75 643.573C341.75 643.585 341.75 643.597 341.75 643.609C341.75 643.621 341.75 643.633 341.75 643.645C341.75 643.658 341.75 643.67 341.75 643.682C341.75 643.694 341.75 643.706 341.75 643.718C341.75 643.73 341.75 643.742 341.75 643.755C341.75 643.767 341.75 643.779 341.75 643.791C341.75 643.803 341.75 643.815 341.75 643.827C341.75 643.839 341.75 643.852 341.75 643.864C341.75 643.876 341.75 643.888 341.75 643.9C341.75 643.912 341.75 643.924 341.75 643.937C341.75 643.949 341.75 643.961 341.75 643.973C341.75 643.985 341.75 643.997 341.75 644.01C341.75 644.022 341.75 644.034 341.75 644.046C341.75 644.058 341.75 644.07 341.75 644.082C341.75 644.095 341.75 644.107 341.75 644.119C341.75 644.131 341.75 644.143 341.75 644.156C341.75 644.168 341.75 644.18 341.75 644.192C341.75 644.204 341.75 644.216 341.75 644.229C341.75 644.241 341.75 644.253 341.75 644.265C341.75 644.277 341.75 644.29 341.75 644.302C341.75 644.314 341.75 644.326 341.75 644.338C341.75 644.351 341.75 644.363 341.75 644.375H343.75C343.75 644.363 343.75 644.351 343.75 644.338C343.75 644.326 343.75 644.314 343.75 644.302C343.75 644.29 343.75 644.277 343.75 644.265C343.75 644.253 343.75 644.241 343.75 644.229C343.75 644.216 343.75 644.204 343.75 644.192C343.75 644.18 343.75 644.168 343.75 644.156C343.75 644.143 343.75 644.131 343.75 644.119C343.75 644.107 343.75 644.095 343.75 644.082C343.75 644.07 343.75 644.058 343.75 644.046C343.75 644.034 343.75 644.022 343.75 644.01C343.75 643.997 343.75 643.985 343.75 643.973C343.75 643.961 343.75 643.949 343.75 643.937C343.75 643.924 343.75 643.912 343.75 643.9C343.75 643.888 343.75 643.876 343.75 643.864C343.75 643.852 343.75 643.839 343.75 643.827C343.75 643.815 343.75 643.803 343.75 643.791C343.75 643.779 343.75 643.767 343.75 643.755C343.75 643.742 343.75 643.73 343.75 643.718C343.75 643.706 343.75 643.694 343.75 643.682C343.75 643.67 343.75 643.658 343.75 643.645C343.75 643.633 343.75 643.621 343.75 643.609C343.75 643.597 343.75 643.585 343.75 643.573C343.75 643.561 343.75 643.549 343.75 643.536C343.75 643.524 343.75 643.512 343.75 643.5C343.75 643.488 343.75 643.476 343.75 643.464C343.75 643.452 343.75 643.44 343.75 643.428C343.75 643.416 343.75 643.404 343.75 643.391C343.75 643.379 343.75 643.367 343.75 643.355C343.75 643.343 343.75 643.331 343.75 643.319C343.75 643.307 343.75 643.295 343.75 643.283C343.75 643.271 343.75 643.259 343.75 643.247C343.75 643.235 343.75 643.223 343.75 643.21C343.75 643.198 343.75 643.186 343.75 643.174C343.75 643.162 343.75 643.15 343.75 643.138C343.75 643.126 343.75 643.114 343.75 643.102C343.75 643.09 343.75 643.078 343.75 643.066C343.75 643.054 343.75 643.042 343.75 643.03C343.75 643.018 343.75 643.006 343.75 642.994C343.75 642.982 343.75 642.97 343.75 642.958C343.75 642.946 343.75 642.934 343.75 642.922C343.75 642.91 343.75 642.898 343.75 642.886C343.75 642.874 343.75 642.862 343.75 642.85C343.75 642.838 343.75 642.826 343.75 642.814C343.75 642.802 343.75 642.79 343.75 642.778C343.75 642.766 343.75 642.754 343.75 642.742C343.75 642.73 343.75 642.718 343.75 642.706C343.75 642.694 343.75 642.682 343.75 642.67C343.75 642.658 343.75 642.646 343.75 642.634C343.75 642.622 343.75 642.61 343.75 642.598C343.75 642.586 343.75 642.574 343.75 642.562C343.75 642.55 343.75 642.538 343.75 642.526C343.75 642.514 343.75 642.502 343.75 642.49C343.75 642.478 343.75 642.466 343.75 642.454C343.75 642.442 343.75 642.43 343.75 642.418C343.75 642.406 343.75 642.394 343.75 642.382C343.75 642.371 343.75 642.359 343.75 642.347C343.75 642.335 343.75 642.323 343.75 642.311C343.75 642.299 343.75 642.287 343.75 642.275C343.75 642.263 343.75 642.251 343.75 642.239C343.75 642.227 343.75 642.215 343.75 642.203C343.75 642.192 343.75 642.18 343.75 642.168C343.75 642.156 343.75 642.144 343.75 642.132C343.75 642.12 343.75 642.108 343.75 642.096C343.75 642.084 343.75 642.072 343.75 642.061C343.75 642.049 343.75 642.037 343.75 642.025C343.75 642.013 343.75 642.001 343.75 641.989C343.75 641.977 343.75 641.965 343.75 641.953C343.75 641.942 343.75 641.93 343.75 641.918C343.75 641.906 343.75 641.894 343.75 641.882C343.75 641.87 343.75 641.858 343.75 641.847C343.75 641.835 343.75 641.823 343.75 641.811C343.75 641.799 343.75 641.787 343.75 641.775C343.75 641.763 343.75 641.752 343.75 641.74C343.75 641.728 343.75 641.716 343.75 641.704C343.75 641.692 343.75 641.681 343.75 641.669C343.75 641.657 343.75 641.645 343.75 641.633C343.75 641.621 343.75 641.609 343.75 641.598C343.75 641.586 343.75 641.574 343.75 641.562C343.75 641.55 343.75 641.538 343.75 641.527C343.75 641.515 343.75 641.503 343.75 641.491C343.75 641.479 343.75 641.467 343.75 641.456C343.75 641.444 343.75 641.432 343.75 641.42C343.75 641.408 343.75 641.397 343.75 641.385C343.75 641.373 343.75 641.361 343.75 641.349C343.75 641.337 343.75 641.326 343.75 641.314C343.75 641.302 343.75 641.29 343.75 641.278C343.75 641.267 343.75 641.255 343.75 641.243C343.75 641.231 343.75 641.22 343.75 641.208C343.75 641.196 343.75 641.184 343.75 641.172C343.75 641.161 343.75 641.149 343.75 641.137C343.75 641.125 343.75 641.113 343.75 641.102C343.75 641.09 343.75 641.078 343.75 641.066C343.75 641.055 343.75 641.043 343.75 641.031C343.75 641.019 343.75 641.008 343.75 640.996C343.75 640.984 343.75 640.972 343.75 640.961C343.75 640.949 343.75 640.937 343.75 640.925C343.75 640.914 343.75 640.902 343.75 640.89C343.75 640.878 343.75 640.867 343.75 640.855C343.75 640.843 343.75 640.831 343.75 640.82C343.75 640.808 343.75 640.796 343.75 640.784C343.75 640.773 343.75 640.761 343.75 640.749C343.75 640.738 343.75 640.726 343.75 640.714C343.75 640.702 343.75 640.691 343.75 640.679C343.75 640.667 343.75 640.655 343.75 640.644C343.75 640.632 343.75 640.62 343.75 640.609C343.75 640.597 343.75 640.585 343.75 640.574C343.75 640.562 343.75 640.55 343.75 640.538C343.75 640.527 343.75 640.515 343.75 640.503C343.75 640.492 343.75 640.48 343.75 640.468C343.75 640.457 343.75 640.445 343.75 640.433C343.75 640.422 343.75 640.41 343.75 640.398C343.75 640.387 343.75 640.375 343.75 640.363C343.75 640.351 343.75 640.34 343.75 640.328C343.75 640.316 343.75 640.305 343.75 640.293C343.75 640.281 343.75 640.27 343.75 640.258C343.75 640.247 343.75 640.235 343.75 640.223C343.75 640.212 343.75 640.2 343.75 640.188C343.75 640.177 343.75 640.165 343.75 640.153C343.75 640.142 343.75 640.13 343.75 640.118C343.75 640.107 343.75 640.095 343.75 640.083C343.75 640.072 343.75 640.06 343.75 640.049C343.75 640.037 343.75 640.025 343.75 640.014C343.75 640.002 343.75 639.99 343.75 639.979C343.75 639.967 343.75 639.956 343.75 639.944C343.75 639.932 343.75 639.921 343.75 639.909C343.75 639.898 343.75 639.886 343.75 639.874C343.75 639.863 343.75 639.851 343.75 639.839C343.75 639.828 343.75 639.816 343.75 639.805C343.75 639.793 343.75 639.781 343.75 639.77C343.75 639.758 343.75 639.747 343.75 639.735C343.75 639.724 343.75 639.712 343.75 639.7C343.75 639.689 343.75 639.677 343.75 639.666C343.75 639.654 343.75 639.642 343.75 639.631C343.75 639.619 343.75 639.608 343.75 639.596C343.75 639.585 343.75 639.573 343.75 639.562C343.75 639.55 343.75 639.538 343.75 639.527C343.75 639.515 343.75 639.504 343.75 639.492C343.75 639.481 343.75 639.469 343.75 639.458C343.75 639.446 343.75 639.434 343.75 639.423C343.75 639.411 343.75 639.4 343.75 639.388C343.75 639.377 343.75 639.365 343.75 639.354C343.75 639.342 343.75 639.331 343.75 639.319C343.75 639.307 343.75 639.296 343.75 639.284C343.75 639.273 343.75 639.261 343.75 639.25C343.75 639.238 343.75 639.227 343.75 639.215C343.75 639.204 343.75 639.192 343.75 639.181C343.75 639.169 343.75 639.158 343.75 639.146C343.75 639.135 343.75 639.123 343.75 639.112C343.75 639.1 343.75 639.089 343.75 639.077C343.75 639.066 343.75 639.054 343.75 639.043C343.75 639.031 343.75 639.02 343.75 639.008C343.75 638.997 343.75 638.985 343.75 638.974C343.75 638.962 343.75 638.951 343.75 638.939C343.75 638.928 343.75 638.916 343.75 638.905C343.75 638.894 343.75 638.882 343.75 638.871C343.75 638.859 343.75 638.848 343.75 638.836C343.75 638.825 343.75 638.813 343.75 638.802C343.75 638.79 343.75 638.779 343.75 638.767C343.75 638.756 343.75 638.745 343.75 638.733C343.75 638.722 343.75 638.71 343.75 638.699C343.75 638.687 343.75 638.676 343.75 638.664C343.75 638.653 343.75 638.642 343.75 638.63C343.75 638.619 343.75 638.607 343.75 638.596C343.75 638.584 343.75 638.573 343.75 638.562C343.75 638.55 343.75 638.539 343.75 638.527C343.75 638.516 343.75 638.504 343.75 638.493C343.75 638.482 343.75 638.47 343.75 638.459C343.75 638.447 343.75 638.436 343.75 638.425C343.75 638.413 343.75 638.402 343.75 638.39C343.75 638.379 343.75 638.368 343.75 638.356C343.75 638.345 343.75 638.333 343.75 638.322C343.75 638.311 343.75 638.299 343.75 638.288C343.75 638.276 343.75 638.265 343.75 638.254C343.75 638.242 343.75 638.231 343.75 638.219C343.75 638.208 343.75 638.197 343.75 638.185C343.75 638.174 343.75 638.163 343.75 638.151C343.75 638.14 343.75 638.129 343.75 638.117C343.75 638.106 343.75 638.094 343.75 638.083C343.75 638.072 343.75 638.06 343.75 638.049C343.75 638.038 343.75 638.026 343.75 638.015C343.75 638.004 343.75 637.992 343.75 637.981C343.75 637.97 343.75 637.958 343.75 637.947C343.75 637.936 343.75 637.924 343.75 637.913C343.75 637.902 343.75 637.89 343.75 637.879C343.75 637.868 343.75 637.856 343.75 637.845C343.75 637.834 343.75 637.822 343.75 637.811C343.75 637.8 343.75 637.788 343.75 637.777C343.75 637.766 343.75 637.754 343.75 637.743C343.75 637.732 343.75 637.72 343.75 637.709C343.75 637.698 343.75 637.687 343.75 637.675C343.75 637.664 343.75 637.653 343.75 637.641C343.75 637.63 343.75 637.619 343.75 637.607C343.75 637.596 343.75 637.585 343.75 637.574C343.75 637.562 343.75 637.551 343.75 637.54C343.75 637.528 343.75 637.517 343.75 637.506C343.75 637.495 343.75 637.483 343.75 637.472C343.75 637.461 343.75 637.449 343.75 637.438C343.75 637.427 343.75 637.416 343.75 637.404C343.75 637.393 343.75 637.382 343.75 637.371C343.75 637.359 343.75 637.348 343.75 637.337C343.75 637.326 343.75 637.314 343.75 637.303C343.75 637.292 343.75 637.281 343.75 637.269C343.75 637.258 343.75 637.247 343.75 637.236C343.75 637.224 343.75 637.213 343.75 637.202C343.75 637.191 343.75 637.179 343.75 637.168C343.75 637.157 343.75 637.146 343.75 637.135C343.75 637.123 343.75 637.112 343.75 637.101C343.75 637.09 343.75 637.078 343.75 637.067C343.75 637.056 343.75 637.045 343.75 637.034C343.75 637.022 343.75 637.011 343.75 637C343.75 636.989 343.75 636.978 343.75 636.966C343.75 636.955 343.75 636.944 343.75 636.933C343.75 636.922 343.75 636.91 343.75 636.899C343.75 636.888 343.75 636.877 343.75 636.866C343.75 636.854 343.75 636.843 343.75 636.832C343.75 636.821 343.75 636.81 343.75 636.799C343.75 636.787 343.75 636.776 343.75 636.765C343.75 636.754 343.75 636.743 343.75 636.732C343.75 636.72 343.75 636.709 343.75 636.698C343.75 636.687 343.75 636.676 343.75 636.665C343.75 636.653 343.75 636.642 343.75 636.631C343.75 636.62 343.75 636.609 343.75 636.598C343.75 636.586 343.75 636.575 343.75 636.564C343.75 636.553 343.75 636.542 343.75 636.531C343.75 636.52 343.75 636.508 343.75 636.497C343.75 636.486 343.75 636.475 343.75 636.464C343.75 636.453 343.75 636.442 343.75 636.431C343.75 636.419 343.75 636.408 343.75 636.397C343.75 636.386 343.75 636.375 343.75 636.364C343.75 636.353 343.75 636.342 343.75 636.331C343.75 636.319 343.75 636.308 343.75 636.297C343.75 636.286 343.75 636.275 343.75 636.264C343.75 636.253 343.75 636.242 343.75 636.231C343.75 636.219 343.75 636.208 343.75 636.197C343.75 636.186 343.75 636.175 343.75 636.164C343.75 636.153 343.75 636.142 343.75 636.131C343.75 636.12 343.75 636.109 343.75 636.098C343.75 636.086 343.75 636.075 343.75 636.064C343.75 636.053 343.75 636.042 343.75 636.031C343.75 636.02 343.75 636.009 343.75 635.998C343.75 635.987 343.75 635.976 343.75 635.965C343.75 635.954 343.75 635.943 343.75 635.932C343.75 635.921 343.75 635.909 343.75 635.898C343.75 635.887 343.75 635.876 343.75 635.865C343.75 635.854 343.75 635.843 343.75 635.832C343.75 635.821 343.75 635.81 343.75 635.799C343.75 635.788 343.75 635.777 343.75 635.766C343.75 635.755 343.75 635.744 343.75 635.733C343.75 635.722 343.75 635.711 343.75 635.7C343.75 635.689 343.75 635.678 343.75 635.667C343.75 635.656 343.75 635.645 343.75 635.634C343.75 635.623 343.75 635.612 343.75 635.601C343.75 635.59 343.75 635.579 343.75 635.568C343.75 635.557 343.75 635.546 343.75 635.535C343.75 635.524 343.75 635.513 343.75 635.502C343.75 635.491 343.75 635.48 343.75 635.469C343.75 635.458 343.75 635.447 343.75 635.436C343.75 635.425 343.75 635.414 343.75 635.403C343.75 635.392 343.75 635.381 343.75 635.37C343.75 635.359 343.75 635.348 343.75 635.337C343.75 635.326 343.75 635.315 343.75 635.304C343.75 635.293 343.75 635.282 343.75 635.271C343.75 635.26 343.75 635.249 343.75 635.238C343.75 635.227 343.75 635.216 343.75 635.206C343.75 635.195 343.75 635.184 343.75 635.173C343.75 635.162 343.75 635.151 343.75 635.14C343.75 635.129 343.75 635.118 343.75 635.107C343.75 635.096 343.75 635.085 343.75 635.074C343.75 635.063 343.75 635.052 343.75 635.041C343.75 635.031 343.75 635.02 343.75 635.009C343.75 634.998 343.75 634.987 343.75 634.976C343.75 634.965 343.75 634.954 343.75 634.943C343.75 634.932 343.75 634.921 343.75 634.911C343.75 634.9 343.75 634.889 343.75 634.878C343.75 634.867 343.75 634.856 343.75 634.845C343.75 634.834 343.75 634.823 343.75 634.812C343.75 634.802 343.75 634.791 343.75 634.78C343.75 634.769 343.75 634.758 343.75 634.747C343.75 634.736 343.75 634.725 343.75 634.714C343.75 634.704 343.75 634.693 343.75 634.682C343.75 634.671 343.75 634.66 343.75 634.649C343.75 634.638 343.75 634.628 343.75 634.617C343.75 634.606 343.75 634.595 343.75 634.584C343.75 634.573 343.75 634.562 343.75 634.552C343.75 634.541 343.75 634.53 343.75 634.519C343.75 634.508 343.75 634.497 343.75 634.486C343.75 634.476 343.75 634.465 343.75 634.454C343.75 634.443 343.75 634.432 343.75 634.421C343.75 634.411 343.75 634.4 343.75 634.389C343.75 634.378 343.75 634.367 343.75 634.356C343.75 634.346 343.75 634.335 343.75 634.324C343.75 634.313 343.75 634.302 343.75 634.291C343.75 634.281 343.75 634.27 343.75 634.259C343.75 634.248 343.75 634.237 343.75 634.227C343.75 634.216 343.75 634.205 343.75 634.194C343.75 634.183 343.75 634.173 343.75 634.162C343.75 634.151 343.75 634.14 343.75 634.129C343.75 634.119 343.75 634.108 343.75 634.097C343.75 634.086 343.75 634.076 343.75 634.065C343.75 634.054 343.75 634.043 343.75 634.032C343.75 634.022 343.75 634.011 343.75 634C343.75 633.989 343.75 633.979 343.75 633.968C343.75 633.957 343.75 633.946 343.75 633.935C343.75 633.925 343.75 633.914 343.75 633.903C343.75 633.892 343.75 633.882 343.75 633.871C343.75 633.86 343.75 633.849 343.75 633.839C343.75 633.828 343.75 633.817 343.75 633.806C343.75 633.796 343.75 633.785 343.75 633.774C343.75 633.763 343.75 633.753 343.75 633.742C343.75 633.731 343.75 633.721 343.75 633.71C343.75 633.699 343.75 633.688 343.75 633.678C343.75 633.667 343.75 633.656 343.75 633.645C343.75 633.635 343.75 633.624 343.75 633.613C343.75 633.603 343.75 633.592 343.75 633.581C343.75 633.57 343.75 633.56 343.75 633.549C343.75 633.538 343.75 633.528 343.75 633.517C343.75 633.506 343.75 633.496 343.75 633.485C343.75 633.474 343.75 633.463 343.75 633.453C343.75 633.442 343.75 633.431 343.75 633.421C343.75 633.41 343.75 633.399 343.75 633.389C343.75 633.378 343.75 633.367 343.75 633.357C343.75 633.346 343.75 633.335 343.75 633.325C343.75 633.314 343.75 633.303 343.75 633.293C343.75 633.282 343.75 633.271 343.75 633.261C343.75 633.25 343.75 633.239 343.75 633.229C343.75 633.218 343.75 633.207 343.75 633.197C343.75 633.186 343.75 633.175 343.75 633.165C343.75 633.154 343.75 633.143 343.75 633.133C343.75 633.122 343.75 633.111 343.75 633.101C343.75 633.09 343.75 633.08 343.75 633.069C343.75 633.058 343.75 633.048 343.75 633.037C343.75 633.026 343.75 633.016 343.75 633.005C343.75 632.995 343.75 632.984 343.75 632.973C343.75 632.963 343.75 632.952 343.75 632.941C343.75 632.931 343.75 632.92 343.75 632.91C343.75 632.899 343.75 632.888 343.75 632.878C343.75 632.867 343.75 632.857 343.75 632.846C343.75 632.835 343.75 632.825 343.75 632.814C343.75 632.804 343.75 632.793 343.75 632.782C343.75 632.772 343.75 632.761 343.75 632.751C343.75 632.74 343.75 632.729 343.75 632.719C343.75 632.708 343.75 632.698 343.75 632.687C343.75 632.677 343.75 632.666 343.75 632.655C343.75 632.645 343.75 632.634 343.75 632.624C343.75 632.613 343.75 632.603 343.75 632.592C343.75 632.581 343.75 632.571 343.75 632.56C343.75 632.55 343.75 632.539 343.75 632.529C343.75 632.518 343.75 632.508 343.75 632.497C343.75 632.487 343.75 632.476 343.75 632.465C343.75 632.455 343.75 632.444 343.75 632.434C343.75 632.423 343.75 632.413 343.75 632.402C343.75 632.392 343.75 632.381 343.75 632.371C343.75 632.36 343.75 632.35 343.75 632.339C343.75 632.329 343.75 632.318 343.75 632.307C343.75 632.297 343.75 632.286 343.75 632.276C343.75 632.265 343.75 632.255 343.75 632.244C343.75 632.234 343.75 632.223 343.75 632.213C343.75 632.202 343.75 632.192 343.75 632.181C343.75 632.171 343.75 632.16 343.75 632.15C343.75 632.139 343.75 632.129 343.75 632.118C343.75 632.108 343.75 632.097 343.75 632.087C343.75 632.076 343.75 632.066 343.75 632.055C343.75 632.045 343.75 632.035 343.75 632.024C343.75 632.014 343.75 632.003 343.75 631.993C343.75 631.982 343.75 631.972 343.75 631.961C343.75 631.951 343.75 631.94 343.75 631.93C343.75 631.919 343.75 631.909 343.75 631.898C343.75 631.888 343.75 631.878 343.75 631.867C343.75 631.857 343.75 631.846 343.75 631.836C343.75 631.825 343.75 631.815 343.75 631.804C343.75 631.794 343.75 631.783 343.75 631.773C343.75 631.763 343.75 631.752 343.75 631.742C343.75 631.731 343.75 631.721 343.75 631.71C343.75 631.7 343.75 631.69 343.75 631.679C343.75 631.669 343.75 631.658 343.75 631.648C343.75 631.637 343.75 631.627 343.75 631.617C343.75 631.606 343.75 631.596 343.75 631.585C343.75 631.575 343.75 631.565 343.75 631.554C343.75 631.544 343.75 631.533 343.75 631.523C343.75 631.513 343.75 631.502 343.75 631.492C343.75 631.481 343.75 631.471 343.75 631.461C343.75 631.45 343.75 631.44 343.75 631.429C343.75 631.419 343.75 631.409 343.75 631.398C343.75 631.388 343.75 631.378 343.75 631.367C343.75 631.357 343.75 631.346 343.75 631.336C343.75 631.326 343.75 631.315 343.75 631.305C343.75 631.295 343.75 631.284 343.75 631.274C343.75 631.264 343.75 631.253 343.75 631.243C343.75 631.232 343.75 631.222 343.75 631.212C343.75 631.201 343.75 631.191 343.75 631.181C343.75 631.17 343.75 631.16 343.75 631.15C343.75 631.139 343.75 631.129 343.75 631.119C343.75 631.108 343.75 631.098 343.75 631.088C343.75 631.077 343.75 631.067 343.75 631.057C343.75 631.046 343.75 631.036 343.75 631.026C343.75 631.015 343.75 631.005 343.75 630.995C343.75 630.984 343.75 630.974 343.75 630.964C343.75 630.953 343.75 630.943 343.75 630.933C343.75 630.922 343.75 630.912 343.75 630.902C343.75 630.892 343.75 630.881 343.75 630.871C343.75 630.861 343.75 630.85 343.75 630.84C343.75 630.83 343.75 630.819 343.75 630.809C343.75 630.799 343.75 630.789 343.75 630.778C343.75 630.768 343.75 630.758 343.75 630.747C343.75 630.737 343.75 630.727 343.75 630.717C343.75 630.706 343.75 630.696 343.75 630.686C343.75 630.676 343.75 630.665 343.75 630.655C343.75 630.645 343.75 630.634 343.75 630.624C343.75 630.614 343.75 630.604 343.75 630.593C343.75 630.583 343.75 630.573 343.75 630.563C343.75 630.552 343.75 630.542 343.75 630.532C343.75 630.522 343.75 630.511 343.75 630.501C343.75 630.491 343.75 630.481 343.75 630.47C343.75 630.46 343.75 630.45 343.75 630.44C343.75 630.43 343.75 630.419 343.75 630.409C343.75 630.399 343.75 630.389 343.75 630.378C343.75 630.368 343.75 630.358 343.75 630.348C343.75 630.338 343.75 630.327 343.75 630.317C343.75 630.307 343.75 630.297 343.75 630.286C343.75 630.276 343.75 630.266 343.75 630.256C343.75 630.246 343.75 630.235 343.75 630.225C343.75 630.215 343.75 630.205 343.75 630.195C343.75 630.184 343.75 630.174 343.75 630.164C343.75 630.154 343.75 630.144 343.75 630.134C343.75 630.123 343.75 630.113 343.75 630.103C343.75 630.093 343.75 630.083 343.75 630.072C343.75 630.062 343.75 630.052 343.75 630.042C343.75 630.032 343.75 630.022 343.75 630.011C343.75 630.001 343.75 629.991 343.75 629.981C343.75 629.971 343.75 629.961 343.75 629.95C343.75 629.94 343.75 629.93 343.75 629.92C343.75 629.91 343.75 629.9 343.75 629.89C343.75 629.879 343.75 629.869 343.75 629.859C343.75 629.849 343.75 629.839 343.75 629.829C343.75 629.819 343.75 629.808 343.75 629.798C343.75 629.788 343.75 629.778 343.75 629.768C343.75 629.758 343.75 629.748 343.75 629.737C343.75 629.727 343.75 629.717 343.75 629.707C343.75 629.697 343.75 629.687 343.75 629.677C343.75 629.667 343.75 629.657 343.75 629.646C343.75 629.636 343.75 629.626 343.75 629.616C343.75 629.606 343.75 629.596 343.75 629.586C343.75 629.576 343.75 629.566 343.75 629.556C343.75 629.545 343.75 629.535 343.75 629.525C343.75 629.515 343.75 629.505 343.75 629.495C343.75 629.485 343.75 629.475 343.75 629.465C343.75 629.455 343.75 629.445 343.75 629.435C343.75 629.424 343.75 629.414 343.75 629.404C343.75 629.394 343.75 629.384 343.75 629.374C343.75 629.364 343.75 629.354 343.75 629.344C343.75 629.334 343.75 629.324 343.75 629.314C343.75 629.304 343.75 629.294 343.75 629.284C343.75 629.274 343.75 629.263 343.75 629.253C343.75 629.243 343.75 629.233 343.75 629.223C343.75 629.213 343.75 629.203 343.75 629.193C343.75 629.183 343.75 629.173 343.75 629.163C343.75 629.153 343.75 629.143 343.75 629.133C343.75 629.123 343.75 629.113 343.75 629.103C343.75 629.093 343.75 629.083 343.75 629.073C343.75 629.063 343.75 629.053 343.75 629.043C343.75 629.033 343.75 629.023 343.75 629.013C343.75 629.003 343.75 628.993 343.75 628.983C343.75 628.973 343.75 628.963 343.75 628.953C343.75 628.943 343.75 628.933 343.75 628.923C343.75 628.913 343.75 628.903 343.75 628.893C343.75 628.883 343.75 628.873 343.75 628.863C343.75 628.853 343.75 628.843 343.75 628.833C343.75 628.823 343.75 628.813 343.75 628.803C343.75 628.793 343.75 628.783 343.75 628.773C343.75 628.763 343.75 628.753 343.75 628.743C343.75 628.733 343.75 628.723 343.75 628.713C343.75 628.703 343.75 628.693 343.75 628.683C343.75 628.673 343.75 628.663 343.75 628.653C343.75 628.644 343.75 628.634 343.75 628.624C343.75 628.614 343.75 628.604 343.75 628.594C343.75 628.584 343.75 628.574 343.75 628.564C343.75 628.554 343.75 628.544 343.75 628.534C343.75 628.524 343.75 628.514 343.75 628.504C343.75 628.494 343.75 628.485 343.75 628.475C343.75 628.465 343.75 628.455 343.75 628.445C343.75 628.435 343.75 628.425 343.75 628.415C343.75 628.405 343.75 628.395 343.75 628.385C343.75 628.375 343.75 628.366 343.75 628.356C343.75 628.346 343.75 628.336 343.75 628.326C343.75 628.316 343.75 628.306 343.75 628.296C343.75 628.286 343.75 628.276 343.75 628.267C343.75 628.257 343.75 628.247 343.75 628.237C343.75 628.227 343.75 628.217 343.75 628.207C343.75 628.197 343.75 628.187 343.75 628.178C343.75 628.168 343.75 628.158 343.75 628.148C343.75 628.138 343.75 628.128 343.75 628.118C343.75 628.109 343.75 628.099 343.75 628.089C343.75 628.079 343.75 628.069 343.75 628.059C343.75 628.049 343.75 628.04 343.75 628.03C343.75 628.02 343.75 628.01 343.75 628C343.75 627.99 343.75 627.98 343.75 627.971C343.75 627.961 343.75 627.951 343.75 627.941C343.75 627.931 343.75 627.921 343.75 627.912C343.75 627.902 343.75 627.892 343.75 627.882C343.75 627.872 343.75 627.862 343.75 627.853C343.75 627.843 343.75 627.833 343.75 627.823C343.75 627.813 343.75 627.803 343.75 627.794C343.75 627.784 343.75 627.774 343.75 627.764C343.75 627.754 343.75 627.745 343.75 627.735C343.75 627.725 343.75 627.715 343.75 627.705C343.75 627.696 343.75 627.686 343.75 627.676C343.75 627.666 343.75 627.656 343.75 627.647C343.75 627.637 343.75 627.627 343.75 627.617C343.75 627.608 343.75 627.598 343.75 627.588C343.75 627.578 343.75 627.568 343.75 627.559C343.75 627.549 343.75 627.539 343.75 627.529C343.75 627.52 343.75 627.51 343.75 627.5H341.75ZM341.75 644.384L342.375 710.634L344.375 710.616L343.75 644.366L341.75 644.384ZM342.375 710.642C343.001 748.166 347.373 773.534 356.326 789.856C360.817 798.042 366.465 803.965 373.369 807.993C380.265 812.016 388.355 814.115 397.682 814.748L397.818 812.752C388.707 812.135 380.938 810.093 374.377 806.265C367.824 802.442 362.418 796.802 358.08 788.894C349.377 773.028 344.999 748.084 344.375 710.608L342.375 710.642ZM396.75 813.75V815H398.75V813.75H396.75ZM397.773 814C370.945 813.376 312.76 810.875 285.25 810.875V812.875C312.74 812.875 370.805 815.374 397.727 816L397.773 814ZM285.25 810.875C252.747 810.875 221.384 813.378 200.221 814L200.279 816C221.616 815.372 252.753 812.875 285.25 812.875V810.875ZM201.25 815V813.75H199.25V815H201.25ZM200.551 814.704C212.787 810.84 221.583 802.124 227.212 785.715C232.816 769.375 235.313 745.326 235 710.616L233 710.634C233.312 745.299 230.809 769.063 225.32 785.066C219.854 801.001 211.463 809.16 199.949 812.796L200.551 814.704ZM235 710.619L233.75 486.869L231.75 486.881L233 710.631L235 710.619ZM233.75 486.858C233.438 468.742 232.192 454.356 228.37 444.483C226.451 439.525 223.857 435.636 220.344 432.99C216.819 430.337 212.457 429 207.125 429V431C212.106 431 216.024 432.242 219.141 434.588C222.268 436.943 224.674 440.475 226.505 445.205C230.183 454.706 231.437 468.758 231.75 486.892L233.75 486.858ZM207.125 429C205.802 429 204.49 429.165 203.251 429.32C201.99 429.478 200.802 429.625 199.625 429.625V431.625C200.948 431.625 202.26 431.46 203.499 431.305C204.76 431.147 205.948 431 207.125 431V429ZM200.625 430.625V428.125H198.625V430.625H200.625ZM199.812 429.107C212.978 426.599 241.135 419.716 268.256 412.056C281.82 408.225 295.14 404.197 306.208 400.419C317.242 396.653 326.136 393.106 330.777 390.225L329.723 388.525C325.302 391.269 316.617 394.753 305.562 398.526C294.54 402.288 281.258 406.306 267.713 410.131C240.615 417.784 212.522 424.651 199.438 427.143L199.812 429.107ZM329.844 390.289L335.469 392.789L336.281 390.961L330.656 388.461L329.844 390.289ZM334.875 391.893L338.625 604.393L340.625 604.357L336.875 391.857L334.875 391.893ZM339.625 605.375H340.875V603.375H339.625V605.375ZM341.873 604.436C345.307 547.925 354.516 492.874 369.393 451.983C376.833 431.533 385.668 414.687 395.858 402.971C406.04 391.264 417.506 384.75 430.25 384.75V382.75C416.744 382.75 404.772 389.674 394.349 401.658C383.934 413.633 374.996 430.733 367.513 451.299C352.546 492.438 343.318 547.7 339.877 604.314L341.873 604.436ZM765.25 202.5H766.25V201.85L765.656 201.586L765.25 202.5ZM800.875 814.375H801.875V813.563L801.08 813.396L800.875 814.375ZM800.875 815.625L800.845 816.625L801.875 816.656V815.625H800.875ZM664.625 814.375L663.636 814.523L663.764 815.375H664.625V814.375ZM659 744.375L659.999 744.333L658.086 743.969L659 744.375ZM650.25 761.875L649.356 761.428L649.351 761.437L650.25 761.875ZM656.5 402.5L656.158 403.44L657.5 403.928V402.5H656.5ZM610.875 226.25H609.875V227.309L610.933 227.248L610.875 226.25ZM610.875 225L610.782 224.004L609.875 224.089V225H610.875ZM759.625 200L760.031 199.086L759.562 198.878L759.119 199.137L759.625 200ZM647.125 762.5L647.832 763.207L647.853 763.186L647.872 763.164L647.125 762.5ZM656.5 666.875L657.5 666.888V666.875H656.5ZM656.5 519.375H657.5V519.333L657.497 519.292L656.5 519.375ZM569 414.375L569.945 414.702L569.949 414.689L569.954 414.676L569 414.375ZM764.25 202.5V707.5H766.25V202.5H764.25ZM764.25 707.5C764.25 741.263 766.435 766.707 772.031 784.442C777.64 802.218 786.75 812.44 800.67 815.354L801.08 813.396C788.125 810.685 779.422 801.22 773.938 783.84C768.44 766.418 766.25 741.237 766.25 707.5H764.25ZM799.875 814.375V815.625H801.875V814.375H799.875ZM800.905 814.625C780.264 814 703.375 813.375 664.625 813.375V815.375C703.375 815.375 780.236 816 800.845 816.625L800.905 814.625ZM665.614 814.227C663.746 801.776 661.248 774.316 659.999 744.333L658.001 744.417C659.252 774.434 661.754 801.974 663.636 814.523L665.614 814.227ZM658.086 743.969C655.597 749.569 652.508 755.122 649.356 761.428L651.144 762.322C654.242 756.128 657.403 750.431 659.914 744.781L658.086 743.969ZM649.351 761.437C643.414 773.623 635.98 788.006 624.091 799.355C612.237 810.669 595.919 819 572.125 819V821C596.456 821 613.263 812.456 625.472 800.801C637.645 789.181 645.211 774.502 651.149 762.313L649.351 761.437ZM572.125 819C544.611 819 518.519 808.043 499.268 780.983C479.984 753.876 467.5 710.52 467.5 645.625H465.5C465.5 710.73 478.016 754.561 497.638 782.142C517.293 809.77 544.014 821 572.125 821V819ZM467.5 645.625C467.5 575.115 481.23 511.684 504.268 465.918C527.326 420.114 559.562 392.25 596.5 392.25V390.25C558.438 390.25 525.674 418.948 502.482 465.019C479.27 511.129 465.5 574.885 465.5 645.625H467.5ZM596.5 392.25C612.628 392.25 635.637 395.978 656.158 403.44L656.842 401.56C636.113 394.022 612.872 390.25 596.5 390.25V392.25ZM657.5 402.5V309.375H655.5V402.5H657.5ZM657.5 309.375C657.5 280.282 654.223 258.821 646.757 244.841C643.011 237.828 638.196 232.67 632.194 229.396C626.194 226.123 619.085 224.775 610.817 225.252L610.933 227.248C618.915 226.788 625.634 228.096 631.236 231.151C636.835 234.205 641.395 239.047 644.993 245.784C652.214 259.304 655.5 280.343 655.5 309.375H657.5ZM611.875 226.25V225H609.875V226.25H611.875ZM610.968 225.996C630.981 224.119 663.656 220.524 693.6 216.067C708.571 213.839 722.874 211.394 734.575 208.838C746.225 206.294 755.442 203.611 760.131 200.863L759.119 199.137C754.746 201.701 745.838 204.331 734.148 206.884C722.509 209.426 708.257 211.864 693.306 214.089C663.407 218.539 630.769 222.131 610.782 224.004L610.968 225.996ZM759.219 200.914L764.844 203.414L765.656 201.586L760.031 199.086L759.219 200.914ZM647.872 763.164C650.544 760.159 652.386 755.504 653.697 749.622C655.012 743.716 655.817 736.448 656.326 728.108C657.344 711.435 657.188 690.291 657.5 666.888L655.5 666.862C655.187 690.334 655.344 711.377 654.33 727.986C653.823 736.286 653.027 743.432 651.745 749.187C650.457 754.965 648.706 759.216 646.378 761.836L647.872 763.164ZM657.5 666.875V519.375H655.5V666.875H657.5ZM657.497 519.292C654.046 477.89 641.809 446.938 627.637 426.309C620.552 415.996 612.974 408.251 605.755 403.074C598.552 397.91 591.631 395.25 585.875 395.25V397.25C591.057 397.25 597.573 399.668 604.589 404.699C611.588 409.718 619.011 417.285 625.988 427.441C639.941 447.75 652.079 478.36 655.503 519.458L657.497 519.292ZM585.875 395.25C577.664 395.25 571.82 402.125 568.046 414.074L569.954 414.676C573.68 402.875 579.086 397.25 585.875 397.25V395.25ZM568.055 414.048C562.367 430.479 560.5 458.143 560.5 491.875H562.5C562.5 458.107 564.383 430.771 569.945 414.702L568.055 414.048ZM560.5 491.875C560.5 579.43 569.254 648.59 582.49 695.894C589.106 719.54 596.857 737.78 605.233 750.132C613.585 762.448 622.714 769.125 632.125 769.125V767.125C623.724 767.125 615.118 761.145 606.888 749.009C598.682 736.908 591.003 718.898 584.416 695.356C571.246 648.285 562.5 579.32 562.5 491.875H560.5ZM632.125 769.125C638.589 769.125 643.861 767.178 647.832 763.207L646.418 761.793C642.889 765.322 638.161 767.125 632.125 767.125V769.125ZM866.5 819.625C848.871 819.625 835.087 814.679 825.714 805.534C816.344 796.393 811.25 782.928 811.25 765.625H809.25C809.25 783.322 814.468 797.357 824.317 806.966C834.163 816.571 848.504 821.625 866.5 821.625V819.625ZM811.25 765.625C811.25 748.004 816.347 734.384 825.717 725.166C835.089 715.946 848.871 711 866.5 711V709C848.504 709 834.161 714.054 824.314 723.74C814.466 733.429 809.25 747.621 809.25 765.625H811.25ZM866.5 711C883.812 711 897.277 715.943 906.415 725.157C915.554 734.373 920.5 747.996 920.5 765.625H922.5C922.5 747.629 917.446 733.44 907.835 723.749C898.223 714.057 884.188 709 866.5 709V711ZM920.5 765.625C920.5 782.937 915.557 796.404 906.418 805.543C897.279 814.682 883.812 819.625 866.5 819.625V821.625C884.188 821.625 898.221 816.568 907.832 806.957C917.443 797.346 922.5 783.313 922.5 765.625H920.5Z" fill="#DBFFF8" mask="url(#path-2-outside-1_1553_60)"/>
<g filter="url(#filter1_df_1553_60)">
<path d="M887 214L894.309 246.355L922.355 228.645L904.645 256.691L937 264L904.645 271.309L922.355 299.355L894.309 281.645L887 314L879.691 281.645L851.645 299.355L869.355 271.309L837 264L869.355 256.691L851.645 228.645L879.691 246.355L887 214Z" fill="#DBFFF8"/>
</g>
<g filter="url(#filter2_f_1553_60)">
<path d="M887 214L894.309 246.355L922.355 228.645L904.645 256.691L937 264L904.645 271.309L922.355 299.355L894.309 281.645L887 314L879.691 281.645L851.645 299.355L869.355 271.309L837 264L869.355 256.691L851.645 228.645L879.691 246.355L887 214Z" fill="#DBFFF8"/>
</g>
<g filter="url(#filter3_df_1553_60)">
<path d="M118 624L125.309 656.355L153.355 638.645L135.645 666.691L168 674L135.645 681.309L153.355 709.355L125.309 691.645L118 724L110.691 691.645L82.6447 709.355L100.355 681.309L68 674L100.355 666.691L82.6447 638.645L110.691 656.355L118 624Z" fill="#DBFFF8"/>
</g>
<g filter="url(#filter4_f_1553_60)">
<path d="M118 624L125.309 656.355L153.355 638.645L135.645 666.691L168 674L135.645 681.309L153.355 709.355L125.309 691.645L118 724L110.691 691.645L82.6447 709.355L100.355 681.309L68 674L100.355 666.691L82.6447 638.645L110.691 656.355L118 624Z" fill="#DBFFF8"/>
</g>
<g filter="url(#filter5_d_1553_60)">
<path d="M216.035 240.237C214.591 244.742 213.863 250.115 214.145 254.442C214.215 255.542 214.569 257.154 215.162 259.062C216.269 262.696 216.858 263.714 219.896 267.113C219.981 267.226 218.678 266.938 217.002 266.483C213.221 265.469 209.006 264.807 206.181 264.797C204.448 264.793 203.597 264.924 201.871 265.42C197.509 266.675 195.311 268.997 195.398 272.216C195.449 273.732 195.648 274.292 196.647 275.992C199.697 281.1 205.512 283.084 207.423 279.678C207.886 278.86 207.886 278.86 207.271 278.237C205.778 276.702 206.016 274.92 207.86 273.293C210.762 270.768 215.778 270.422 218.47 272.549C220.18 273.908 220.055 275.177 217.749 281.049C216.391 284.478 216.207 285.08 216.215 286.06C216.213 286.928 216.632 287.082 217.905 286.716C221.153 285.782 223.941 283.13 224.45 280.47L224.698 279.279L226.708 281.603L228.718 283.926L228.992 286.475C229.358 290.116 229.619 295.25 229.622 298.996C229.639 317.496 225.375 329.642 216.842 335.386C215.386 336.353 214.883 336.566 212.362 337.291C209.885 338.003 209.246 338.096 207.408 338.076C204.577 338.045 200.884 337.394 197.85 336.393C193.468 334.957 186.527 331.425 182.049 328.326L180.31 327.113L179.633 324.223C179.286 322.633 179.011 321.272 179.044 321.217C179.076 321.162 179.362 321.286 179.703 321.507C180.038 321.708 181.025 322.018 181.915 322.173C183.198 322.399 183.886 322.383 185.298 322.069C187.314 321.626 189.345 320.677 189.886 319.95C190.213 319.49 190.203 319.379 189.797 318.947C189.319 318.445 187.077 317.605 183.393 316.585C180.847 315.878 178.501 314.862 177.792 314.175C176.345 312.787 177.235 309.127 179.541 307.07C181.457 305.354 183.848 304.369 185.605 304.526C187.16 304.673 187.882 305.242 188.508 306.776C189.026 308.043 189.111 308.156 189.809 308.252C193.271 308.719 195.19 304.786 193.945 299.752C193.017 296.135 190.958 293.894 188.087 293.418C185.262 292.928 181.271 294.738 178.626 297.692C176.973 299.538 174.435 303.946 173.009 307.395C172.388 308.899 171.851 310.195 171.809 310.299C171.767 310.402 171.287 309.101 170.759 307.402C169.584 303.628 168.718 302.278 165.586 299.135C162.146 295.715 157.414 292.758 151.816 290.598C149.766 289.817 149.123 289.659 149.059 289.929C148.91 290.566 149.193 294.894 149.571 297.458C150.129 301.159 151.965 306.342 153.648 308.965C155.708 312.165 159.089 315.236 161.74 316.279C162.709 316.685 162.339 316.769 159.705 316.818C154.335 316.9 148.555 317.969 145.739 319.418C142.715 320.996 140.498 323.415 140.06 325.666C139.915 326.393 139.998 327.055 140.396 328.334C140.866 329.844 141.055 330.132 142.255 331.363C144.908 334.004 149.183 335.493 151.932 334.703C153.068 334.376 153.337 334.207 153.826 333.473C154.153 333.013 154.448 332.289 154.496 331.887C154.592 331.242 154.53 331.123 154.166 331.067C153.397 330.9 152.382 329.867 152.095 328.945C151.364 326.596 153.651 323.608 157.156 322.303C159.171 321.541 160.995 321.519 162.652 322.23C163.9 322.74 163.906 322.761 164.295 324.088C164.654 325.401 164.708 326.528 164.574 331.981C164.51 334.878 164.69 335.854 165.366 336.117C165.954 336.336 166.934 335.666 168.531 333.881C170.356 331.872 171.148 329.725 170.852 327.503L170.715 326.583L173.249 328.047L175.784 329.511L176.345 331.314C177.07 333.642 178.594 340.606 179.027 343.588C180.652 354.612 179.119 362.729 174.784 366.375C171.918 368.775 165.322 371.677 161.767 372.106C156.853 372.696 150.185 371.553 142.152 368.723C139.621 367.828 139.432 367.7 138.759 366.729C138.352 366.137 137.923 365.553 137.802 365.404C137.604 365.165 137.717 365.132 138.756 365.13C140.311 365.117 141.373 364.789 142.881 363.83C144.373 362.898 145.66 361.546 146.527 360.039C147.599 358.155 146.677 357.895 141.908 358.718C135.641 359.812 133.65 359.859 132.389 358.988C131.404 358.289 130.696 355.774 130.982 353.91C131.422 351.11 133.655 348.184 135.835 347.556C137.494 347.08 138.553 347.46 139.783 349.026C140.186 349.527 140.261 349.528 141.13 349.141C143.878 347.871 144.202 345.173 141.975 341.678C139.359 337.565 135.083 335.596 131.666 336.944C129.177 337.934 126.595 341.327 125.857 344.601C125.189 347.625 125.212 353.582 125.913 357.424C126.073 358.177 126.12 358.803 126.029 358.83C125.961 358.849 125.538 358.445 125.128 357.924C122.275 354.244 116.67 351.583 110.1 350.754C105.879 350.232 99.8172 350.399 95.8963 351.161L94.3805 351.459L96.5477 352.458C99.9235 354 104.852 356.078 109.933 358.09C119.868 362.018 125.596 364.597 132.755 368.432C136.879 370.628 138.543 371.68 142.092 374.337C153.603 382.929 157.846 386.941 161.345 392.537C163.751 396.368 166.195 402.154 166.798 405.362L167.083 406.993L166.263 406.269C165.789 405.857 165.347 405.55 165.278 405.57C165.21 405.59 165.228 406.361 165.336 407.267C165.508 408.771 165.479 408.916 165.021 408.957C164.758 408.987 163.891 409.144 163.138 409.27L161.736 409.536L162.318 409.894C162.652 410.095 163.374 410.504 163.936 410.799L164.979 411.367L163.975 412.913L163 414.472L164.844 413.874L166.709 413.269L167.117 414.18C167.348 414.684 167.7 415.337 167.902 415.667L168.273 416.223L168.732 414.994L169.214 413.759L169.693 415.061C169.944 415.788 170.267 416.586 170.42 416.839L170.677 417.268L264.611 390.254L358.523 363.246L358.017 361.381L357.517 359.537L358.717 360.768C359.41 361.483 359.959 361.896 360.04 361.759C360.121 361.621 360.182 360.941 360.213 360.247C360.245 359.553 360.289 358.9 360.354 358.79C360.396 358.687 361.142 358.54 361.996 358.5C362.866 358.433 363.626 358.329 363.733 358.275C363.833 358.201 363.339 357.726 362.637 357.22C361.912 356.72 361.321 356.25 361.301 356.187C361.288 356.145 361.767 355.459 362.386 354.664L363.481 353.253L361.631 353.671L359.781 354.089L359.295 352.446L358.825 350.777L357.879 352.351L356.934 353.925L356.226 353.718L355.488 353.496L354.078 348.647C352.769 344.203 352.661 343.617 352.606 341.531C352.443 333.056 355.213 321.043 360.512 307.136C363.073 300.414 367.088 293.594 375.245 282.11C379.252 276.457 383.667 269.887 384.467 268.4L384.858 267.671L383.655 268.177C381.309 269.149 377.289 271.264 375.411 272.467C368.302 277.138 364.342 282.07 363.134 287.809C362.889 288.93 362.728 290.004 362.78 290.172C362.833 290.34 362.81 290.506 362.719 290.532C362.606 290.565 361.899 289.329 361.095 287.778C358.092 281.948 354.934 278.241 351.47 276.496C346.69 274.101 342.747 275.03 340.665 279.078C339.348 281.604 339.117 285.395 340.098 287.831C340.946 289.918 342.421 290.841 344.388 290.481L345.443 290.292L345.617 289.26C345.857 287.568 346.434 286.877 347.956 286.439C349.433 286.015 350.579 286.119 352.34 286.846C354.858 287.858 357.122 290.36 357.43 292.465C357.808 295.029 357.023 295.689 350.375 298.423C345.423 300.487 344.629 301.035 345.283 301.944C345.677 302.493 348.149 303.358 350.081 303.602C352.117 303.862 354.379 303.417 355.69 302.537C356.306 302.132 356.572 302.032 356.55 302.199C356.55 302.359 356.519 303.373 356.485 304.456L356.456 306.429L354.612 309.016C347.913 318.344 343.49 322.106 337.061 323.955C330.201 325.928 323.397 324.504 318.331 319.998C313.321 315.59 309.681 309.304 305.012 297.007L303.47 292.928L304.81 290.235L306.15 287.542L306.612 288.551C307.629 290.703 310.515 292.501 313.752 292.963C316.061 293.304 316.308 293.142 315.796 291.576C315.508 290.653 314.799 289.487 313.123 287.204C311.46 284.964 310.653 283.642 310.219 282.488L309.581 280.912L310.199 279.958C311.964 277.12 316.579 275.884 320.218 277.237C322.862 278.258 323.793 279.978 322.78 282.051L322.263 283.091L322.965 283.757C324.997 285.754 328.525 284.443 330.934 280.734C333.946 276.098 333.192 271.129 329.199 269.354C327.587 268.629 324.547 268.247 322.496 268.494C319.324 268.881 313.864 271.136 309.076 274.044L307.37 275.083L308.114 273.658C311.62 267.03 310.834 258.46 305.898 249.759C304.478 247.266 303.251 245.471 303.018 245.516C302.563 245.646 299.111 250.774 297.945 253.074C294.045 260.661 293.179 267.421 295.396 272.952L296.12 274.8L293.568 273.044C292.154 272.08 289.415 270.514 287.462 269.568C282.335 267.09 279.821 266.648 275.923 267.563C274.222 267.984 273.697 268.204 272.961 268.781C270.434 270.764 269.921 274.681 271.719 278.39C273.921 282.92 277.46 284.507 280.056 282.115C280.4 281.788 280.393 281.607 280.071 280.969C279.234 279.314 279.974 277.478 281.853 276.596C285.847 274.716 291.931 276.53 293.011 279.921C293.259 280.717 293.194 280.987 292.476 282.336C292.013 283.155 290.581 285.074 289.265 286.572C287.978 288.084 286.624 289.776 286.294 290.305C284.94 292.477 286.272 292.939 290.39 291.777C293.259 290.975 294.206 290.36 295.417 288.527C295.78 287.943 296.133 287.567 296.159 287.651C296.192 287.756 296.665 288.876 297.189 290.165L298.144 292.517L297.42 294.325C294.859 300.887 290.958 308.154 288.155 311.633C282.929 318.139 278.711 320.015 271.849 318.881C261.099 317.107 250.296 308.083 239.624 292.007C237.6 289.002 234.107 283.107 233.878 282.374C233.761 281.996 233.891 280.268 234.244 277.585L234.359 276.684L235.104 277.406C236.112 278.419 238.65 279.494 240.254 279.558C242.065 279.654 244.438 279.405 245.09 279.035C245.535 278.793 245.58 278.62 245.391 278.012C245.156 277.257 244.249 276.49 240.283 273.769C237.927 272.162 235.768 270.156 235.526 269.38C235.291 268.625 235.566 267.678 236.418 266.36C237.736 264.313 240.084 262.952 242.827 262.62C246.388 262.213 248.839 263.884 248.294 266.348C248.217 266.736 248.276 267.244 248.41 267.434C248.761 267.927 250.775 268.353 251.593 268.118C253.364 267.608 255.182 264.938 255.71 262.022C256.772 256.371 254.038 252.359 249.097 252.387C246.967 252.383 244.082 253.212 242.009 254.425C239.875 255.679 235.828 259.218 233.248 262.062C232.091 263.354 231.109 264.414 231.087 264.42C231.041 264.433 231.09 264.191 231.186 263.866C231.542 262.781 231.565 259.119 231.208 257.097C230.392 252.489 227.423 247.403 222.786 242.682C220.542 240.403 217.388 237.746 217.025 237.851C216.889 237.89 216.458 238.973 216.035 240.237Z" fill="#DBFFF8"/>
</g>
<defs>
<filter id="filter0_df_1553_60" x="0.625" y="0" width="1121.88" height="1020.62" filterUnits="userSpaceOnUse" color-interpolation-filters="sRGB">
<feFlood flood-opacity="0" result="BackgroundImageFix"/>
<feColorMatrix in="SourceAlpha" type="matrix" values="0 0 0 0 0 0 0 0 0 0 0 0 0 0 0 0 0 0 127 0" result="hardAlpha"/>
<feOffset/>
<feGaussianBlur stdDeviation="100"/>
<feComposite in2="hardAlpha" operator="out"/>
<feColorMatrix type="matrix" values="0 0 0 0 0.388235 0 0 0 0 0.811765 0 0 0 0 0.760784 0 0 0 1 0"/>
<feBlend mode="normal" in2="BackgroundImageFix" result="effect1_dropShadow_1553_60"/>
<feBlend mode="normal" in="SourceGraphic" in2="effect1_dropShadow_1553_60" result="shape"/>
<feGaussianBlur stdDeviation="8" result="effect2_foregroundBlur_1553_60"/>
</filter>
<filter id="filter1_df_1553_60" x="805" y="182" width="164" height="164" filterUnits="userSpaceOnUse" color-interpolation-filters="sRGB">
<feFlood flood-opacity="0" result="BackgroundImageFix"/>
<feColorMatrix in="SourceAlpha" type="matrix" values="0 0 0 0 0 0 0 0 0 0 0 0 0 0 0 0 0 0 127 0" result="hardAlpha"/>
<feOffset/>
<feGaussianBlur stdDeviation="16"/>
<feComposite in2="hardAlpha" operator="out"/>
<feColorMatrix type="matrix" values="0 0 0 0 0.388235 0 0 0 0 0.811765 0 0 0 0 0.760784 0 0 0 1 0"/>
<feBlend mode="normal" in2="BackgroundImageFix" result="effect1_dropShadow_1553_60"/>
<feBlend mode="normal" in="SourceGraphic" in2="effect1_dropShadow_1553_60" result="shape"/>
<feGaussianBlur stdDeviation="5" result="effect2_foregroundBlur_1553_60"/>
</filter>
<filter id="filter2_f_1553_60" x="835" y="212" width="104" height="104" filterUnits="userSpaceOnUse" color-interpolation-filters="sRGB">
<feFlood flood-opacity="0" result="BackgroundImageFix"/>
<feBlend mode="normal" in="SourceGraphic" in2="BackgroundImageFix" result="shape"/>
<feGaussianBlur stdDeviation="1" result="effect1_foregroundBlur_1553_60"/>
</filter>
<filter id="filter3_df_1553_60" x="36" y="592" width="164" height="164" filterUnits="userSpaceOnUse" color-interpolation-filters="sRGB">
<feFlood flood-opacity="0" result="BackgroundImageFix"/>
<feColorMatrix in="SourceAlpha" type="matrix" values="0 0 0 0 0 0 0 0 0 0 0 0 0 0 0 0 0 0 127 0" result="hardAlpha"/>
<feOffset/>
<feGaussianBlur stdDeviation="16"/>
<feComposite in2="hardAlpha" operator="out"/>
<feColorMatrix type="matrix" values="0 0 0 0 0.388235 0 0 0 0 0.811765 0 0 0 0 0.760784 0 0 0 1 0"/>
<feBlend mode="normal" in2="BackgroundImageFix" result="effect1_dropShadow_1553_60"/>
<feBlend mode="normal" in="SourceGraphic" in2="effect1_dropShadow_1553_60" result="shape"/>
<feGaussianBlur stdDeviation="5" result="effect2_foregroundBlur_1553_60"/>
</filter>
<filter id="filter4_f_1553_60" x="66" y="622" width="104" height="104" filterUnits="userSpaceOnUse" color-interpolation-filters="sRGB">
<feFlood flood-opacity="0" result="BackgroundImageFix"/>
<feBlend mode="normal" in="SourceGraphic" in2="BackgroundImageFix" result="shape"/>
<feGaussianBlur stdDeviation="1" result="effect1_foregroundBlur_1553_60"/>
</filter>
<filter id="filter5_d_1553_60" x="64.3806" y="207.848" width="350.478" height="239.42" filterUnits="userSpaceOnUse" color-interpolation-filters="sRGB">
<feFlood flood-opacity="0" result="BackgroundImageFix"/>
<feColorMatrix in="SourceAlpha" type="matrix" values="0 0 0 0 0 0 0 0 0 0 0 0 0 0 0 0 0 0 127 0" result="hardAlpha"/>
<feOffset/>
<feGaussianBlur stdDeviation="15"/>
<feComposite in2="hardAlpha" operator="out"/>
<feColorMatrix type="matrix" values="0 0 0 0 0.389323 0 0 0 0 0.8125 0 0 0 0 0.761719 0 0 0 1 0"/>
<feBlend mode="normal" in2="BackgroundImageFix" result="effect1_dropShadow_1553_60"/>
<feBlend mode="normal" in="SourceGraphic" in2="effect1_dropShadow_1553_60" result="shape"/>
</filter>
</defs>
</svg>
