<svg width="32" height="32" viewBox="0 0 32 32" fill="none" xmlns="http://www.w3.org/2000/svg">
<path d="M29.973 22.541C29.973 22.541 25.716 21.91 23.467 21.729C21.307 21.555 18.747 21.455 16.001 21.455C13.255 21.455 10.695 21.555 8.536 21.729C6.286 21.912 2.03 22.787 2.03 22.787V23.887C2.03 24.865 8.286 25.659 16.002 25.659C23.718 25.659 29.974 24.865 29.974 23.887L29.973 22.541ZM11.705 7.952C9.21599 8.83981 7.06253 10.4758 5.53988 12.6356C4.01722 14.7954 3.1999 17.3734 3.2 20.016V21.83C5.02072 21.3965 6.87697 21.1287 8.746 21.03C8.73333 20.6793 8.72667 20.3287 8.726 19.978C8.62426 15.7749 9.65309 11.6216 11.705 7.952Z" fill="white"/>
<path d="M28.806 20.016C28.8102 17.0443 27.7763 14.1645 25.883 11.874C26.7035 14.4951 27.1124 17.2276 27.095 19.974C27.095 20.474 27.0823 20.968 27.057 21.456C27.6398 21.5458 28.217 21.6683 28.786 21.823L28.806 20.016Z" fill="white"/>
<path d="M28.806 20.016C28.8102 17.0443 27.7763 14.1645 25.883 11.874C26.7035 14.4951 27.1124 17.2276 27.095 19.974C27.095 20.474 27.0823 20.968 27.057 21.456C27.6398 21.5458 28.217 21.6683 28.786 21.823L28.806 20.016Z" fill="white"/>
<path d="M25.883 11.873C24.2083 9.84307 21.9493 8.37785 19.4129 7.67635C16.8766 6.97486 14.1858 7.0711 11.706 7.95199C9.65257 11.62 8.62297 15.7726 8.72499 19.975C8.72499 20.3283 8.73132 20.679 8.74399 21.027C10.8994 20.868 13.0597 20.7829 15.221 20.772H16C19.697 20.7278 23.3921 20.9581 27.055 21.461C27.0797 20.9723 27.0927 20.4783 27.094 19.979C27.1123 17.2306 26.7038 14.496 25.883 11.873Z" fill="white"/>
<path d="M21.152 12.72L20.341 7.648C20.3128 7.46511 20.2332 7.29399 20.1116 7.1545C19.99 7.01502 19.8313 6.91289 19.654 6.86C17.2895 6.16611 14.7755 6.16611 12.411 6.86C12.2338 6.91305 12.0754 7.01525 11.9539 7.15472C11.8325 7.29419 11.7531 7.46523 11.725 7.648L10.913 12.72M16 20.664H15.218C7.86499 20.715 2.02699 21.488 2.02699 22.433V23.8C2.01508 23.8803 2.03209 23.9621 2.07499 24.031C2.4485 23.7505 2.87782 23.5534 3.33399 23.453C4.49575 23.1705 5.67654 22.973 6.86699 22.862C7.20075 22.8247 7.53862 22.8589 7.85812 22.9624C8.17763 23.0658 8.47143 23.2362 8.71999 23.462C9.63939 24.3035 10.8406 24.7702 12.087 24.77H19.909C21.1553 24.7701 22.3565 24.3034 23.276 23.462C23.5241 23.2349 23.8179 23.0634 24.1376 22.9589C24.4573 22.8544 24.7956 22.8193 25.13 22.856C26.3201 22.9673 27.5006 23.1652 28.662 23.448C29.0939 23.5309 29.5018 23.7093 29.856 23.97C29.876 23.99 29.899 24.008 29.917 24.026C29.9604 23.9569 29.9778 23.8747 29.966 23.794V22.424C29.966 21.449 23.715 20.656 15.999 20.656L16 20.664Z" fill="white"/>
<path d="M18.945 16.6L16 18.409V20.765L18.945 16.6Z" fill="#6E6F70"/>
<path d="M16 20.765V18.409L13.055 16.6L16 20.765ZM13.053 15.52L16 17.223V10.753L13.053 15.52Z" fill="#0A0A0A"/>
<path d="M18.945 15.519L16 10.753V17.222L18.947 15.522L18.945 15.519Z" fill="#6E6F70"/>
</svg>
