<svg width="24" height="24" viewBox="0 0 24 24" fill="none" xmlns="http://www.w3.org/2000/svg">
<path fill-rule="evenodd" clip-rule="evenodd" d="M0 0H24V24H0V0ZM18.347 20.12C17.234 20.12 16.605 19.54 16.122 18.75L14.289 19.815C14.951 21.123 16.304 22.121 18.399 22.121C20.541 22.121 22.136 21.009 22.136 18.978C22.136 17.095 21.054 16.258 19.138 15.435L18.574 15.194C17.606 14.774 17.187 14.501 17.187 13.824C17.187 13.277 17.607 12.858 18.267 12.858C18.914 12.858 19.331 13.131 19.718 13.824L21.474 12.697C20.731 11.39 19.701 10.891 18.267 10.891C16.253 10.891 14.964 12.179 14.964 13.871C14.964 15.706 16.044 16.575 17.672 17.268L18.236 17.51C19.265 17.96 19.878 18.234 19.878 19.007C19.878 19.653 19.281 20.12 18.347 20.12ZM9.607 20.105C8.832 20.105 8.509 19.575 8.155 18.945L6.319 20.057C6.851 21.183 7.897 22.117 9.702 22.117C11.701 22.117 13.07 21.054 13.07 18.719V11.019H10.815V18.689C10.815 19.816 10.347 20.105 9.606 20.105H9.607Z" fill="white"/>
</svg>
