<svg width="38" height="24" viewBox="0 0 38 24" fill="none" xmlns="http://www.w3.org/2000/svg">
<path d="M37.8573 20.5541C18.1399 23.1453 4.06662 26.2578 3.85845 13.4825C3.85845 13.4825 4.28863 8.53258 10.3262 8.22087C10.3262 8.22087 10.5296 3.82443 15.1421 3.32665C17.6218 3.05672 20.4392 5.62487 20.7446 8.32784C20.7446 8.32784 26.8466 7.19272 27.1103 13.1755C27.2029 15.2597 26.7356 18.8047 20.851 18.6511C20.851 18.6511 17.4461 18.1859 16.9833 12.8917C16.0257 23.1406 30.7605 22.5452 30.9734 13.236C31.0659 9.21169 28.5028 5.07124 22.7293 5.84813C19.5648 -2.15839 11.1403 -1.69779 8.00364 5.72724C3.52065 5.72724 0.0926238 9.19776 0.143597 13.7292C0.314784 28.3141 20.4993 23.9176 37.8573 20.5541Z" fill="white"/>
</svg>
