<svg width="22" height="24" viewBox="0 0 22 24" fill="none" xmlns="http://www.w3.org/2000/svg">
<path d="M11 23.8125C10.6859 23.8125 10.3672 23.7281 10.0906 23.5688L7.19843 21.8578C6.76718 21.6141 6.97812 21.5297 7.11874 21.4828C7.69531 21.2813 7.81249 21.2391 8.42656 20.8875C8.49218 20.85 8.57656 20.8641 8.64218 20.9063L10.8641 22.2234C10.9437 22.2703 11.0562 22.2703 11.1312 22.2234L19.7891 17.2266C19.8687 17.1797 19.9203 17.0859 19.9203 16.9922V6.99844C19.9203 6.90001 19.8687 6.81094 19.7844 6.75938L11.1312 1.76719C11.0516 1.72032 10.9437 1.72032 10.8641 1.76719L2.21562 6.76407C2.13124 6.81094 2.07968 6.90469 2.07968 7.00313V16.9922C2.07968 17.0859 2.13124 17.1797 2.21562 17.2219L4.58749 18.5906C5.87656 19.2328 6.66406 18.4781 6.66406 17.7141V7.85157C6.66406 7.71094 6.77656 7.60313 6.91718 7.60313H8.01406C8.14999 7.60313 8.26718 7.71094 8.26718 7.85157V17.7188C8.26718 19.4344 7.32968 20.4188 5.70312 20.4188C5.20156 20.4188 4.80781 20.4188 3.71093 19.875L1.44218 18.5672C0.879681 18.2438 0.532806 17.6391 0.532806 16.9875V6.99844C0.532806 6.35157 0.879681 5.74219 1.44218 5.41876L10.0906 0.421881C10.6391 0.112506 11.3656 0.112506 11.9094 0.421881L20.5672 5.42344C21.1297 5.74688 21.4766 6.35157 21.4766 7.00313V16.9922C21.4766 17.6391 21.1297 18.2438 20.5672 18.5719L11.9094 23.5688C11.6328 23.7281 11.3187 23.8125 11 23.8125ZM17.9891 13.9641C17.9891 12.0938 16.7234 11.5969 14.0656 11.2453C11.375 10.8891 11.1031 10.7063 11.1031 10.0781C11.1031 9.55782 11.3328 8.86407 13.325 8.86407C15.1016 8.86407 15.7578 9.24844 16.0297 10.4484C16.0531 10.5609 16.1562 10.6453 16.2734 10.6453H17.3984C17.4687 10.6453 17.5344 10.6172 17.5812 10.5656C17.6281 10.5141 17.6516 10.4438 17.6469 10.3734C17.4734 8.30626 16.1 7.34532 13.325 7.34532C10.8547 7.34532 9.38281 8.38594 9.38281 10.1344C9.38281 12.0281 10.85 12.5531 13.2172 12.7875C16.0531 13.0641 16.2734 13.4813 16.2734 14.0391C16.2734 15.0047 15.4953 15.4172 13.6719 15.4172C11.3797 15.4172 10.8781 14.8406 10.7094 13.7016C10.6906 13.5797 10.5875 13.4906 10.4609 13.4906H9.34062C9.19999 13.4906 9.09218 13.6031 9.09218 13.7391C9.09218 15.1969 9.88437 16.9359 13.6766 16.9359C16.4141 16.9313 17.9891 15.8484 17.9891 13.9641Z" fill="white"/>
</svg>
