<svg width="24" height="24" viewBox="0 0 24 24" fill="none" xmlns="http://www.w3.org/2000/svg">
<path d="M24 11.689C24 10.099 22.009 8.592 18.956 7.658C19.661 4.547 19.348 2.071 17.968 1.278C17.6336 1.09072 17.2552 0.996452 16.872 1.005V2.095C17.097 2.095 17.278 2.14 17.43 2.223C18.095 2.605 18.384 4.057 18.159 5.926C18.105 6.386 18.017 6.87 17.909 7.364C16.8866 7.11764 15.849 6.93958 14.803 6.831C14.1799 5.97129 13.5 5.15414 12.768 4.385C14.363 2.903 15.86 2.091 16.878 2.091V1C15.532 1 13.771 1.959 11.99 3.622C10.21 1.97 8.448 1.02 7.103 1.02V2.11C8.116 2.11 9.618 2.918 11.213 4.39C10.528 5.11 9.843 5.926 9.192 6.831C8.14383 6.93837 7.10435 7.11814 6.081 7.369C5.97285 6.90079 5.88775 6.42756 5.826 5.951C5.596 4.081 5.88 2.629 6.541 2.243C6.687 2.155 6.878 2.115 7.103 2.115V1.025C6.693 1.025 6.32 1.113 5.998 1.298C4.623 2.091 4.315 4.561 5.024 7.663C1.981 8.603 0 10.104 0 11.689C0 13.279 1.991 14.786 5.044 15.719C4.339 18.831 4.652 21.307 6.032 22.099C6.35 22.285 6.722 22.373 7.132 22.373C8.478 22.373 10.239 21.414 12.02 19.751C13.8 21.404 15.561 22.353 16.907 22.353C17.2931 22.3612 17.6744 22.2666 18.012 22.079C19.387 21.287 19.695 18.817 18.986 15.715C22.019 14.781 24 13.274 24 11.689ZM17.63 8.426C17.44 9.07986 17.2197 9.72455 16.97 10.358C16.5612 9.56276 16.1123 8.78876 15.625 8.039C16.32 8.142 16.99 8.269 17.631 8.426H17.63ZM15.39 13.636C15.0237 14.2755 14.6304 14.899 14.211 15.505C12.7433 15.6344 11.267 15.636 9.799 15.51C8.95695 14.3072 8.22054 13.0338 7.598 11.704C8.21958 10.3711 8.95287 9.09321 9.79 7.884C11.2574 7.75437 12.7333 7.75236 14.201 7.878C14.607 8.46 15.004 9.082 15.385 9.738C15.757 10.378 16.095 11.028 16.403 11.684C16.0916 12.348 15.7536 12.9991 15.39 13.636ZM16.97 13C17.234 13.655 17.46 14.311 17.645 14.947C17.005 15.104 16.329 15.236 15.63 15.338C16.1152 14.5814 16.5625 13.8011 16.97 13ZM12.01 18.22C11.555 17.75 11.1 17.227 10.65 16.654C11.09 16.674 11.54 16.689 11.995 16.689C12.455 16.689 12.91 16.679 13.355 16.654C12.915 17.227 12.46 17.75 12.01 18.22ZM8.37 15.338C7.69574 15.2403 7.02636 15.1115 6.364 14.952C6.545 14.321 6.77 13.67 7.024 13.02C7.225 13.41 7.436 13.802 7.666 14.194C7.896 14.585 8.13 14.967 8.37 15.338ZM11.985 5.158C12.44 5.628 12.895 6.151 13.345 6.724C12.905 6.704 12.455 6.689 12 6.689C11.54 6.689 11.085 6.699 10.64 6.724C11.08 6.151 11.535 5.628 11.985 5.158ZM8.365 8.04C7.87987 8.79493 7.43265 9.57356 7.025 10.373C6.76821 9.73546 6.54294 9.08567 6.35 8.426C6.99 8.274 7.666 8.142 8.365 8.04ZM3.938 14.164C2.206 13.426 1.086 12.457 1.086 11.689C1.086 10.921 2.206 9.947 3.938 9.214C4.358 9.033 4.818 8.871 5.293 8.72C5.572 9.678 5.939 10.676 6.393 11.699C5.96437 12.6612 5.60186 13.6515 5.308 14.663C4.84345 14.5192 4.38624 14.3526 3.938 14.164ZM6.57 21.154C5.905 20.774 5.616 19.32 5.841 17.452C5.895 16.992 5.983 16.507 6.091 16.013C7.049 16.248 8.096 16.429 9.197 16.547C9.82018 17.4067 10.5 18.2238 11.232 18.993C9.637 20.475 8.14 21.287 7.122 21.287C6.92994 21.2891 6.74033 21.2438 6.57 21.155V21.154ZM18.174 17.427C18.404 19.296 18.12 20.749 17.459 21.135C17.313 21.223 17.122 21.262 16.897 21.262C15.884 21.262 14.382 20.455 12.787 18.982C13.5159 18.2161 14.1912 17.4008 14.808 16.542C15.8562 16.4346 16.8956 16.2549 17.919 16.004C18.032 16.498 18.119 16.972 18.174 17.427ZM20.057 14.164C19.637 14.345 19.177 14.507 18.702 14.658C18.403 13.6413 18.0355 12.646 17.602 11.679C18.052 10.662 18.413 9.669 18.687 8.715C19.153 8.85932 19.6119 9.02584 20.062 9.214C21.794 9.952 22.914 10.921 22.914 11.689C22.909 12.457 21.789 13.431 20.057 14.164Z" fill="white"/>
<path d="M11.995 13.925C12.588 13.925 13.1568 13.6894 13.5761 13.2701C13.9954 12.8508 14.231 12.282 14.231 11.689C14.231 11.096 13.9954 10.5272 13.5761 10.1079C13.1568 9.68858 12.588 9.453 11.995 9.453C11.402 9.453 10.8332 9.68858 10.4139 10.1079C9.99458 10.5272 9.759 11.096 9.759 11.689C9.759 12.282 9.99458 12.8508 10.4139 13.2701C10.8332 13.6894 11.402 13.925 11.995 13.925Z" fill="white"/>
</svg>
